{"glyphs":{"0":{"ha":561,"x_min":81,"x_max":481,"o":"m 279 -17 q 181 9 226 -17 q 108 88 135 35 q 81 222 81 142 l 81 593 q 140 774 81 715 q 282 832 200 832 q 422 773 364 832 q 481 593 481 714 l 481 222 q 453 87 481 140 q 381 8 426 33 q 279 -17 335 -17 m 281 8 q 400 65 353 8 q 447 222 447 121 l 447 592 q 399 751 447 694 q 281 807 350 807 q 162 751 210 807 q 114 592 114 694 l 114 222 q 162 65 114 121 q 281 8 210 8 z "},"1":{"ha":303,"x_min":35,"x_max":194,"o":"m 161 0 l 161 751 l 35 751 l 35 772 l 128 772 q 159 781 151 772 q 169 821 167 790 l 194 821 l 194 0 l 161 0 z "},"2":{"ha":510,"x_min":69,"x_max":461,"o":"m 75 0 q 75 74 75 38 q 75 150 75 111 q 97 253 75 215 q 157 317 118 292 q 249 369 196 343 q 334 425 297 392 q 393 507 371 458 q 415 622 415 556 q 379 752 417 707 q 260 797 342 797 q 145 758 188 797 q 103 636 103 718 l 103 561 l 69 561 l 69 633 q 120 779 69 732 q 260 826 171 826 q 371 802 329 826 q 432 732 413 778 q 451 618 451 686 q 409 462 451 529 q 290 354 367 394 q 202 309 243 333 q 135 248 161 285 q 110 151 110 211 q 108 92 108 122 q 108 32 108 63 l 461 32 l 461 0 l 75 0 z "},"3":{"ha":540,"x_min":67,"x_max":467,"o":"m 267 -11 q 148 17 192 -11 q 85 92 104 44 q 67 194 67 139 l 67 268 l 103 268 l 103 183 q 146 63 103 107 q 267 17 189 19 q 385 60 340 17 q 431 182 431 104 l 431 256 q 385 371 431 329 q 264 415 339 413 l 172 415 l 172 447 l 264 447 q 333 463 300 447 q 389 507 367 478 q 414 555 406 529 q 422 610 422 581 l 422 651 q 385 756 422 713 q 267 799 347 799 q 149 756 186 799 q 111 650 111 713 l 111 590 l 74 590 l 74 639 q 119 776 74 726 q 267 826 165 826 q 414 776 368 826 q 460 639 460 726 l 460 613 q 423 494 460 539 q 333 431 386 450 q 434 365 401 415 q 467 244 467 315 l 467 194 q 449 92 467 139 q 387 17 431 44 q 267 -11 343 -11 z "},"4":{"ha":475,"x_min":28,"x_max":444,"o":"m 332 0 l 332 169 l 28 169 l 28 194 l 344 821 l 365 821 l 365 196 l 444 196 l 444 169 l 365 169 l 365 0 l 332 0 m 64 196 l 332 196 l 332 724 l 64 196 z "},"5":{"ha":546,"x_min":74,"x_max":472,"o":"m 276 -11 q 167 8 213 -11 q 98 75 122 26 q 74 213 74 124 l 74 240 l 108 240 l 108 217 q 147 65 108 111 q 279 18 185 18 q 403 72 367 18 q 439 225 439 126 l 439 331 q 425 427 439 383 q 376 497 411 471 q 274 522 340 522 q 168 490 213 522 q 110 406 124 458 l 79 406 l 79 821 l 444 821 l 444 789 l 114 789 l 114 469 q 181 529 139 510 q 275 549 222 549 q 419 503 367 549 q 472 333 472 457 l 472 228 q 444 76 472 128 q 372 7 417 25 q 276 -11 326 -11 z "},"6":{"ha":556,"x_min":81,"x_max":479,"o":"m 279 -11 q 160 17 203 -11 q 99 92 117 44 q 81 194 81 139 l 81 622 q 136 770 81 717 q 283 824 192 824 q 422 776 372 824 q 471 631 471 729 l 471 579 l 438 579 l 438 636 q 397 756 438 718 q 283 794 357 794 q 160 747 206 794 q 115 629 115 699 l 115 413 q 185 477 142 453 q 285 501 229 501 q 423 448 367 501 q 479 306 479 394 l 479 194 q 460 92 479 139 q 399 17 442 44 q 279 -11 356 -11 m 279 15 q 399 60 353 15 q 446 193 446 104 l 446 304 q 399 428 446 386 q 279 472 353 469 q 163 431 210 472 q 115 315 115 389 l 115 193 q 158 63 115 108 q 279 15 201 18 z "},"7":{"ha":388,"x_min":21,"x_max":346,"o":"m 85 0 l 314 792 l 22 792 l 21 821 l 346 821 l 346 789 l 118 0 l 85 0 z "},"8":{"ha":547,"x_min":74,"x_max":474,"o":"m 274 -11 q 155 17 199 -11 q 92 92 111 44 q 74 194 74 139 l 74 244 q 85 323 74 286 q 124 386 97 360 q 160 413 139 401 q 208 431 182 425 q 164 453 185 439 q 126 485 143 467 q 93 540 106 508 q 81 614 81 572 l 81 639 q 101 740 81 697 q 164 804 121 782 q 274 826 207 826 q 384 804 342 826 q 447 740 426 782 q 467 639 467 697 l 467 614 q 449 528 467 565 q 403 468 432 492 q 340 431 375 444 q 400 406 375 422 q 442 365 425 389 q 466 310 458 340 q 474 244 474 281 l 474 194 q 456 92 474 139 q 394 17 438 46 q 274 -11 350 -11 m 274 15 q 392 59 347 15 q 438 179 438 103 l 438 256 q 392 370 438 329 q 274 414 347 411 q 156 372 203 414 q 110 256 110 329 l 110 179 q 153 62 110 106 q 274 15 196 18 m 274 447 q 384 494 339 447 q 429 611 429 542 l 429 653 q 392 757 429 714 q 274 800 354 800 q 156 757 193 800 q 118 653 118 714 l 118 611 q 140 527 118 564 q 197 469 161 490 q 274 447 232 447 z "},"9":{"ha":553,"x_min":74,"x_max":472,"o":"m 269 -11 q 131 36 181 -11 q 82 182 82 83 l 82 238 l 115 238 l 115 176 q 156 57 115 96 q 269 18 197 18 q 392 66 347 18 q 438 183 438 114 l 438 401 q 368 336 411 360 q 268 313 325 313 q 169 337 214 313 q 99 406 125 361 q 74 508 74 450 l 74 618 q 92 722 74 675 q 155 796 111 768 q 274 824 199 824 q 393 796 350 824 q 454 722 436 768 q 472 618 472 675 l 472 190 q 417 42 472 96 q 269 -11 361 -11 m 274 340 q 390 383 343 340 q 438 499 438 425 l 438 619 q 394 750 438 706 q 274 797 351 794 q 154 753 201 797 q 107 619 107 708 l 107 508 q 154 385 107 428 q 274 340 201 343 z "},"\r":{"ha":833,"x_min":0,"x_max":0,"o":""}," ":{"ha":276,"x_min":0,"x_max":0,"o":""}," ":{"ha":276,"x_min":0,"x_max":0,"o":""},"A":{"ha":494,"x_min":28,"x_max":467,"o":"m 28 0 l 235 821 l 261 821 l 467 0 l 433 0 l 376 219 l 114 219 l 58 0 l 28 0 m 118 243 l 374 243 l 247 742 l 118 243 z "},"А":{"ha":494,"x_min":28,"x_max":467,"o":"m 28 0 l 235 821 l 261 821 l 467 0 l 433 0 l 376 219 l 114 219 l 58 0 l 28 0 m 118 243 l 374 243 l 247 742 l 118 243 z "},"Æ":{"ha":713,"x_min":21,"x_max":675,"o":"m 21 0 l 326 821 l 661 821 l 661 794 l 358 794 l 363 446 l 625 446 l 625 419 l 363 419 l 367 26 l 675 26 l 675 0 l 335 0 l 331 219 l 133 219 l 51 0 l 21 0 m 140 243 l 332 243 l 331 728 l 331 742 l 328 731 l 140 243 z "},"Á":{"ha":494,"x_min":28,"x_max":467,"o":"m 28 0 l 235 821 l 261 821 l 467 0 l 433 0 l 376 219 l 114 219 l 58 0 l 28 0 m 118 243 l 374 243 l 247 742 l 118 243 m 193 879 l 306 983 l 353 983 l 224 879 l 193 879 z "},"Ă":{"ha":494,"x_min":28,"x_max":467,"o":"m 28 0 l 235 821 l 261 821 l 467 0 l 433 0 l 376 219 l 114 219 l 58 0 l 28 0 m 118 243 l 374 243 l 247 742 l 118 243 m 246 875 q 175 894 201 875 q 137 939 149 913 q 124 988 125 965 l 150 988 q 183 921 157 943 q 246 899 208 899 q 312 920 286 899 q 343 988 338 942 l 369 988 q 354 939 367 965 q 316 894 342 913 q 246 875 290 875 z "},"Ắ":{"ha":494,"x_min":28,"x_max":467,"o":"m 28 0 l 235 821 l 261 821 l 467 0 l 433 0 l 376 219 l 114 219 l 58 0 l 28 0 m 118 243 l 374 243 l 247 742 l 118 243 m 247 869 q 196 883 215 869 q 168 915 176 896 q 158 951 160 935 l 185 951 q 205 908 189 922 q 247 893 221 893 q 290 907 274 893 q 310 951 307 921 l 336 951 q 315 897 333 925 q 247 869 296 869 m 217 964 l 271 1050 l 311 1050 l 238 964 l 217 964 z "},"Ặ":{"ha":494,"x_min":28,"x_max":467,"o":"m 28 0 l 235 821 l 261 821 l 467 0 l 433 0 l 376 219 l 114 219 l 58 0 l 28 0 m 118 243 l 374 243 l 247 742 l 118 243 m 247 -128 q 224 -119 233 -128 q 215 -97 215 -110 q 224 -76 215 -85 q 247 -67 233 -67 q 269 -76 260 -67 q 279 -97 279 -85 q 269 -119 279 -110 q 247 -128 260 -128 m 246 875 q 175 894 201 875 q 137 939 149 913 q 124 988 125 965 l 150 988 q 183 921 157 943 q 246 899 208 899 q 312 920 286 899 q 343 988 338 942 l 369 988 q 354 939 367 965 q 316 894 342 913 q 246 875 290 875 z "},"Ằ":{"ha":494,"x_min":28,"x_max":467,"o":"m 28 0 l 235 821 l 261 821 l 467 0 l 433 0 l 376 219 l 114 219 l 58 0 l 28 0 m 118 243 l 374 243 l 247 742 l 118 243 m 247 869 q 196 883 215 869 q 168 915 176 896 q 158 951 160 935 l 185 951 q 205 908 189 922 q 247 893 221 893 q 290 907 274 893 q 310 951 307 921 l 336 951 q 315 897 333 925 q 247 869 296 869 m 256 964 l 182 1050 l 222 1050 l 276 964 l 256 964 z "},"Ẳ":{"ha":494,"x_min":28,"x_max":467,"o":"m 28 0 l 235 821 l 261 821 l 467 0 l 433 0 l 376 219 l 114 219 l 58 0 l 28 0 m 118 243 l 374 243 l 247 742 l 118 243 m 247 869 q 196 883 215 869 q 168 915 176 896 q 158 951 160 935 l 185 951 q 205 908 189 922 q 247 893 221 893 q 290 907 274 893 q 310 951 307 921 l 336 951 q 315 897 333 925 q 247 869 296 869 m 236 965 l 236 983 q 248 1004 236 997 q 271 1017 260 1011 q 282 1038 282 1024 l 282 1040 q 274 1060 282 1051 q 249 1069 267 1069 q 228 1063 238 1069 q 217 1044 219 1057 l 196 1050 q 213 1078 200 1068 q 249 1089 226 1089 q 292 1075 279 1089 q 306 1040 306 1061 l 306 1038 q 294 1008 306 1017 q 269 994 282 1000 q 257 978 257 989 l 257 965 l 236 965 z "},"Ẵ":{"ha":494,"x_min":28,"x_max":467,"o":"m 28 0 l 235 821 l 261 821 l 467 0 l 433 0 l 376 219 l 114 219 l 58 0 l 28 0 m 118 243 l 374 243 l 247 742 l 118 243 m 246 869 q 194 883 214 869 q 167 915 175 896 q 157 951 158 935 l 183 951 q 205 907 189 921 q 246 893 221 893 q 290 907 274 893 q 310 951 306 921 l 335 951 q 313 897 333 925 q 246 869 293 869 m 286 974 q 265 978 274 974 q 243 992 257 982 q 228 1003 238 996 q 206 1010 218 1010 q 187 1001 194 1010 q 176 975 179 993 l 156 975 q 171 1015 158 999 q 206 1031 183 1031 q 229 1025 219 1031 q 249 1013 239 1019 q 268 1001 260 1006 q 286 996 276 996 q 305 1003 297 996 q 315 1029 313 1010 l 336 1029 q 328 1002 335 1015 q 312 981 322 989 q 286 974 301 974 z "},"Ǎ":{"ha":494,"x_min":28,"x_max":467,"o":"m 28 0 l 235 821 l 261 821 l 467 0 l 433 0 l 376 219 l 114 219 l 58 0 l 28 0 m 118 243 l 374 243 l 247 742 l 118 243 m 229 872 l 118 972 l 149 972 l 246 896 l 344 974 l 375 974 l 264 872 l 229 872 z "},"Â":{"ha":494,"x_min":28,"x_max":467,"o":"m 28 0 l 235 821 l 261 821 l 467 0 l 433 0 l 376 219 l 114 219 l 58 0 l 28 0 m 118 243 l 374 243 l 247 742 l 118 243 m 111 872 l 229 986 l 264 986 l 382 872 l 353 872 l 246 963 l 142 872 l 111 872 z "},"Ấ":{"ha":494,"x_min":28,"x_max":467,"o":"m 28 0 l 235 821 l 261 821 l 467 0 l 433 0 l 376 219 l 114 219 l 58 0 l 28 0 m 118 243 l 374 243 l 247 742 l 118 243 m 149 871 l 232 953 l 261 953 l 344 871 l 317 871 l 246 931 l 178 871 l 149 871 m 343 919 l 397 1006 l 438 1006 l 364 919 l 343 919 z "},"Ậ":{"ha":494,"x_min":28,"x_max":467,"o":"m 28 0 l 235 821 l 261 821 l 467 0 l 433 0 l 376 219 l 114 219 l 58 0 l 28 0 m 118 243 l 374 243 l 247 742 l 118 243 m 247 -128 q 224 -119 233 -128 q 215 -97 215 -110 q 224 -76 215 -85 q 247 -67 233 -67 q 269 -76 260 -67 q 279 -97 279 -85 q 269 -119 279 -110 q 247 -128 260 -128 m 111 872 l 229 986 l 264 986 l 382 872 l 353 872 l 246 963 l 142 872 l 111 872 z "},"Ầ":{"ha":494,"x_min":28,"x_max":467,"o":"m 28 0 l 235 821 l 261 821 l 467 0 l 433 0 l 376 219 l 114 219 l 58 0 l 28 0 m 118 243 l 374 243 l 247 742 l 118 243 m 149 871 l 232 953 l 261 953 l 344 871 l 317 871 l 246 931 l 178 871 l 149 871 m 383 919 l 310 1006 l 350 1006 l 404 919 l 383 919 z "},"Ẩ":{"ha":494,"x_min":28,"x_max":467,"o":"m 28 0 l 235 821 l 261 821 l 467 0 l 433 0 l 376 219 l 114 219 l 58 0 l 28 0 m 118 243 l 374 243 l 247 742 l 118 243 m 149 871 l 232 953 l 261 953 l 344 871 l 317 871 l 246 931 l 178 871 l 149 871 m 364 921 l 364 939 q 375 959 364 953 q 398 972 386 965 q 410 993 410 979 l 410 996 q 401 1016 410 1007 q 376 1025 393 1025 q 347 1000 354 1025 l 328 1006 q 344 1032 331 1022 q 379 1042 357 1042 q 419 1030 407 1042 q 432 996 432 1018 l 432 993 q 420 964 432 972 q 396 950 408 956 q 383 933 383 944 l 383 921 l 364 921 z "},"Ẫ":{"ha":494,"x_min":28,"x_max":467,"o":"m 28 0 l 235 821 l 261 821 l 467 0 l 433 0 l 376 219 l 114 219 l 58 0 l 28 0 m 118 243 l 374 243 l 247 742 l 118 243 m 149 871 l 232 953 l 261 953 l 344 871 l 317 871 l 246 931 l 178 871 l 149 871 m 285 974 q 265 977 272 974 q 244 990 257 981 q 226 1002 236 996 q 206 1008 217 1008 q 185 1001 194 1008 q 172 975 175 993 l 156 975 q 172 1015 158 1001 q 206 1028 185 1028 q 226 1024 217 1028 q 249 1010 235 1021 q 268 999 258 1003 q 285 994 278 994 q 306 1002 296 994 q 318 1028 315 1010 l 336 1028 q 328 1000 335 1013 q 310 981 321 988 q 285 974 299 974 z "},"Ä":{"ha":494,"x_min":28,"x_max":467,"o":"m 28 0 l 235 821 l 261 821 l 467 0 l 433 0 l 376 219 l 114 219 l 58 0 l 28 0 m 118 243 l 374 243 l 247 742 l 118 243 m 192 893 q 170 902 179 893 q 161 924 161 911 q 170 944 161 936 q 192 953 179 953 q 213 944 204 953 q 222 924 222 936 q 213 902 222 911 q 192 893 204 893 m 303 893 q 281 902 290 893 q 272 924 272 911 q 281 944 272 936 q 303 953 290 953 q 324 944 315 953 q 333 924 333 936 q 324 902 333 911 q 303 893 315 893 z "},"Ạ":{"ha":494,"x_min":28,"x_max":467,"o":"m 28 0 l 235 821 l 261 821 l 467 0 l 433 0 l 376 219 l 114 219 l 58 0 l 28 0 m 118 243 l 374 243 l 247 742 l 118 243 m 247 -128 q 224 -119 233 -128 q 215 -97 215 -110 q 224 -76 215 -85 q 247 -67 233 -67 q 269 -76 260 -67 q 279 -97 279 -85 q 269 -119 279 -110 q 247 -128 260 -128 z "},"À":{"ha":494,"x_min":28,"x_max":467,"o":"m 28 0 l 235 821 l 261 821 l 467 0 l 433 0 l 376 219 l 114 219 l 58 0 l 28 0 m 118 243 l 374 243 l 247 742 l 118 243 m 271 879 l 142 983 l 189 983 l 301 879 l 271 879 z "},"Ả":{"ha":494,"x_min":28,"x_max":467,"o":"m 28 0 l 235 821 l 261 821 l 467 0 l 433 0 l 376 219 l 114 219 l 58 0 l 28 0 m 118 243 l 374 243 l 247 742 l 118 243 m 235 869 l 235 896 q 251 925 235 915 q 285 944 268 935 q 301 974 301 954 l 301 978 q 290 1007 301 994 q 251 1019 278 1019 q 208 985 217 1019 l 185 990 q 207 1027 190 1014 q 254 1040 224 1040 q 308 1024 290 1040 q 326 976 326 1008 l 326 974 q 309 932 326 944 q 274 912 292 919 q 257 888 257 904 l 257 869 l 235 869 z "},"Ā":{"ha":494,"x_min":28,"x_max":467,"o":"m 28 0 l 235 821 l 261 821 l 467 0 l 433 0 l 376 219 l 114 219 l 58 0 l 28 0 m 118 243 l 374 243 l 247 742 l 118 243 m 128 910 l 128 933 l 365 933 l 365 910 l 128 910 z "},"Ą":{"ha":494,"x_min":28,"x_max":492,"o":"m 28 0 l 235 821 l 261 821 l 467 0 l 433 0 l 376 219 l 114 219 l 58 0 l 28 0 m 118 243 l 374 243 l 247 742 l 118 243 m 442 -179 q 385 -159 410 -179 q 360 -104 360 -139 q 385 -38 360 -64 q 436 0 411 -12 l 465 0 q 409 -46 429 -19 q 389 -100 389 -72 q 407 -142 389 -128 q 443 -156 425 -156 q 467 -152 457 -156 q 483 -146 478 -149 l 492 -165 q 470 -175 483 -171 q 442 -179 457 -179 z "},"Å":{"ha":494,"x_min":28,"x_max":467,"o":"m 28 0 l 235 821 l 261 821 l 467 0 l 433 0 l 376 219 l 114 219 l 58 0 l 28 0 m 118 243 l 374 243 l 247 742 l 118 243 m 250 797 q 177 826 206 797 q 149 893 149 854 q 177 962 149 933 q 250 990 206 990 q 326 962 299 990 q 353 893 353 933 q 322 826 353 854 q 250 797 292 797 m 250 822 q 305 842 285 822 q 325 893 325 863 q 305 946 325 926 q 250 965 285 965 q 196 946 215 965 q 176 893 176 926 q 196 842 176 863 q 250 822 215 822 z "},"Ã":{"ha":494,"x_min":28,"x_max":467,"o":"m 28 0 l 235 821 l 261 821 l 467 0 l 433 0 l 376 219 l 114 219 l 58 0 l 28 0 m 118 243 l 374 243 l 247 742 l 118 243 m 303 890 q 276 895 286 890 q 246 914 265 900 q 222 931 236 921 q 192 940 208 940 q 163 929 175 940 q 147 892 151 918 l 122 892 q 143 944 125 924 q 192 964 161 964 q 223 956 208 964 q 253 938 238 949 q 278 922 267 928 q 303 915 289 915 q 331 926 319 915 q 347 963 343 936 l 372 963 q 362 925 371 942 q 338 899 353 908 q 303 890 324 890 z "},"B":{"ha":578,"x_min":108,"x_max":492,"o":"m 108 0 l 108 821 l 335 821 q 440 791 396 821 q 485 686 485 761 l 485 582 q 473 512 485 542 q 443 464 461 482 q 392 438 421 443 q 346 432 363 432 l 346 436 q 406 430 378 436 q 451 406 435 424 q 481 356 471 385 q 492 290 492 328 l 492 167 q 470 59 492 94 q 410 12 449 24 q 322 0 372 0 l 108 0 m 142 25 l 321 25 q 394 35 363 25 q 442 77 425 46 q 458 171 458 108 l 458 293 q 414 393 458 368 q 304 418 369 418 l 142 418 l 142 25 m 142 444 l 303 444 q 414 481 376 444 q 451 578 451 517 l 451 681 q 416 767 451 739 q 333 796 381 796 l 142 796 l 142 444 z "},"Б":{"ha":531,"x_min":108,"x_max":463,"o":"m 108 0 l 108 821 l 451 821 l 451 793 l 142 793 l 142 604 l 292 604 q 397 583 360 604 q 448 521 433 561 q 463 422 463 481 l 463 196 q 454 110 463 147 q 427 49 446 74 q 376 13 408 25 q 294 0 343 0 l 108 0 m 292 25 q 381 48 351 25 q 419 110 410 71 q 429 196 429 149 l 429 413 q 421 492 429 454 q 383 555 413 531 q 289 579 353 579 l 142 579 l 142 25 l 292 25 z "},"C":{"ha":557,"x_min":93,"x_max":475,"o":"m 282 -17 q 185 -4 228 -17 q 118 47 143 8 q 93 167 93 86 l 93 651 q 118 770 93 732 q 187 820 143 808 q 285 832 231 832 q 383 819 340 832 q 450 769 425 807 q 475 651 475 731 l 475 526 l 442 526 l 442 649 q 422 753 442 719 q 365 798 401 788 q 283 808 329 808 q 201 798 238 808 q 145 753 165 788 q 125 649 125 719 l 125 168 q 145 63 125 97 q 201 19 165 29 q 283 8 238 8 q 366 19 331 8 q 422 63 401 29 q 442 168 442 97 l 442 265 l 475 265 l 475 167 q 450 46 475 85 q 382 -5 425 7 q 282 -17 339 -17 z "},"Ć":{"ha":557,"x_min":93,"x_max":475,"o":"m 282 -17 q 185 -4 228 -17 q 118 47 143 8 q 93 167 93 86 l 93 651 q 118 770 93 732 q 187 820 143 808 q 285 832 231 832 q 383 819 340 832 q 450 769 425 807 q 475 651 475 731 l 475 526 l 442 526 l 442 649 q 422 753 442 719 q 365 798 401 788 q 283 808 329 808 q 201 798 238 808 q 145 753 165 788 q 125 649 125 719 l 125 168 q 145 63 125 97 q 201 19 165 29 q 283 8 238 8 q 366 19 331 8 q 422 63 401 29 q 442 168 442 97 l 442 265 l 475 265 l 475 167 q 450 46 475 85 q 382 -5 425 7 q 282 -17 339 -17 m 225 879 l 338 983 l 385 983 l 256 879 l 225 879 z "},"Č":{"ha":557,"x_min":93,"x_max":475,"o":"m 282 -17 q 185 -4 228 -17 q 118 47 143 8 q 93 167 93 86 l 93 651 q 118 770 93 732 q 187 820 143 808 q 285 832 231 832 q 383 819 340 832 q 450 769 425 807 q 475 651 475 731 l 475 526 l 442 526 l 442 649 q 422 753 442 719 q 365 798 401 788 q 283 808 329 808 q 201 798 238 808 q 145 753 165 788 q 125 649 125 719 l 125 168 q 145 63 125 97 q 201 19 165 29 q 283 8 238 8 q 366 19 331 8 q 422 63 401 29 q 442 168 442 97 l 442 265 l 475 265 l 475 167 q 450 46 475 85 q 382 -5 425 7 q 282 -17 339 -17 m 261 872 l 150 972 l 181 972 l 278 896 l 376 974 l 407 974 l 296 872 l 261 872 z "},"Ç":{"ha":557,"x_min":93,"x_max":475,"o":"m 282 -17 q 185 -4 228 -17 q 118 47 143 8 q 93 167 93 86 l 93 651 q 118 770 93 732 q 187 820 143 808 q 285 832 231 832 q 383 819 340 832 q 450 769 425 807 q 475 651 475 731 l 475 526 l 442 526 l 442 649 q 422 753 442 719 q 365 798 401 788 q 283 808 329 808 q 201 798 238 808 q 145 753 165 788 q 125 649 125 719 l 125 168 q 145 63 125 97 q 201 19 165 29 q 283 8 238 8 q 366 19 331 8 q 422 63 401 29 q 442 168 442 97 l 442 265 l 475 265 l 475 167 q 450 46 475 85 q 382 -5 425 7 q 282 -17 339 -17 m 272 -186 q 240 -181 254 -186 q 215 -169 226 -175 l 224 -150 q 247 -160 231 -156 q 271 -165 263 -165 q 317 -151 303 -165 q 332 -119 332 -137 q 318 -87 332 -99 q 282 -75 304 -75 q 261 -79 272 -75 q 240 -90 250 -83 l 224 -81 l 268 0 l 292 0 l 253 -69 l 246 -68 q 267 -59 256 -61 q 289 -57 279 -57 q 339 -76 321 -57 q 357 -115 357 -94 q 335 -167 357 -147 q 272 -186 313 -186 z "},"Ċ":{"ha":557,"x_min":93,"x_max":475,"o":"m 282 -17 q 185 -4 228 -17 q 118 47 143 8 q 93 167 93 86 l 93 651 q 118 770 93 732 q 187 820 143 808 q 285 832 231 832 q 383 819 340 832 q 450 769 425 807 q 475 651 475 731 l 475 526 l 442 526 l 442 649 q 422 753 442 719 q 365 798 401 788 q 283 808 329 808 q 201 798 238 808 q 145 753 165 788 q 125 649 125 719 l 125 168 q 145 63 125 97 q 201 19 165 29 q 283 8 238 8 q 366 19 331 8 q 422 63 401 29 q 442 168 442 97 l 442 265 l 475 265 l 475 167 q 450 46 475 85 q 382 -5 425 7 q 282 -17 339 -17 m 279 894 q 258 903 267 894 q 249 925 249 913 q 258 946 249 938 q 279 954 267 954 q 301 946 292 954 q 310 925 310 938 q 301 903 310 913 q 279 894 292 894 z "},"Ч":{"ha":489,"x_min":68,"x_max":421,"o":"m 388 0 l 388 236 q 328 203 368 219 q 239 188 288 188 q 126 213 163 188 q 78 281 89 238 q 68 375 68 324 l 68 821 l 101 821 l 101 372 q 129 256 101 296 q 242 217 157 217 q 344 238 311 217 q 388 268 376 258 l 388 821 l 421 821 l 421 0 l 388 0 z "},"D":{"ha":585,"x_min":108,"x_max":492,"o":"m 108 0 l 108 821 l 324 821 q 411 806 374 821 q 470 753 449 792 q 492 642 492 714 l 492 181 q 470 69 492 108 q 410 15 449 29 q 322 0 372 0 l 108 0 m 142 25 l 321 25 q 421 58 383 25 q 458 183 458 90 l 458 636 q 421 763 458 729 q 321 796 383 796 l 142 796 l 142 25 z "},"Ď":{"ha":585,"x_min":108,"x_max":492,"o":"m 108 0 l 108 821 l 324 821 q 411 806 374 821 q 470 753 449 792 q 492 642 492 714 l 492 181 q 470 69 492 108 q 410 15 449 29 q 322 0 372 0 l 108 0 m 142 25 l 321 25 q 421 58 383 25 q 458 183 458 90 l 458 636 q 421 763 458 729 q 321 796 383 796 l 142 796 l 142 25 m 275 872 l 164 972 l 194 972 l 292 896 l 390 974 l 421 974 l 310 872 l 275 872 z "},"Đ":{"ha":597,"x_min":33,"x_max":504,"o":"m 121 0 l 121 821 l 336 821 q 424 806 386 821 q 483 753 461 792 q 504 642 504 714 l 504 181 q 483 69 504 108 q 423 15 461 29 q 335 0 385 0 l 121 0 m 33 386 l 33 415 l 257 415 l 257 386 l 33 386 m 153 25 l 333 25 q 433 58 396 25 q 471 183 471 90 l 471 636 q 433 763 471 729 q 333 796 396 796 l 153 796 l 153 25 z "},"Д":{"ha":726,"x_min":54,"x_max":671,"o":"m 54 -142 l 54 25 l 118 25 q 171 54 151 28 q 196 153 190 81 q 204 279 200 214 q 213 411 208 344 q 222 546 218 478 q 231 683 226 614 q 242 821 236 753 l 560 821 l 560 25 l 671 25 l 671 -142 l 638 -142 l 638 -1 l 88 -1 l 88 -142 l 54 -142 m 194 25 l 525 25 l 525 793 l 275 793 q 253 476 264 633 q 232 161 243 319 q 224 89 229 129 q 194 25 218 49 z "},"Δ":{"ha":703,"x_min":68,"x_max":635,"o":"m 68 0 l 335 813 l 375 813 l 635 0 l 68 0 m 119 35 l 581 35 l 354 760 l 119 35 z "},"Ђ":{"ha":596,"x_min":17,"x_max":528,"o":"m 174 0 l 174 793 l 17 793 l 17 821 l 367 821 l 367 793 l 208 793 l 208 524 q 259 576 222 551 q 358 600 296 600 q 470 576 435 600 q 517 509 506 551 q 528 414 528 467 l 528 249 q 515 120 528 169 q 477 44 501 71 q 419 9 453 18 q 343 0 385 0 q 333 0 338 0 q 322 0 328 0 l 322 25 q 333 25 328 25 q 344 25 339 25 q 460 81 426 25 q 493 246 493 136 l 493 414 q 467 533 493 492 q 354 574 440 574 q 251 540 285 574 q 208 475 217 507 l 208 0 l 174 0 z "},"Ѕ":{"ha":501,"x_min":65,"x_max":436,"o":"m 244 -8 q 150 14 190 -8 q 88 88 110 36 q 65 231 65 140 l 65 275 q 81 275 72 275 q 96 275 89 275 l 96 231 q 115 102 96 149 q 167 37 133 56 q 244 18 201 18 q 358 60 313 18 q 404 207 404 101 q 384 311 404 275 q 325 368 364 347 q 232 410 286 389 q 153 449 190 426 q 92 510 115 471 q 69 615 69 550 q 88 728 69 682 q 146 797 106 774 q 250 821 186 821 q 381 774 333 821 q 428 646 428 728 l 428 561 q 413 561 421 561 q 397 561 406 561 l 397 643 q 358 754 397 714 q 250 794 319 794 q 136 750 172 794 q 100 617 100 706 q 123 522 100 557 q 182 466 146 486 q 258 431 218 446 q 361 380 322 406 q 418 315 400 354 q 436 208 436 276 q 411 81 436 128 q 343 13 386 33 q 244 -8 300 -8 z "},"Џ":{"ha":481,"x_min":68,"x_max":413,"o":"m 224 -137 l 224 0 l 68 0 l 68 821 l 103 821 l 103 26 l 379 26 l 379 821 l 413 821 l 413 0 l 254 0 l 254 -137 l 224 -137 z "},"E":{"ha":483,"x_min":108,"x_max":446,"o":"m 108 0 l 108 821 l 446 821 l 446 794 l 143 794 l 143 446 l 376 446 l 376 419 l 143 419 l 143 26 l 446 26 l 446 0 l 108 0 z "},"É":{"ha":483,"x_min":108,"x_max":446,"o":"m 108 0 l 108 821 l 446 821 l 446 794 l 143 794 l 143 446 l 376 446 l 376 419 l 143 419 l 143 26 l 446 26 l 446 0 l 108 0 m 224 879 l 336 983 l 383 983 l 254 879 l 224 879 z "},"Ě":{"ha":483,"x_min":108,"x_max":446,"o":"m 108 0 l 108 821 l 446 821 l 446 794 l 143 794 l 143 446 l 376 446 l 376 419 l 143 419 l 143 26 l 446 26 l 446 0 l 108 0 m 260 872 l 149 972 l 179 972 l 276 896 l 375 974 l 406 974 l 294 872 l 260 872 z "},"Ê":{"ha":483,"x_min":108,"x_max":446,"o":"m 108 0 l 108 821 l 446 821 l 446 794 l 143 794 l 143 446 l 376 446 l 376 419 l 143 419 l 143 26 l 446 26 l 446 0 l 108 0 m 142 872 l 260 986 l 294 986 l 413 872 l 383 872 l 276 963 l 172 872 l 142 872 z "},"Ế":{"ha":483,"x_min":108,"x_max":468,"o":"m 108 0 l 108 821 l 446 821 l 446 794 l 143 794 l 143 446 l 376 446 l 376 419 l 143 419 l 143 26 l 446 26 l 446 0 l 108 0 m 179 871 l 263 953 l 292 953 l 375 871 l 347 871 l 276 931 l 208 871 l 179 871 m 374 919 l 428 1006 l 468 1006 l 394 919 l 374 919 z "},"Ệ":{"ha":483,"x_min":108,"x_max":446,"o":"m 108 0 l 108 821 l 446 821 l 446 794 l 143 794 l 143 446 l 376 446 l 376 419 l 143 419 l 143 26 l 446 26 l 446 0 l 108 0 m 283 -128 q 260 -119 269 -128 q 251 -97 251 -110 q 260 -76 251 -85 q 283 -67 269 -67 q 306 -76 296 -67 q 315 -97 315 -85 q 306 -119 315 -110 q 283 -128 296 -128 m 142 872 l 260 986 l 294 986 l 413 872 l 383 872 l 276 963 l 172 872 l 142 872 z "},"Ề":{"ha":483,"x_min":108,"x_max":446,"o":"m 108 0 l 108 821 l 446 821 l 446 794 l 143 794 l 143 446 l 376 446 l 376 419 l 143 419 l 143 26 l 446 26 l 446 0 l 108 0 m 179 871 l 263 953 l 292 953 l 375 871 l 347 871 l 276 931 l 208 871 l 179 871 m 414 919 l 340 1006 l 381 1006 l 435 919 l 414 919 z "},"Ể":{"ha":483,"x_min":108,"x_max":463,"o":"m 108 0 l 108 821 l 446 821 l 446 794 l 143 794 l 143 446 l 376 446 l 376 419 l 143 419 l 143 26 l 446 26 l 446 0 l 108 0 m 179 871 l 263 953 l 292 953 l 375 871 l 347 871 l 276 931 l 208 871 l 179 871 m 394 921 l 394 939 q 406 959 394 953 q 428 972 417 965 q 440 993 440 979 l 440 996 q 432 1016 440 1007 q 407 1025 424 1025 q 378 1000 385 1025 l 358 1006 q 374 1032 361 1022 q 410 1042 388 1042 q 450 1030 438 1042 q 463 996 463 1018 l 463 993 q 451 964 463 972 q 426 950 439 956 q 414 933 414 944 l 414 921 l 394 921 z "},"Ễ":{"ha":483,"x_min":108,"x_max":446,"o":"m 108 0 l 108 821 l 446 821 l 446 794 l 143 794 l 143 446 l 376 446 l 376 419 l 143 419 l 143 26 l 446 26 l 446 0 l 108 0 m 179 871 l 263 953 l 292 953 l 375 871 l 347 871 l 276 931 l 208 871 l 179 871 m 315 974 q 295 977 303 974 q 275 990 288 981 q 257 1002 267 996 q 236 1008 247 1008 q 215 1001 225 1008 q 203 975 206 993 l 186 975 q 202 1015 189 1001 q 236 1028 215 1028 q 256 1024 247 1028 q 279 1010 265 1021 q 299 999 289 1003 q 315 994 308 994 q 336 1002 326 994 q 349 1028 346 1010 l 367 1028 q 358 1000 365 1013 q 340 981 351 988 q 315 974 329 974 z "},"Ë":{"ha":483,"x_min":108,"x_max":446,"o":"m 108 0 l 108 821 l 446 821 l 446 794 l 143 794 l 143 446 l 376 446 l 376 419 l 143 419 l 143 26 l 446 26 l 446 0 l 108 0 m 222 893 q 201 902 210 893 q 192 924 192 911 q 201 944 192 936 q 222 953 210 953 q 244 944 235 953 q 253 924 253 936 q 244 902 253 911 q 222 893 235 893 m 333 893 q 312 902 321 893 q 303 924 303 911 q 312 944 303 936 q 333 953 321 953 q 355 944 346 953 q 364 924 364 936 q 355 902 364 911 q 333 893 346 893 z "},"Ė":{"ha":483,"x_min":108,"x_max":446,"o":"m 108 0 l 108 821 l 446 821 l 446 794 l 143 794 l 143 446 l 376 446 l 376 419 l 143 419 l 143 26 l 446 26 l 446 0 l 108 0 m 278 894 q 256 903 265 894 q 247 925 247 913 q 256 946 247 938 q 278 954 265 954 q 299 946 290 954 q 308 925 308 938 q 299 903 308 913 q 278 894 290 894 z "},"Ẹ":{"ha":483,"x_min":108,"x_max":446,"o":"m 108 0 l 108 821 l 446 821 l 446 794 l 143 794 l 143 446 l 376 446 l 376 419 l 143 419 l 143 26 l 446 26 l 446 0 l 108 0 m 283 -128 q 260 -119 269 -128 q 251 -97 251 -110 q 260 -76 251 -85 q 283 -67 269 -67 q 306 -76 296 -67 q 315 -97 315 -85 q 306 -119 315 -110 q 283 -128 296 -128 z "},"Ф":{"ha":608,"x_min":68,"x_max":540,"o":"m 288 -1 l 288 83 l 264 83 q 115 129 163 83 q 68 276 68 175 l 68 546 q 116 692 68 646 q 264 739 164 739 l 288 739 l 288 821 l 322 821 l 322 739 l 340 739 q 490 696 440 739 q 540 542 540 653 l 540 281 q 491 125 540 167 q 339 83 442 83 l 322 83 l 322 -1 l 288 -1 m 264 108 l 288 108 q 288 412 288 261 q 288 714 288 563 l 265 714 q 144 673 185 714 q 103 542 103 632 l 103 281 q 143 149 103 190 q 264 108 183 108 m 322 108 l 338 108 q 463 145 419 108 q 507 282 507 182 l 507 539 q 463 676 507 638 q 338 714 419 714 l 322 714 q 322 412 322 563 q 322 108 322 261 z "},"È":{"ha":483,"x_min":108,"x_max":446,"o":"m 108 0 l 108 821 l 446 821 l 446 794 l 143 794 l 143 446 l 376 446 l 376 419 l 143 419 l 143 26 l 446 26 l 446 0 l 108 0 m 301 879 l 172 983 l 219 983 l 332 879 l 301 879 z "},"Ẻ":{"ha":483,"x_min":108,"x_max":446,"o":"m 108 0 l 108 821 l 446 821 l 446 794 l 143 794 l 143 446 l 376 446 l 376 419 l 143 419 l 143 26 l 446 26 l 446 0 l 108 0 m 265 869 l 265 896 q 282 925 265 915 q 315 944 299 935 q 332 974 332 954 l 332 978 q 320 1007 332 994 q 282 1019 308 1019 q 239 985 247 1019 l 215 990 q 238 1027 221 1014 q 285 1040 254 1040 q 339 1024 321 1040 q 357 976 357 1008 l 357 974 q 340 932 357 944 q 305 912 322 919 q 288 888 288 904 l 288 869 l 265 869 z "},"Л":{"ha":563,"x_min":28,"x_max":494,"o":"m 28 0 l 28 25 q 72 48 56 25 q 93 128 89 71 l 139 821 l 494 821 l 494 0 l 460 0 l 460 793 l 172 793 l 125 115 q 120 83 124 101 q 108 47 117 64 q 83 16 99 29 q 42 0 67 3 l 28 0 z "},"М":{"ha":731,"x_min":108,"x_max":622,"o":"m 108 0 l 108 821 l 140 821 l 365 53 l 596 821 l 622 821 l 622 0 l 590 0 l 590 701 l 381 0 l 351 0 l 142 701 l 142 0 l 108 0 z "},"Ē":{"ha":483,"x_min":108,"x_max":446,"o":"m 108 0 l 108 821 l 446 821 l 446 794 l 143 794 l 143 446 l 376 446 l 376 419 l 143 419 l 143 26 l 446 26 l 446 0 l 108 0 m 158 910 l 158 933 l 396 933 l 396 910 l 158 910 z "},"Н":{"ha":600,"x_min":108,"x_max":492,"o":"m 108 0 l 108 821 l 142 821 l 142 446 l 460 446 l 460 821 l 492 821 l 492 0 l 460 0 l 460 418 l 142 418 l 142 0 l 108 0 z "},"Ŋ":{"ha":601,"x_min":108,"x_max":493,"o":"m 372 -228 q 349 -228 360 -228 q 325 -226 339 -228 l 325 -199 l 372 -200 q 437 -183 417 -201 q 457 -112 457 -164 l 458 1 l 143 731 l 142 0 l 108 0 l 110 821 l 140 821 l 460 75 l 461 821 l 493 821 l 492 -62 q 485 -160 493 -124 q 452 -212 478 -196 q 372 -228 426 -228 z "},"Ę":{"ha":483,"x_min":108,"x_max":446,"o":"m 108 0 l 108 821 l 446 821 l 446 794 l 143 794 l 143 446 l 376 446 l 376 419 l 143 419 l 143 26 l 446 26 l 446 0 l 108 0 m 342 -179 q 285 -159 310 -179 q 260 -104 260 -139 q 285 -38 260 -64 q 336 0 311 -12 l 365 0 q 309 -46 329 -19 q 289 -100 289 -72 q 307 -142 289 -128 q 343 -156 325 -156 q 367 -152 357 -156 q 383 -146 378 -149 l 392 -165 q 370 -175 383 -171 q 342 -179 357 -179 z "},"Р":{"ha":526,"x_min":108,"x_max":485,"o":"m 108 0 l 108 821 l 336 821 q 441 791 397 821 q 485 686 485 761 l 485 529 q 472 451 485 488 q 420 393 458 415 q 307 371 382 371 l 143 371 l 143 0 l 108 0 m 143 396 l 306 396 q 415 431 378 396 q 451 536 451 467 l 451 679 q 416 767 451 739 q 335 796 381 796 l 143 796 l 143 396 z "},"Э":{"ha":524,"x_min":68,"x_max":456,"o":"m 264 -17 q 163 -5 207 -17 q 93 46 118 7 q 68 168 68 85 l 68 268 l 103 268 l 103 163 q 124 61 103 94 q 181 17 144 28 q 263 7 217 7 q 344 17 308 7 q 401 61 381 28 q 421 163 421 94 l 421 401 l 186 401 l 186 429 l 421 429 l 421 649 q 401 750 421 717 q 345 794 381 783 q 263 806 310 806 q 179 796 215 806 q 123 754 143 786 q 103 654 103 722 l 103 522 l 68 522 l 68 649 q 93 767 68 728 q 162 819 118 807 q 261 832 206 832 q 360 819 317 832 q 430 768 404 807 q 456 649 456 729 l 456 168 q 431 48 456 88 q 362 -4 406 8 q 264 -17 318 -17 z "},"С":{"ha":557,"x_min":93,"x_max":475,"o":"m 282 -17 q 185 -4 228 -17 q 118 47 143 8 q 93 167 93 86 l 93 651 q 118 770 93 732 q 187 820 143 808 q 285 832 231 832 q 383 819 340 832 q 450 769 425 807 q 475 651 475 731 l 475 526 l 442 526 l 442 649 q 422 753 442 719 q 365 798 401 788 q 283 808 329 808 q 201 798 238 808 q 145 753 165 788 q 125 649 125 719 l 125 168 q 145 63 125 97 q 201 19 165 29 q 283 8 238 8 q 366 19 331 8 q 422 63 401 29 q 442 168 442 97 l 442 265 l 475 265 l 475 167 q 450 46 475 85 q 382 -5 425 7 q 282 -17 339 -17 z "},"Ð":{"ha":597,"x_min":33,"x_max":504,"o":"m 121 0 l 121 821 l 336 821 q 424 806 386 821 q 483 753 461 792 q 504 642 504 714 l 504 181 q 483 69 504 108 q 423 15 461 29 q 335 0 385 0 l 121 0 m 33 386 l 33 415 l 257 415 l 257 386 l 33 386 m 153 25 l 333 25 q 433 58 396 25 q 471 183 471 90 l 471 636 q 433 763 471 729 q 333 796 396 796 l 153 796 l 153 25 z "},"Ẽ":{"ha":483,"x_min":108,"x_max":446,"o":"m 108 0 l 108 821 l 446 821 l 446 794 l 143 794 l 143 446 l 376 446 l 376 419 l 143 419 l 143 26 l 446 26 l 446 0 l 108 0 m 333 890 q 306 895 317 890 q 276 914 296 900 q 253 931 267 921 q 222 940 239 940 q 194 929 206 940 q 178 892 182 918 l 153 892 q 174 944 156 924 q 222 964 192 964 q 253 956 239 964 q 283 938 268 949 q 308 922 297 928 q 333 915 319 915 q 362 926 350 915 q 378 963 374 936 l 403 963 q 392 925 401 942 q 369 899 383 908 q 333 890 354 890 z "},"F":{"ha":468,"x_min":108,"x_max":446,"o":"m 108 0 l 108 821 l 446 821 l 446 794 l 143 794 l 143 446 l 376 446 l 376 419 l 143 419 l 143 0 l 108 0 z "},"G":{"ha":563,"x_min":93,"x_max":475,"o":"m 279 -17 q 184 -4 226 -17 q 117 47 142 8 q 93 165 93 86 l 93 651 q 118 770 93 732 q 187 820 143 808 q 286 832 231 832 q 384 819 342 832 q 451 769 426 807 q 475 651 475 731 l 475 556 l 442 556 l 442 647 q 422 752 442 718 q 366 797 401 786 q 283 807 331 807 q 201 797 238 807 q 145 752 165 786 q 125 647 125 718 l 125 168 q 145 63 125 97 q 201 19 165 29 q 283 8 238 8 q 397 50 353 8 q 442 168 442 92 l 442 346 l 307 346 l 307 371 l 475 371 l 475 0 l 451 0 l 450 89 q 435 63 443 76 q 419 40 426 50 q 362 -3 396 11 q 279 -17 328 -17 z "},"Ğ":{"ha":563,"x_min":93,"x_max":475,"o":"m 279 -17 q 184 -4 226 -17 q 117 47 142 8 q 93 165 93 86 l 93 651 q 118 770 93 732 q 187 820 143 808 q 286 832 231 832 q 384 819 342 832 q 451 769 426 807 q 475 651 475 731 l 475 556 l 442 556 l 442 647 q 422 752 442 718 q 366 797 401 786 q 283 807 331 807 q 201 797 238 807 q 145 752 165 786 q 125 647 125 718 l 125 168 q 145 63 125 97 q 201 19 165 29 q 283 8 238 8 q 397 50 353 8 q 442 168 442 92 l 442 346 l 307 346 l 307 371 l 475 371 l 475 0 l 451 0 l 450 89 q 435 63 443 76 q 419 40 426 50 q 362 -3 396 11 q 279 -17 328 -17 m 281 875 q 210 894 236 875 q 172 939 183 913 q 158 988 160 965 l 185 988 q 217 921 192 943 q 281 899 243 899 q 347 920 321 899 q 378 988 372 942 l 404 988 q 389 939 401 965 q 351 894 376 913 q 281 875 325 875 z "},"Ģ":{"ha":563,"x_min":93,"x_max":475,"o":"m 279 -17 q 184 -4 226 -17 q 117 47 142 8 q 93 165 93 86 l 93 651 q 118 770 93 732 q 187 820 143 808 q 286 832 231 832 q 384 819 342 832 q 451 769 426 807 q 475 651 475 731 l 475 556 l 442 556 l 442 647 q 422 752 442 718 q 366 797 401 786 q 283 807 331 807 q 201 797 238 807 q 145 752 165 786 q 125 647 125 718 l 125 168 q 145 63 125 97 q 201 19 165 29 q 283 8 238 8 q 397 50 353 8 q 442 168 442 92 l 442 346 l 307 346 l 307 371 l 475 371 l 475 0 l 451 0 l 450 89 q 435 63 443 76 q 419 40 426 50 q 362 -3 396 11 q 279 -17 328 -17 m 243 -199 q 266 -155 256 -176 q 276 -118 276 -133 q 272 -105 276 -110 q 261 -94 267 -100 q 256 -78 256 -89 q 263 -61 256 -68 q 281 -54 271 -54 q 301 -64 293 -54 q 308 -85 308 -74 q 301 -119 308 -99 q 284 -160 294 -139 q 261 -199 274 -181 l 243 -199 z "},"Ġ":{"ha":563,"x_min":93,"x_max":475,"o":"m 279 -17 q 184 -4 226 -17 q 117 47 142 8 q 93 165 93 86 l 93 651 q 118 770 93 732 q 187 820 143 808 q 286 832 231 832 q 384 819 342 832 q 451 769 426 807 q 475 651 475 731 l 475 556 l 442 556 l 442 647 q 422 752 442 718 q 366 797 401 786 q 283 807 331 807 q 201 797 238 807 q 145 752 165 786 q 125 647 125 718 l 125 168 q 145 63 125 97 q 201 19 165 29 q 283 8 238 8 q 397 50 353 8 q 442 168 442 92 l 442 346 l 307 346 l 307 371 l 475 371 l 475 0 l 451 0 l 450 89 q 435 63 443 76 q 419 40 426 50 q 362 -3 396 11 q 279 -17 328 -17 m 282 894 q 260 903 269 894 q 251 925 251 913 q 260 946 251 938 q 282 954 269 954 q 303 946 294 954 q 313 925 313 938 q 303 903 313 913 q 282 894 294 894 z "},"Г":{"ha":436,"x_min":68,"x_max":410,"o":"m 68 0 l 68 821 l 410 821 l 410 793 l 103 793 l 103 0 l 68 0 z "},"ẞ":{"ha":1054,"x_min":101,"x_max":951,"o":"m 760 -8 q 665 14 704 -8 q 603 88 625 36 q 581 231 581 140 l 581 275 q 596 275 588 275 q 611 275 604 275 l 611 231 q 630 102 611 149 q 683 37 649 56 q 760 18 717 18 q 874 60 828 18 q 919 207 919 101 q 899 311 919 275 q 840 368 878 347 q 747 410 801 389 q 667 449 704 426 q 608 510 631 471 q 585 615 585 550 q 603 728 585 682 q 661 797 621 774 q 765 821 701 821 q 896 774 849 821 q 943 646 943 728 l 943 561 q 928 561 936 561 q 913 561 921 561 l 913 643 q 874 754 913 714 q 765 794 835 794 q 651 750 686 794 q 615 617 615 706 q 638 522 615 557 q 697 466 661 486 q 774 431 733 446 q 876 380 838 406 q 933 315 915 354 q 951 208 951 276 q 926 81 951 128 q 858 13 901 33 q 760 -8 815 -8 m 281 -8 q 186 14 226 -8 q 124 88 146 36 q 101 231 101 140 l 101 275 q 117 275 110 275 q 133 275 125 275 l 133 231 q 152 102 133 149 q 204 37 171 56 q 281 18 238 18 q 395 60 350 18 q 440 207 440 101 q 420 311 440 275 q 362 368 400 347 q 269 410 324 389 q 189 449 226 426 q 128 510 151 471 q 106 615 106 550 q 124 728 106 682 q 183 797 143 774 q 286 821 222 821 q 417 774 369 821 q 465 646 465 728 l 465 561 q 449 561 457 561 q 435 561 442 561 l 435 643 q 396 754 435 714 q 286 794 357 794 q 173 750 208 794 q 138 617 138 706 q 160 522 138 557 q 219 466 182 486 q 296 431 256 446 q 399 380 360 406 q 456 315 438 354 q 474 208 474 276 q 448 81 474 128 q 379 13 422 33 q 281 -8 336 -8 z "},"Ѓ":{"ha":436,"x_min":68,"x_max":410,"o":"m 68 0 l 68 821 l 410 821 l 410 793 l 103 793 l 103 0 l 68 0 m 164 879 l 276 983 l 324 983 l 194 879 l 164 879 z "},"H":{"ha":600,"x_min":108,"x_max":492,"o":"m 108 0 l 108 821 l 142 821 l 142 446 l 460 446 l 460 821 l 492 821 l 492 0 l 460 0 l 460 418 l 142 418 l 142 0 l 108 0 z "},"Х":{"ha":397,"x_min":31,"x_max":367,"o":"m 31 0 l 169 414 l 44 821 l 76 821 l 199 422 l 336 821 l 367 821 l 228 413 l 364 0 l 331 0 l 199 400 l 64 0 l 31 0 z "},"Ъ":{"ha":533,"x_min":14,"x_max":465,"o":"m 111 0 l 111 793 l 14 793 l 14 821 l 146 821 l 146 604 l 294 604 q 399 583 363 604 q 451 521 436 561 q 465 422 465 481 l 465 196 q 457 110 465 147 q 430 49 449 74 q 378 13 411 25 q 297 0 346 0 l 111 0 m 146 25 l 294 25 q 383 48 354 25 q 422 110 413 71 q 432 199 432 150 l 432 411 q 424 492 432 454 q 388 555 417 531 q 293 579 358 579 l 146 579 l 146 25 z "},"Ħ":{"ha":600,"x_min":51,"x_max":582,"o":"m 51 660 l 51 681 l 582 681 l 582 660 l 51 660 m 108 0 l 108 821 l 142 821 l 142 446 l 460 446 l 460 821 l 492 821 l 492 0 l 460 0 l 460 418 l 142 418 l 142 0 l 108 0 z "},"I":{"ha":250,"x_min":108,"x_max":142,"o":"m 108 0 l 108 821 l 142 821 l 142 0 l 108 0 z "},"І":{"ha":250,"x_min":108,"x_max":142,"o":"m 108 0 l 108 821 l 142 821 l 142 0 l 108 0 z "},"Я":{"ha":569,"x_min":54,"x_max":461,"o":"m 461 0 l 428 0 l 428 399 l 288 399 q 231 381 253 399 q 197 335 210 363 q 174 279 183 308 l 88 0 l 54 0 l 143 282 q 185 377 163 346 q 253 407 208 408 l 253 404 q 133 439 181 404 q 85 550 85 474 l 85 686 q 129 791 85 761 q 233 821 174 821 l 461 821 l 461 0 m 428 422 l 428 796 l 235 796 q 153 768 189 796 q 118 681 118 740 l 118 561 q 155 453 118 485 q 264 422 192 422 l 428 422 z "},"Í":{"ha":250,"x_min":71,"x_max":231,"o":"m 108 0 l 108 821 l 142 821 l 142 0 l 108 0 m 71 879 l 183 983 l 231 983 l 101 879 l 71 879 z "},"Ǐ":{"ha":250,"x_min":-4,"x_max":253,"o":"m 108 0 l 108 821 l 142 821 l 142 0 l 108 0 m 107 872 l -4 972 l 26 972 l 124 896 l 222 974 l 253 974 l 142 872 l 107 872 z "},"Î":{"ha":250,"x_min":-11,"x_max":260,"o":"m 108 0 l 108 821 l 142 821 l 142 0 l 108 0 m -11 872 l 107 986 l 142 986 l 260 872 l 231 872 l 124 963 l 19 872 l -11 872 z "},"Ï":{"ha":250,"x_min":39,"x_max":211,"o":"m 108 0 l 108 821 l 142 821 l 142 0 l 108 0 m 69 893 q 48 902 57 893 q 39 924 39 911 q 48 944 39 936 q 69 953 57 953 q 91 944 82 953 q 100 924 100 936 q 91 902 100 911 q 69 893 82 893 m 181 893 q 159 902 168 893 q 150 924 150 911 q 159 944 150 936 q 181 953 168 953 q 202 944 193 953 q 211 924 211 936 q 202 902 211 911 q 181 893 193 893 z "},"İ":{"ha":250,"x_min":94,"x_max":156,"o":"m 108 0 l 108 821 l 142 821 l 142 0 l 108 0 m 125 894 q 103 903 113 894 q 94 925 94 913 q 103 946 94 938 q 125 954 113 954 q 147 946 138 954 q 156 925 156 938 q 147 903 156 913 q 125 894 138 894 z "},"Ị":{"ha":250,"x_min":93,"x_max":157,"o":"m 108 0 l 108 821 l 142 821 l 142 0 l 108 0 m 125 -128 q 102 -119 111 -128 q 93 -97 93 -110 q 102 -76 93 -85 q 125 -67 111 -67 q 147 -76 138 -67 q 157 -97 157 -85 q 147 -119 157 -110 q 125 -128 138 -128 z "},"Е":{"ha":483,"x_min":108,"x_max":446,"o":"m 108 0 l 108 821 l 446 821 l 446 794 l 143 794 l 143 446 l 376 446 l 376 419 l 143 419 l 143 26 l 446 26 l 446 0 l 108 0 z "},"Ѐ":{"ha":483,"x_min":108,"x_max":446,"o":"m 108 0 l 108 821 l 446 821 l 446 794 l 143 794 l 143 446 l 376 446 l 376 419 l 143 419 l 143 26 l 446 26 l 446 0 l 108 0 m 307 879 l 178 983 l 225 983 l 338 879 l 307 879 z "},"Ì":{"ha":250,"x_min":19,"x_max":179,"o":"m 108 0 l 108 821 l 142 821 l 142 0 l 108 0 m 149 879 l 19 983 l 67 983 l 179 879 l 149 879 z "},"Ỉ":{"ha":250,"x_min":63,"x_max":204,"o":"m 108 0 l 108 821 l 142 821 l 142 0 l 108 0 m 113 869 l 113 896 q 129 925 113 915 q 163 944 146 935 q 179 974 179 954 l 179 978 q 167 1007 179 994 q 129 1019 156 1019 q 86 985 94 1019 l 63 990 q 85 1027 68 1014 q 132 1040 101 1040 q 186 1024 168 1040 q 204 976 204 1008 l 204 974 q 187 932 204 944 q 152 912 169 919 q 135 888 135 904 l 135 869 l 113 869 z "},"И":{"ha":525,"x_min":68,"x_max":456,"o":"m 68 0 l 68 821 l 101 821 l 101 74 l 422 821 l 456 821 l 456 0 l 422 0 l 422 732 l 106 0 l 68 0 z "},"Ѝ":{"ha":525,"x_min":68,"x_max":456,"o":"m 68 0 l 68 821 l 101 821 l 101 74 l 422 821 l 456 821 l 456 0 l 422 0 l 422 732 l 106 0 l 68 0 m 286 879 l 157 983 l 204 983 l 317 879 l 286 879 z "},"Й":{"ha":525,"x_min":68,"x_max":456,"o":"m 68 0 l 68 821 l 101 821 l 101 74 l 422 821 l 456 821 l 456 0 l 422 0 l 422 732 l 106 0 l 68 0 m 261 875 q 190 894 217 875 q 152 939 164 913 q 139 988 140 965 l 165 988 q 198 921 172 943 q 261 899 224 899 q 327 920 301 899 q 358 988 353 942 l 385 988 q 369 939 382 965 q 331 894 357 913 q 261 875 306 875 z "},"Ī":{"ha":250,"x_min":6,"x_max":243,"o":"m 108 0 l 108 821 l 142 821 l 142 0 l 108 0 m 6 910 l 6 933 l 243 933 l 243 910 l 6 910 z "},"Ё":{"ha":483,"x_min":108,"x_max":446,"o":"m 108 0 l 108 821 l 446 821 l 446 794 l 143 794 l 143 446 l 376 446 l 376 419 l 143 419 l 143 26 l 446 26 l 446 0 l 108 0 m 228 893 q 206 902 215 893 q 197 924 197 911 q 206 944 197 936 q 228 953 215 953 q 249 944 240 953 q 258 924 258 936 q 249 902 258 911 q 228 893 240 893 m 339 893 q 317 902 326 893 q 308 924 308 911 q 317 944 308 936 q 339 953 326 953 q 360 944 351 953 q 369 924 369 936 q 360 902 369 911 q 339 893 351 893 z "},"Į":{"ha":250,"x_min":35,"x_max":167,"o":"m 108 0 l 108 821 l 142 821 l 142 0 l 108 0 m 117 -179 q 60 -159 85 -179 q 35 -104 35 -139 q 60 -38 35 -64 q 111 0 86 -12 l 140 0 q 84 -46 104 -19 q 64 -100 64 -72 q 82 -142 64 -128 q 118 -156 100 -156 q 142 -152 132 -156 q 158 -146 153 -149 l 167 -165 q 145 -175 158 -171 q 117 -179 132 -179 z "},"Ĩ":{"ha":250,"x_min":0,"x_max":250,"o":"m 108 0 l 108 821 l 142 821 l 142 0 l 108 0 m 181 890 q 153 895 164 890 q 124 914 143 900 q 100 931 114 921 q 69 940 86 940 q 41 929 53 940 q 25 892 29 918 l 0 892 q 21 944 3 924 q 69 964 39 964 q 101 956 86 964 q 131 938 115 949 q 156 922 144 928 q 181 915 167 915 q 209 926 197 915 q 225 963 221 936 l 250 963 q 240 925 249 942 q 216 899 231 908 q 181 890 201 890 z "},"Ю":{"ha":810,"x_min":68,"x_max":740,"o":"m 544 -17 q 447 -4 490 -17 q 378 48 404 8 q 353 169 353 88 l 353 418 l 103 418 l 103 0 l 68 0 l 68 821 l 103 821 l 103 446 l 353 446 l 353 649 q 378 769 353 731 q 448 820 404 808 q 547 832 492 832 q 647 819 603 832 q 715 768 690 807 q 740 649 740 729 l 740 169 q 715 47 740 86 q 646 -5 690 7 q 544 -17 601 -17 m 546 8 q 628 19 592 8 q 685 62 664 29 q 706 163 706 94 l 706 653 q 685 753 706 721 q 628 797 664 786 q 546 807 592 807 q 465 797 501 807 q 408 753 429 786 q 388 653 388 721 l 388 163 q 408 62 388 94 q 465 19 429 29 q 546 8 501 8 z "},"J":{"ha":278,"x_min":11,"x_max":178,"o":"m 60 -1 q 36 -1 47 -1 q 11 0 25 -1 l 11 28 l 60 26 q 124 44 104 25 q 144 114 144 63 l 144 821 l 178 821 l 178 164 q 171 66 178 103 q 139 14 164 29 q 60 -1 114 -1 z "},"Ј":{"ha":278,"x_min":11,"x_max":178,"o":"m 60 -1 q 36 -1 47 -1 q 11 0 25 -1 l 11 28 l 60 26 q 124 44 104 25 q 144 114 144 63 l 144 821 l 178 821 l 178 164 q 171 66 178 103 q 139 14 164 29 q 60 -1 114 -1 z "},"K":{"ha":485,"x_min":108,"x_max":463,"o":"m 422 0 l 169 428 l 414 821 l 453 821 l 207 425 l 463 0 l 422 0 m 108 0 l 108 821 l 142 821 l 142 0 l 108 0 z "},"К":{"ha":474,"x_min":68,"x_max":433,"o":"m 68 0 l 68 821 l 101 821 l 101 436 l 153 436 l 385 821 l 425 821 l 188 425 l 433 0 l 390 0 l 157 408 l 101 408 l 101 0 l 68 0 z "},"Ķ":{"ha":485,"x_min":108,"x_max":463,"o":"m 422 0 l 169 428 l 414 821 l 453 821 l 207 425 l 463 0 l 422 0 m 108 0 l 108 821 l 142 821 l 142 0 l 108 0 m 233 -199 q 256 -155 246 -176 q 267 -118 267 -133 q 262 -105 267 -110 q 251 -94 257 -100 q 246 -78 246 -89 q 253 -61 246 -68 q 271 -54 261 -54 q 291 -64 283 -54 q 299 -85 299 -74 q 292 -119 299 -99 q 274 -160 285 -139 q 251 -199 264 -181 l 233 -199 z "},"Ќ":{"ha":474,"x_min":68,"x_max":433,"o":"m 68 0 l 68 821 l 101 821 l 101 436 l 153 436 l 385 821 l 425 821 l 188 425 l 433 0 l 390 0 l 157 408 l 101 408 l 101 0 l 68 0 m 183 879 l 296 983 l 343 983 l 214 879 l 183 879 z "},"L":{"ha":410,"x_min":108,"x_max":403,"o":"m 108 0 l 108 821 l 142 821 l 142 26 l 403 26 l 403 0 l 108 0 z "},"Ĺ":{"ha":410,"x_min":71,"x_max":403,"o":"m 108 0 l 108 821 l 142 821 l 142 26 l 403 26 l 403 0 l 108 0 m 71 879 l 183 983 l 231 983 l 101 879 l 71 879 z "},"Ľ":{"ha":410,"x_min":108,"x_max":403,"o":"m 108 0 l 108 821 l 142 821 l 142 26 l 403 26 l 403 0 l 108 0 m 308 686 l 329 846 l 358 846 l 328 686 l 308 686 z "},"Ļ":{"ha":410,"x_min":108,"x_max":403,"o":"m 108 0 l 108 821 l 142 821 l 142 26 l 403 26 l 403 0 l 108 0 m 217 -199 q 240 -155 229 -176 q 250 -118 250 -133 q 245 -105 250 -110 q 235 -94 240 -100 q 229 -78 229 -89 q 237 -61 229 -68 q 254 -54 244 -54 q 274 -64 267 -54 q 282 -85 282 -74 q 275 -119 282 -99 q 258 -160 268 -139 q 235 -199 247 -181 l 217 -199 z "},"Љ":{"ha":882,"x_min":28,"x_max":813,"o":"m 28 0 l 28 25 q 72 48 56 25 q 93 128 89 71 l 139 821 l 494 821 l 494 0 l 460 0 l 460 793 l 172 793 l 125 115 q 120 83 124 101 q 108 47 117 64 q 83 16 99 29 q 42 0 67 3 l 28 0 m 493 25 l 642 25 q 731 48 701 25 q 769 110 760 71 q 779 199 779 150 l 779 413 q 771 492 779 454 q 733 555 763 531 q 639 579 704 579 l 493 579 l 493 25 m 460 0 l 460 818 l 493 818 l 493 604 l 642 604 q 747 583 710 604 q 798 521 783 561 q 813 422 813 481 l 813 196 q 804 110 813 147 q 777 49 796 74 q 726 13 758 25 q 644 0 693 0 l 460 0 z "},"Ł":{"ha":518,"x_min":68,"x_max":450,"o":"m 157 0 l 157 247 l 68 207 l 68 239 l 157 279 l 157 821 l 190 821 l 190 293 l 343 364 l 343 333 l 190 263 l 190 26 l 450 26 l 450 0 l 157 0 z "},"M":{"ha":731,"x_min":108,"x_max":622,"o":"m 108 0 l 108 821 l 140 821 l 365 53 l 596 821 l 622 821 l 622 0 l 590 0 l 590 701 l 381 0 l 351 0 l 142 701 l 142 0 l 108 0 z "},"N":{"ha":600,"x_min":108,"x_max":492,"o":"m 108 0 l 108 821 l 139 821 l 460 75 l 460 821 l 492 821 l 492 0 l 458 0 l 142 731 l 142 0 l 108 0 z "},"Ń":{"ha":600,"x_min":108,"x_max":492,"o":"m 108 0 l 108 821 l 139 821 l 460 75 l 460 821 l 492 821 l 492 0 l 458 0 l 142 731 l 142 0 l 108 0 m 251 879 l 364 983 l 411 983 l 282 879 l 251 879 z "},"Ň":{"ha":600,"x_min":108,"x_max":492,"o":"m 108 0 l 108 821 l 139 821 l 460 75 l 460 821 l 492 821 l 492 0 l 458 0 l 142 731 l 142 0 l 108 0 m 288 872 l 176 972 l 207 972 l 304 896 l 403 974 l 433 974 l 322 872 l 288 872 z "},"Ņ":{"ha":600,"x_min":108,"x_max":492,"o":"m 108 0 l 108 821 l 139 821 l 460 75 l 460 821 l 492 821 l 492 0 l 458 0 l 142 731 l 142 0 l 108 0 m 261 -199 q 284 -155 274 -176 q 294 -118 294 -133 q 290 -105 294 -110 q 279 -94 285 -100 q 274 -78 274 -89 q 281 -61 274 -68 q 299 -54 289 -54 q 319 -64 311 -54 q 326 -85 326 -74 q 319 -119 326 -99 q 302 -160 313 -139 q 279 -199 292 -181 l 261 -199 z "},"Њ":{"ha":843,"x_min":68,"x_max":774,"o":"m 68 0 l 68 821 l 101 821 l 101 444 l 421 444 l 421 821 l 456 821 l 456 604 l 603 604 q 708 583 671 604 q 759 521 744 561 q 774 422 774 481 l 774 196 q 765 110 774 147 q 738 49 757 74 q 687 13 719 25 q 606 0 654 0 l 421 0 l 421 417 l 101 417 l 101 0 l 68 0 m 456 25 l 603 25 q 692 48 663 25 q 731 110 721 71 q 740 199 740 150 l 740 410 q 732 492 740 454 q 694 555 724 531 q 600 579 665 579 l 456 579 l 456 25 z "},"Ñ":{"ha":600,"x_min":108,"x_max":492,"o":"m 108 0 l 108 821 l 139 821 l 460 75 l 460 821 l 492 821 l 492 0 l 458 0 l 142 731 l 142 0 l 108 0 m 361 890 q 334 895 344 890 q 304 914 324 900 q 281 931 294 921 q 250 940 267 940 q 222 929 233 940 q 206 892 210 918 l 181 892 q 201 944 183 924 q 250 964 219 964 q 281 956 267 964 q 311 938 296 949 q 336 922 325 928 q 361 915 347 915 q 390 926 378 915 q 406 963 401 936 l 431 963 q 420 925 429 942 q 397 899 411 908 q 361 890 382 890 z "},"O":{"ha":568,"x_min":93,"x_max":475,"o":"m 282 -17 q 185 -4 228 -17 q 118 47 143 8 q 93 167 93 86 l 93 651 q 118 770 93 732 q 187 820 143 808 q 285 832 231 832 q 383 819 340 832 q 450 769 425 807 q 475 651 475 731 l 475 167 q 450 46 475 85 q 382 -5 425 7 q 282 -17 339 -17 m 283 8 q 366 19 331 8 q 422 63 401 29 q 442 168 442 97 l 442 647 q 422 752 442 718 q 365 797 401 786 q 283 807 329 807 q 201 797 236 807 q 145 752 165 786 q 125 647 125 718 l 125 168 q 145 63 125 97 q 201 19 165 29 q 283 8 236 8 z "},"О":{"ha":568,"x_min":93,"x_max":475,"o":"m 282 -17 q 185 -4 228 -17 q 118 47 143 8 q 93 167 93 86 l 93 651 q 118 770 93 732 q 187 820 143 808 q 285 832 231 832 q 383 819 340 832 q 450 769 425 807 q 475 651 475 731 l 475 167 q 450 46 475 85 q 382 -5 425 7 q 282 -17 339 -17 m 283 8 q 366 19 331 8 q 422 63 401 29 q 442 168 442 97 l 442 647 q 422 752 442 718 q 365 797 401 786 q 283 807 329 807 q 201 797 236 807 q 145 752 165 786 q 125 647 125 718 l 125 168 q 145 63 125 97 q 201 19 165 29 q 283 8 236 8 z "},"Œ":{"ha":818,"x_min":93,"x_max":781,"o":"m 283 -17 q 186 -4 229 -17 q 118 47 143 8 q 93 167 93 86 l 93 651 q 119 770 93 732 q 188 820 144 808 q 286 832 232 832 q 384 819 342 832 q 451 769 426 807 q 476 651 476 731 l 476 167 q 451 46 476 85 q 383 -5 426 7 q 283 -17 340 -17 m 285 8 q 367 19 332 8 q 423 63 403 29 q 443 168 443 97 l 443 647 q 423 752 443 718 q 367 797 403 786 q 285 807 331 807 q 203 797 239 807 q 147 752 167 786 q 126 647 126 718 l 126 168 q 147 63 126 97 q 203 19 167 29 q 285 8 239 8 m 443 0 l 443 821 l 781 821 l 781 794 l 476 794 l 476 446 l 711 446 l 711 419 l 476 419 l 476 26 l 781 26 l 781 0 l 443 0 z "},"Ó":{"ha":568,"x_min":93,"x_max":475,"o":"m 282 -17 q 185 -4 228 -17 q 118 47 143 8 q 93 167 93 86 l 93 651 q 118 770 93 732 q 187 820 143 808 q 285 832 231 832 q 383 819 340 832 q 450 769 425 807 q 475 651 475 731 l 475 167 q 450 46 475 85 q 382 -5 425 7 q 282 -17 339 -17 m 283 8 q 366 19 331 8 q 422 63 401 29 q 442 168 442 97 l 442 647 q 422 752 442 718 q 365 797 401 786 q 283 807 329 807 q 201 797 236 807 q 145 752 165 786 q 125 647 125 718 l 125 168 q 145 63 125 97 q 201 19 165 29 q 283 8 236 8 m 231 879 l 343 983 l 390 983 l 261 879 l 231 879 z "},"Ǒ":{"ha":568,"x_min":93,"x_max":475,"o":"m 282 -17 q 185 -4 228 -17 q 118 47 143 8 q 93 167 93 86 l 93 651 q 118 770 93 732 q 187 820 143 808 q 285 832 231 832 q 383 819 340 832 q 450 769 425 807 q 475 651 475 731 l 475 167 q 450 46 475 85 q 382 -5 425 7 q 282 -17 339 -17 m 283 8 q 366 19 331 8 q 422 63 401 29 q 442 168 442 97 l 442 647 q 422 752 442 718 q 365 797 401 786 q 283 807 329 807 q 201 797 236 807 q 145 752 165 786 q 125 647 125 718 l 125 168 q 145 63 125 97 q 201 19 165 29 q 283 8 236 8 m 267 872 l 156 972 l 186 972 l 283 896 l 382 974 l 413 974 l 301 872 l 267 872 z "},"Ô":{"ha":568,"x_min":93,"x_max":475,"o":"m 282 -17 q 185 -4 228 -17 q 118 47 143 8 q 93 167 93 86 l 93 651 q 118 770 93 732 q 187 820 143 808 q 285 832 231 832 q 383 819 340 832 q 450 769 425 807 q 475 651 475 731 l 475 167 q 450 46 475 85 q 382 -5 425 7 q 282 -17 339 -17 m 283 8 q 366 19 331 8 q 422 63 401 29 q 442 168 442 97 l 442 647 q 422 752 442 718 q 365 797 401 786 q 283 807 329 807 q 201 797 236 807 q 145 752 165 786 q 125 647 125 718 l 125 168 q 145 63 125 97 q 201 19 165 29 q 283 8 236 8 m 149 872 l 267 986 l 301 986 l 419 872 l 390 872 l 283 963 l 179 872 l 149 872 z "},"Ố":{"ha":568,"x_min":93,"x_max":475,"o":"m 282 -17 q 185 -4 228 -17 q 118 47 143 8 q 93 167 93 86 l 93 651 q 118 770 93 732 q 187 820 143 808 q 285 832 231 832 q 383 819 340 832 q 450 769 425 807 q 475 651 475 731 l 475 167 q 450 46 475 85 q 382 -5 425 7 q 282 -17 339 -17 m 283 8 q 366 19 331 8 q 422 63 401 29 q 442 168 442 97 l 442 647 q 422 752 442 718 q 365 797 401 786 q 283 807 329 807 q 201 797 236 807 q 145 752 165 786 q 125 647 125 718 l 125 168 q 145 63 125 97 q 201 19 165 29 q 283 8 236 8 m 186 871 l 269 953 l 299 953 l 382 871 l 354 871 l 283 931 l 215 871 l 186 871 m 381 919 l 435 1006 l 475 1006 l 401 919 l 381 919 z "},"Ộ":{"ha":568,"x_min":93,"x_max":475,"o":"m 282 -17 q 185 -4 228 -17 q 118 47 143 8 q 93 167 93 86 l 93 651 q 118 770 93 732 q 187 820 143 808 q 285 832 231 832 q 383 819 340 832 q 450 769 425 807 q 475 651 475 731 l 475 167 q 450 46 475 85 q 382 -5 425 7 q 282 -17 339 -17 m 283 8 q 366 19 331 8 q 422 63 401 29 q 442 168 442 97 l 442 647 q 422 752 442 718 q 365 797 401 786 q 283 807 329 807 q 201 797 236 807 q 145 752 165 786 q 125 647 125 718 l 125 168 q 145 63 125 97 q 201 19 165 29 q 283 8 236 8 m 285 -128 q 262 -119 271 -128 q 253 -97 253 -110 q 262 -76 253 -85 q 285 -67 271 -67 q 307 -76 297 -67 q 317 -97 317 -85 q 307 -119 317 -110 q 285 -128 297 -128 m 149 872 l 267 986 l 301 986 l 419 872 l 390 872 l 283 963 l 179 872 l 149 872 z "},"Ồ":{"ha":568,"x_min":93,"x_max":475,"o":"m 282 -17 q 185 -4 228 -17 q 118 47 143 8 q 93 167 93 86 l 93 651 q 118 770 93 732 q 187 820 143 808 q 285 832 231 832 q 383 819 340 832 q 450 769 425 807 q 475 651 475 731 l 475 167 q 450 46 475 85 q 382 -5 425 7 q 282 -17 339 -17 m 283 8 q 366 19 331 8 q 422 63 401 29 q 442 168 442 97 l 442 647 q 422 752 442 718 q 365 797 401 786 q 283 807 329 807 q 201 797 236 807 q 145 752 165 786 q 125 647 125 718 l 125 168 q 145 63 125 97 q 201 19 165 29 q 283 8 236 8 m 186 871 l 269 953 l 299 953 l 382 871 l 354 871 l 283 931 l 215 871 l 186 871 m 421 919 l 347 1006 l 388 1006 l 442 919 l 421 919 z "},"Ổ":{"ha":568,"x_min":93,"x_max":475,"o":"m 282 -17 q 185 -4 228 -17 q 118 47 143 8 q 93 167 93 86 l 93 651 q 118 770 93 732 q 187 820 143 808 q 285 832 231 832 q 383 819 340 832 q 450 769 425 807 q 475 651 475 731 l 475 167 q 450 46 475 85 q 382 -5 425 7 q 282 -17 339 -17 m 283 8 q 366 19 331 8 q 422 63 401 29 q 442 168 442 97 l 442 647 q 422 752 442 718 q 365 797 401 786 q 283 807 329 807 q 201 797 236 807 q 145 752 165 786 q 125 647 125 718 l 125 168 q 145 63 125 97 q 201 19 165 29 q 283 8 236 8 m 186 871 l 269 953 l 299 953 l 382 871 l 354 871 l 283 931 l 215 871 l 186 871 m 401 921 l 401 939 q 413 959 401 953 q 435 972 424 965 q 447 993 447 979 l 447 996 q 439 1016 447 1007 q 414 1025 431 1025 q 385 1000 392 1025 l 365 1006 q 381 1032 368 1022 q 417 1042 394 1042 q 457 1030 444 1042 q 469 996 469 1018 l 469 993 q 458 964 469 972 q 433 950 446 956 q 421 933 421 944 l 421 921 l 401 921 z "},"Ỗ":{"ha":568,"x_min":93,"x_max":475,"o":"m 282 -17 q 185 -4 228 -17 q 118 47 143 8 q 93 167 93 86 l 93 651 q 118 770 93 732 q 187 820 143 808 q 285 832 231 832 q 383 819 340 832 q 450 769 425 807 q 475 651 475 731 l 475 167 q 450 46 475 85 q 382 -5 425 7 q 282 -17 339 -17 m 283 8 q 366 19 331 8 q 422 63 401 29 q 442 168 442 97 l 442 647 q 422 752 442 718 q 365 797 401 786 q 283 807 329 807 q 201 797 236 807 q 145 752 165 786 q 125 647 125 718 l 125 168 q 145 63 125 97 q 201 19 165 29 q 283 8 236 8 m 186 871 l 269 953 l 299 953 l 382 871 l 354 871 l 283 931 l 215 871 l 186 871 m 322 974 q 302 977 310 974 q 282 990 294 981 q 264 1002 274 996 q 243 1008 254 1008 q 222 1001 232 1008 q 210 975 213 993 l 193 975 q 209 1015 196 1001 q 243 1028 222 1028 q 263 1024 254 1028 q 286 1010 272 1021 q 306 999 296 1003 q 322 994 315 994 q 343 1002 333 994 q 356 1028 353 1010 l 374 1028 q 365 1000 372 1013 q 347 981 358 988 q 322 974 336 974 z "},"Ö":{"ha":568,"x_min":93,"x_max":475,"o":"m 282 -17 q 185 -4 228 -17 q 118 47 143 8 q 93 167 93 86 l 93 651 q 118 770 93 732 q 187 820 143 808 q 285 832 231 832 q 383 819 340 832 q 450 769 425 807 q 475 651 475 731 l 475 167 q 450 46 475 85 q 382 -5 425 7 q 282 -17 339 -17 m 283 8 q 366 19 331 8 q 422 63 401 29 q 442 168 442 97 l 442 647 q 422 752 442 718 q 365 797 401 786 q 283 807 329 807 q 201 797 236 807 q 145 752 165 786 q 125 647 125 718 l 125 168 q 145 63 125 97 q 201 19 165 29 q 283 8 236 8 m 229 893 q 208 902 217 893 q 199 924 199 911 q 208 944 199 936 q 229 953 217 953 q 251 944 242 953 q 260 924 260 936 q 251 902 260 911 q 229 893 242 893 m 340 893 q 319 902 328 893 q 310 924 310 911 q 319 944 310 936 q 340 953 328 953 q 362 944 353 953 q 371 924 371 936 q 362 902 371 911 q 340 893 353 893 z "},"Ọ":{"ha":568,"x_min":93,"x_max":475,"o":"m 282 -17 q 185 -4 228 -17 q 118 47 143 8 q 93 167 93 86 l 93 651 q 118 770 93 732 q 187 820 143 808 q 285 832 231 832 q 383 819 340 832 q 450 769 425 807 q 475 651 475 731 l 475 167 q 450 46 475 85 q 382 -5 425 7 q 282 -17 339 -17 m 283 8 q 366 19 331 8 q 422 63 401 29 q 442 168 442 97 l 442 647 q 422 752 442 718 q 365 797 401 786 q 283 807 329 807 q 201 797 236 807 q 145 752 165 786 q 125 647 125 718 l 125 168 q 145 63 125 97 q 201 19 165 29 q 283 8 236 8 m 285 -128 q 262 -119 271 -128 q 253 -97 253 -110 q 262 -76 253 -85 q 285 -67 271 -67 q 307 -76 297 -67 q 317 -97 317 -85 q 307 -119 317 -110 q 285 -128 297 -128 z "},"Ò":{"ha":568,"x_min":93,"x_max":475,"o":"m 282 -17 q 185 -4 228 -17 q 118 47 143 8 q 93 167 93 86 l 93 651 q 118 770 93 732 q 187 820 143 808 q 285 832 231 832 q 383 819 340 832 q 450 769 425 807 q 475 651 475 731 l 475 167 q 450 46 475 85 q 382 -5 425 7 q 282 -17 339 -17 m 283 8 q 366 19 331 8 q 422 63 401 29 q 442 168 442 97 l 442 647 q 422 752 442 718 q 365 797 401 786 q 283 807 329 807 q 201 797 236 807 q 145 752 165 786 q 125 647 125 718 l 125 168 q 145 63 125 97 q 201 19 165 29 q 283 8 236 8 m 308 879 l 179 983 l 226 983 l 339 879 l 308 879 z "},"Ỏ":{"ha":568,"x_min":93,"x_max":475,"o":"m 282 -17 q 185 -4 228 -17 q 118 47 143 8 q 93 167 93 86 l 93 651 q 118 770 93 732 q 187 820 143 808 q 285 832 231 832 q 383 819 340 832 q 450 769 425 807 q 475 651 475 731 l 475 167 q 450 46 475 85 q 382 -5 425 7 q 282 -17 339 -17 m 283 8 q 366 19 331 8 q 422 63 401 29 q 442 168 442 97 l 442 647 q 422 752 442 718 q 365 797 401 786 q 283 807 329 807 q 201 797 236 807 q 145 752 165 786 q 125 647 125 718 l 125 168 q 145 63 125 97 q 201 19 165 29 q 283 8 236 8 m 272 869 l 272 896 q 289 925 272 915 q 322 944 306 935 q 339 974 339 954 l 339 978 q 327 1007 339 994 q 289 1019 315 1019 q 246 985 254 1019 l 222 990 q 244 1027 228 1014 q 292 1040 261 1040 q 346 1024 328 1040 q 364 976 364 1008 l 364 974 q 347 932 364 944 q 312 912 329 919 q 294 888 294 904 l 294 869 l 272 869 z "},"Ơ":{"ha":568,"x_min":93,"x_max":475,"o":"m 282 -17 q 185 -4 228 -17 q 118 47 143 8 q 93 167 93 86 l 93 651 q 118 770 93 732 q 187 820 143 808 q 285 832 231 832 q 383 819 340 832 q 450 769 425 807 q 475 651 475 731 l 475 167 q 450 46 475 85 q 382 -5 425 7 q 282 -17 339 -17 m 283 8 q 366 19 331 8 q 422 63 401 29 q 442 168 442 97 l 442 647 q 422 752 442 718 q 365 797 401 786 q 283 807 329 807 q 201 797 236 807 q 145 752 165 786 q 125 647 125 718 l 125 168 q 145 63 125 97 q 201 19 165 29 q 283 8 236 8 m 365 797 l 360 821 l 372 821 q 443 882 443 821 l 443 903 l 472 903 l 472 889 q 444 821 472 846 q 365 797 415 796 z "},"Ớ":{"ha":568,"x_min":93,"x_max":475,"o":"m 282 -17 q 185 -4 228 -17 q 118 47 143 8 q 93 167 93 86 l 93 651 q 118 770 93 732 q 187 820 143 808 q 285 832 231 832 q 383 819 340 832 q 450 769 425 807 q 475 651 475 731 l 475 167 q 450 46 475 85 q 382 -5 425 7 q 282 -17 339 -17 m 283 8 q 366 19 331 8 q 422 63 401 29 q 442 168 442 97 l 442 647 q 422 752 442 718 q 365 797 401 786 q 283 807 329 807 q 201 797 236 807 q 145 752 165 786 q 125 647 125 718 l 125 168 q 145 63 125 97 q 201 19 165 29 q 283 8 236 8 m 365 797 l 360 821 l 372 821 q 443 882 443 821 l 443 903 l 472 903 l 472 889 q 444 821 472 846 q 365 797 415 796 m 231 879 l 343 983 l 390 983 l 261 879 l 231 879 z "},"Ợ":{"ha":568,"x_min":93,"x_max":475,"o":"m 282 -17 q 185 -4 228 -17 q 118 47 143 8 q 93 167 93 86 l 93 651 q 118 770 93 732 q 187 820 143 808 q 285 832 231 832 q 383 819 340 832 q 450 769 425 807 q 475 651 475 731 l 475 167 q 450 46 475 85 q 382 -5 425 7 q 282 -17 339 -17 m 283 8 q 366 19 331 8 q 422 63 401 29 q 442 168 442 97 l 442 647 q 422 752 442 718 q 365 797 401 786 q 283 807 329 807 q 201 797 236 807 q 145 752 165 786 q 125 647 125 718 l 125 168 q 145 63 125 97 q 201 19 165 29 q 283 8 236 8 m 365 797 l 360 821 l 372 821 q 443 882 443 821 l 443 903 l 472 903 l 472 889 q 444 821 472 846 q 365 797 415 796 m 285 -128 q 262 -119 271 -128 q 253 -97 253 -110 q 262 -76 253 -85 q 285 -67 271 -67 q 307 -76 297 -67 q 317 -97 317 -85 q 307 -119 317 -110 q 285 -128 297 -128 z "},"Ờ":{"ha":568,"x_min":93,"x_max":475,"o":"m 282 -17 q 185 -4 228 -17 q 118 47 143 8 q 93 167 93 86 l 93 651 q 118 770 93 732 q 187 820 143 808 q 285 832 231 832 q 383 819 340 832 q 450 769 425 807 q 475 651 475 731 l 475 167 q 450 46 475 85 q 382 -5 425 7 q 282 -17 339 -17 m 283 8 q 366 19 331 8 q 422 63 401 29 q 442 168 442 97 l 442 647 q 422 752 442 718 q 365 797 401 786 q 283 807 329 807 q 201 797 236 807 q 145 752 165 786 q 125 647 125 718 l 125 168 q 145 63 125 97 q 201 19 165 29 q 283 8 236 8 m 365 797 l 360 821 l 372 821 q 443 882 443 821 l 443 903 l 472 903 l 472 889 q 444 821 472 846 q 365 797 415 796 m 308 879 l 179 983 l 226 983 l 339 879 l 308 879 z "},"Ở":{"ha":568,"x_min":93,"x_max":475,"o":"m 282 -17 q 185 -4 228 -17 q 118 47 143 8 q 93 167 93 86 l 93 651 q 118 770 93 732 q 187 820 143 808 q 285 832 231 832 q 383 819 340 832 q 450 769 425 807 q 475 651 475 731 l 475 167 q 450 46 475 85 q 382 -5 425 7 q 282 -17 339 -17 m 283 8 q 366 19 331 8 q 422 63 401 29 q 442 168 442 97 l 442 647 q 422 752 442 718 q 365 797 401 786 q 283 807 329 807 q 201 797 236 807 q 145 752 165 786 q 125 647 125 718 l 125 168 q 145 63 125 97 q 201 19 165 29 q 283 8 236 8 m 365 797 l 360 821 l 372 821 q 443 882 443 821 l 443 903 l 472 903 l 472 889 q 444 821 472 846 q 365 797 415 796 m 272 869 l 272 896 q 289 925 272 915 q 322 944 306 935 q 339 974 339 954 l 339 978 q 327 1007 339 994 q 289 1019 315 1019 q 246 985 254 1019 l 222 990 q 244 1027 228 1014 q 292 1040 261 1040 q 346 1024 328 1040 q 364 976 364 1008 l 364 974 q 347 932 364 944 q 312 912 329 919 q 294 888 294 904 l 294 869 l 272 869 z "},"Ỡ":{"ha":568,"x_min":93,"x_max":475,"o":"m 282 -17 q 185 -4 228 -17 q 118 47 143 8 q 93 167 93 86 l 93 651 q 118 770 93 732 q 187 820 143 808 q 285 832 231 832 q 383 819 340 832 q 450 769 425 807 q 475 651 475 731 l 475 167 q 450 46 475 85 q 382 -5 425 7 q 282 -17 339 -17 m 283 8 q 366 19 331 8 q 422 63 401 29 q 442 168 442 97 l 442 647 q 422 752 442 718 q 365 797 401 786 q 283 807 329 807 q 201 797 236 807 q 145 752 165 786 q 125 647 125 718 l 125 168 q 145 63 125 97 q 201 19 165 29 q 283 8 236 8 m 365 797 l 360 821 l 372 821 q 443 882 443 821 l 443 903 l 472 903 l 472 889 q 444 821 472 846 q 365 797 415 796 m 340 890 q 313 895 324 890 q 283 914 303 900 q 260 931 274 921 q 229 940 246 940 q 201 929 213 940 q 185 892 189 918 l 160 892 q 181 944 163 924 q 229 964 199 964 q 260 956 246 964 q 290 938 275 949 q 315 922 304 928 q 340 915 326 915 q 369 926 357 915 q 385 963 381 936 l 410 963 q 399 925 408 942 q 376 899 390 908 q 340 890 361 890 z "},"Ő":{"ha":568,"x_min":93,"x_max":475,"o":"m 282 -17 q 185 -4 228 -17 q 118 47 143 8 q 93 167 93 86 l 93 651 q 118 770 93 732 q 187 820 143 808 q 285 832 231 832 q 383 819 340 832 q 450 769 425 807 q 475 651 475 731 l 475 167 q 450 46 475 85 q 382 -5 425 7 q 282 -17 339 -17 m 283 8 q 366 19 331 8 q 422 63 401 29 q 442 168 442 97 l 442 647 q 422 752 442 718 q 365 797 401 786 q 283 807 329 807 q 201 797 236 807 q 145 752 165 786 q 125 647 125 718 l 125 168 q 145 63 125 97 q 201 19 165 29 q 283 8 236 8 m 228 872 l 278 993 l 319 993 l 249 872 l 228 872 m 303 872 l 353 993 l 394 993 l 324 872 l 303 872 z "},"Ō":{"ha":568,"x_min":93,"x_max":475,"o":"m 282 -17 q 185 -4 228 -17 q 118 47 143 8 q 93 167 93 86 l 93 651 q 118 770 93 732 q 187 820 143 808 q 285 832 231 832 q 383 819 340 832 q 450 769 425 807 q 475 651 475 731 l 475 167 q 450 46 475 85 q 382 -5 425 7 q 282 -17 339 -17 m 283 8 q 366 19 331 8 q 422 63 401 29 q 442 168 442 97 l 442 647 q 422 752 442 718 q 365 797 401 786 q 283 807 329 807 q 201 797 236 807 q 145 752 165 786 q 125 647 125 718 l 125 168 q 145 63 125 97 q 201 19 165 29 q 283 8 236 8 m 165 910 l 165 933 l 403 933 l 403 910 l 165 910 z "},"Ω":{"ha":833,"x_min":69,"x_max":765,"o":"m 69 0 l 69 33 l 306 28 l 301 31 q 169 178 213 103 q 111 318 125 253 q 97 422 97 383 q 119 574 97 507 q 183 687 142 640 q 285 758 225 733 q 418 783 344 783 q 551 758 492 783 q 651 687 610 733 q 715 574 693 640 q 738 425 738 508 q 723 320 738 385 q 665 181 708 256 q 532 31 621 106 l 528 28 l 765 33 l 765 0 l 467 0 l 467 19 q 588 131 542 74 q 657 244 633 189 q 689 348 681 300 q 697 431 697 396 q 663 603 697 529 q 567 719 629 678 q 418 760 504 760 q 268 718 332 760 q 169 599 204 676 q 135 413 135 521 q 144 340 135 385 q 177 240 153 294 q 247 129 201 186 q 365 19 292 72 l 365 0 l 69 0 z "},"Ø":{"ha":593,"x_min":54,"x_max":510,"o":"m 54 -19 l 476 821 l 510 821 l 88 -19 l 54 -19 m 294 -17 q 197 -4 240 -17 q 129 47 154 8 q 104 167 104 86 l 104 651 q 130 770 104 732 q 199 820 156 808 q 297 832 243 832 q 395 819 353 832 q 463 769 438 807 q 488 651 488 731 l 488 167 q 463 46 488 85 q 394 -5 438 7 q 294 -17 351 -17 m 296 8 q 378 19 343 8 q 434 63 414 29 q 454 168 454 97 l 454 647 q 434 752 454 718 q 378 797 414 786 q 296 807 342 807 q 214 797 250 807 q 158 752 178 786 q 138 647 138 718 l 138 168 q 158 63 138 97 q 214 19 178 29 q 296 8 250 8 z "},"Õ":{"ha":568,"x_min":93,"x_max":475,"o":"m 282 -17 q 185 -4 228 -17 q 118 47 143 8 q 93 167 93 86 l 93 651 q 118 770 93 732 q 187 820 143 808 q 285 832 231 832 q 383 819 340 832 q 450 769 425 807 q 475 651 475 731 l 475 167 q 450 46 475 85 q 382 -5 425 7 q 282 -17 339 -17 m 283 8 q 366 19 331 8 q 422 63 401 29 q 442 168 442 97 l 442 647 q 422 752 442 718 q 365 797 401 786 q 283 807 329 807 q 201 797 236 807 q 145 752 165 786 q 125 647 125 718 l 125 168 q 145 63 125 97 q 201 19 165 29 q 283 8 236 8 m 340 890 q 313 895 324 890 q 283 914 303 900 q 260 931 274 921 q 229 940 246 940 q 201 929 213 940 q 185 892 189 918 l 160 892 q 181 944 163 924 q 229 964 199 964 q 260 956 246 964 q 290 938 275 949 q 315 922 304 928 q 340 915 326 915 q 369 926 357 915 q 385 963 381 936 l 410 963 q 399 925 408 942 q 376 899 390 908 q 340 890 361 890 z "},"P":{"ha":526,"x_min":108,"x_max":485,"o":"m 108 0 l 108 821 l 336 821 q 441 791 397 821 q 485 686 485 761 l 485 529 q 472 451 485 488 q 420 393 458 415 q 307 371 382 371 l 143 371 l 143 0 l 108 0 m 143 396 l 306 396 q 415 431 378 396 q 451 536 451 467 l 451 679 q 416 767 451 739 q 335 796 381 796 l 143 796 l 143 396 z "},"П":{"ha":496,"x_min":68,"x_max":428,"o":"m 68 0 l 68 821 l 428 821 l 428 0 l 392 0 l 392 793 l 104 793 l 104 0 l 68 0 z "},"Q":{"ha":568,"x_min":93,"x_max":475,"o":"m 432 -156 l 349 -12 q 317 -15 333 -14 q 282 -17 301 -17 q 185 -4 228 -17 q 118 47 143 8 q 93 167 93 86 l 93 651 q 118 770 93 732 q 187 820 143 808 q 285 832 231 832 q 383 819 340 832 q 450 769 425 807 q 475 651 475 731 l 475 167 q 451 47 475 85 q 382 -4 426 8 l 463 -137 l 432 -156 m 283 8 q 366 19 331 8 q 422 63 401 29 q 442 168 442 97 l 442 647 q 422 752 442 718 q 365 797 401 786 q 283 807 329 807 q 201 797 238 807 q 145 752 165 786 q 125 647 125 718 l 125 168 q 145 63 125 97 q 201 19 165 29 q 283 8 238 8 z "},"R":{"ha":569,"x_min":108,"x_max":515,"o":"m 108 0 l 108 821 l 336 821 q 441 791 397 821 q 485 686 485 761 l 485 550 q 437 439 485 474 q 317 404 389 404 l 317 407 q 384 377 361 408 q 426 282 407 346 l 515 0 l 482 0 l 396 279 q 374 335 388 308 q 338 381 360 363 q 282 399 317 399 l 142 399 l 142 0 l 108 0 m 142 422 l 306 422 q 415 453 378 422 q 451 561 451 485 l 451 681 q 416 768 451 740 q 335 796 381 796 l 142 796 l 142 422 z "},"Ŕ":{"ha":569,"x_min":108,"x_max":515,"o":"m 108 0 l 108 821 l 336 821 q 441 791 397 821 q 485 686 485 761 l 485 550 q 437 439 485 474 q 317 404 389 404 l 317 407 q 384 377 361 408 q 426 282 407 346 l 515 0 l 482 0 l 396 279 q 374 335 388 308 q 338 381 360 363 q 282 399 317 399 l 142 399 l 142 0 l 108 0 m 142 422 l 306 422 q 415 453 378 422 q 451 561 451 485 l 451 681 q 416 768 451 740 q 335 796 381 796 l 142 796 l 142 422 m 231 879 l 343 983 l 390 983 l 261 879 l 231 879 z "},"Ř":{"ha":569,"x_min":108,"x_max":515,"o":"m 108 0 l 108 821 l 336 821 q 441 791 397 821 q 485 686 485 761 l 485 550 q 437 439 485 474 q 317 404 389 404 l 317 407 q 384 377 361 408 q 426 282 407 346 l 515 0 l 482 0 l 396 279 q 374 335 388 308 q 338 381 360 363 q 282 399 317 399 l 142 399 l 142 0 l 108 0 m 142 422 l 306 422 q 415 453 378 422 q 451 561 451 485 l 451 681 q 416 768 451 740 q 335 796 381 796 l 142 796 l 142 422 m 267 872 l 156 972 l 186 972 l 283 896 l 382 974 l 413 974 l 301 872 l 267 872 z "},"Ŗ":{"ha":569,"x_min":108,"x_max":515,"o":"m 108 0 l 108 821 l 336 821 q 441 791 397 821 q 485 686 485 761 l 485 550 q 437 439 485 474 q 317 404 389 404 l 317 407 q 384 377 361 408 q 426 282 407 346 l 515 0 l 482 0 l 396 279 q 374 335 388 308 q 338 381 360 363 q 282 399 317 399 l 142 399 l 142 0 l 108 0 m 142 422 l 306 422 q 415 453 378 422 q 451 561 451 485 l 451 681 q 416 768 451 740 q 335 796 381 796 l 142 796 l 142 422 m 264 -199 q 287 -155 276 -176 q 297 -118 297 -133 q 292 -105 297 -110 q 282 -94 288 -100 q 276 -78 276 -89 q 284 -61 276 -68 q 301 -54 292 -54 q 322 -64 314 -54 q 329 -85 329 -74 q 322 -119 329 -99 q 305 -160 315 -139 q 282 -199 294 -181 l 264 -199 z "},"S":{"ha":501,"x_min":65,"x_max":436,"o":"m 244 -8 q 150 14 190 -8 q 88 88 110 36 q 65 231 65 140 l 65 275 q 81 275 72 275 q 96 275 89 275 l 96 231 q 115 102 96 149 q 167 37 133 56 q 244 18 201 18 q 358 60 313 18 q 404 207 404 101 q 384 311 404 275 q 325 368 364 347 q 232 410 286 389 q 153 449 190 426 q 92 510 115 471 q 69 615 69 550 q 88 728 69 682 q 146 797 106 774 q 250 821 186 821 q 381 774 333 821 q 428 646 428 728 l 428 561 q 413 561 421 561 q 397 561 406 561 l 397 643 q 358 754 397 714 q 250 794 319 794 q 136 750 172 794 q 100 617 100 706 q 123 522 100 557 q 182 466 146 486 q 258 431 218 446 q 361 380 322 406 q 418 315 400 354 q 436 208 436 276 q 411 81 436 128 q 343 13 386 33 q 244 -8 300 -8 z "},"Ś":{"ha":501,"x_min":65,"x_max":436,"o":"m 244 -8 q 150 14 190 -8 q 88 88 110 36 q 65 231 65 140 l 65 275 q 81 275 72 275 q 96 275 89 275 l 96 231 q 115 102 96 149 q 167 37 133 56 q 244 18 201 18 q 358 60 313 18 q 404 207 404 101 q 384 311 404 275 q 325 368 364 347 q 232 410 286 389 q 153 449 190 426 q 92 510 115 471 q 69 615 69 550 q 88 728 69 682 q 146 797 106 774 q 250 821 186 821 q 381 774 333 821 q 428 646 428 728 l 428 561 q 413 561 421 561 q 397 561 406 561 l 397 643 q 358 754 397 714 q 250 794 319 794 q 136 750 172 794 q 100 617 100 706 q 123 522 100 557 q 182 466 146 486 q 258 431 218 446 q 361 380 322 406 q 418 315 400 354 q 436 208 436 276 q 411 81 436 128 q 343 13 386 33 q 244 -8 300 -8 m 197 879 l 310 983 l 357 983 l 228 879 l 197 879 z "},"Š":{"ha":501,"x_min":65,"x_max":436,"o":"m 244 -8 q 150 14 190 -8 q 88 88 110 36 q 65 231 65 140 l 65 275 q 81 275 72 275 q 96 275 89 275 l 96 231 q 115 102 96 149 q 167 37 133 56 q 244 18 201 18 q 358 60 313 18 q 404 207 404 101 q 384 311 404 275 q 325 368 364 347 q 232 410 286 389 q 153 449 190 426 q 92 510 115 471 q 69 615 69 550 q 88 728 69 682 q 146 797 106 774 q 250 821 186 821 q 381 774 333 821 q 428 646 428 728 l 428 561 q 413 561 421 561 q 397 561 406 561 l 397 643 q 358 754 397 714 q 250 794 319 794 q 136 750 172 794 q 100 617 100 706 q 123 522 100 557 q 182 466 146 486 q 258 431 218 446 q 361 380 322 406 q 418 315 400 354 q 436 208 436 276 q 411 81 436 128 q 343 13 386 33 q 244 -8 300 -8 m 233 872 l 122 972 l 153 972 l 250 896 l 349 974 l 379 974 l 268 872 l 233 872 z "},"Ş":{"ha":501,"x_min":65,"x_max":436,"o":"m 244 -8 q 150 14 190 -8 q 88 88 110 36 q 65 231 65 140 l 65 275 q 81 275 72 275 q 96 275 89 275 l 96 231 q 115 102 96 149 q 167 37 133 56 q 244 18 201 18 q 358 60 313 18 q 404 207 404 101 q 384 311 404 275 q 325 368 364 347 q 232 410 286 389 q 153 449 190 426 q 92 510 115 471 q 69 615 69 550 q 88 728 69 682 q 146 797 106 774 q 250 821 186 821 q 381 774 333 821 q 428 646 428 728 l 428 561 q 413 561 421 561 q 397 561 406 561 l 397 643 q 358 754 397 714 q 250 794 319 794 q 136 750 172 794 q 100 617 100 706 q 123 522 100 557 q 182 466 146 486 q 258 431 218 446 q 361 380 322 406 q 418 315 400 354 q 436 208 436 276 q 411 81 436 128 q 343 13 386 33 q 244 -8 300 -8 m 244 -186 q 213 -181 226 -186 q 188 -169 199 -175 l 196 -150 q 219 -160 203 -156 q 243 -165 235 -165 q 290 -151 275 -165 q 304 -119 304 -137 q 290 -87 304 -99 q 254 -75 276 -75 q 233 -79 244 -75 q 213 -90 222 -83 l 196 -81 l 240 0 l 264 0 l 225 -69 l 218 -68 q 240 -59 228 -61 q 261 -57 251 -57 q 311 -76 293 -57 q 329 -115 329 -94 q 307 -167 329 -147 q 244 -186 285 -186 z "},"Ș":{"ha":501,"x_min":65,"x_max":436,"o":"m 244 -8 q 150 14 190 -8 q 88 88 110 36 q 65 231 65 140 l 65 275 q 81 275 72 275 q 96 275 89 275 l 96 231 q 115 102 96 149 q 167 37 133 56 q 244 18 201 18 q 358 60 313 18 q 404 207 404 101 q 384 311 404 275 q 325 368 364 347 q 232 410 286 389 q 153 449 190 426 q 92 510 115 471 q 69 615 69 550 q 88 728 69 682 q 146 797 106 774 q 250 821 186 821 q 381 774 333 821 q 428 646 428 728 l 428 561 q 413 561 421 561 q 397 561 406 561 l 397 643 q 358 754 397 714 q 250 794 319 794 q 136 750 172 794 q 100 617 100 706 q 123 522 100 557 q 182 466 146 486 q 258 431 218 446 q 361 380 322 406 q 418 315 400 354 q 436 208 436 276 q 411 81 436 128 q 343 13 386 33 q 244 -8 300 -8 m 213 -199 q 235 -155 225 -176 q 246 -118 246 -133 q 241 -105 246 -110 q 231 -94 236 -100 q 225 -78 225 -89 q 233 -61 225 -68 q 250 -54 240 -54 q 270 -64 263 -54 q 278 -85 278 -74 q 271 -119 278 -99 q 253 -160 264 -139 q 231 -199 243 -181 l 213 -199 z "},"Ш":{"ha":810,"x_min":68,"x_max":742,"o":"m 68 0 l 68 821 l 103 821 l 103 26 l 388 26 l 388 821 l 422 821 l 422 26 l 707 26 l 707 821 l 742 821 l 742 0 l 68 0 z "},"Щ":{"ha":822,"x_min":68,"x_max":761,"o":"m 728 -104 l 728 0 l 68 0 l 68 821 l 103 821 l 103 26 l 388 26 l 388 821 l 422 821 l 422 26 l 707 26 l 707 821 l 742 821 l 742 25 l 761 25 l 761 -104 l 728 -104 z "},"Ь":{"ha":490,"x_min":68,"x_max":422,"o":"m 68 0 l 68 818 l 101 818 l 101 604 l 250 604 q 356 583 319 604 q 408 521 393 561 q 422 422 422 481 l 422 196 q 414 110 422 147 q 387 49 406 74 q 335 13 368 25 q 254 0 303 0 l 68 0 m 101 25 l 251 25 q 340 48 311 25 q 379 110 369 71 q 389 199 389 150 l 389 413 q 381 492 389 454 q 342 555 372 531 q 249 579 313 579 l 101 579 l 101 25 z "},"T":{"ha":363,"x_min":17,"x_max":346,"o":"m 163 0 l 163 794 l 17 794 l 17 821 l 346 821 l 346 794 l 196 794 l 196 0 l 163 0 z "},"Ŧ":{"ha":397,"x_min":17,"x_max":346,"o":"m 88 597 l 88 626 l 303 626 l 303 597 l 88 597 m 163 0 l 163 794 l 17 794 l 17 821 l 346 821 l 346 794 l 196 794 l 196 0 l 163 0 z "},"Ť":{"ha":363,"x_min":17,"x_max":346,"o":"m 163 0 l 163 794 l 17 794 l 17 821 l 346 821 l 346 794 l 196 794 l 196 0 l 163 0 m 164 872 l 53 972 l 83 972 l 181 896 l 279 974 l 310 974 l 199 872 l 164 872 z "},"Ţ":{"ha":363,"x_min":17,"x_max":346,"o":"m 163 0 l 163 794 l 17 794 l 17 821 l 346 821 l 346 794 l 196 794 l 196 0 l 163 0 m 175 -186 q 143 -181 157 -186 q 118 -169 129 -175 l 126 -150 q 149 -160 133 -156 q 174 -165 165 -165 q 220 -151 206 -165 q 235 -119 235 -137 q 221 -87 235 -99 q 185 -75 207 -75 q 164 -79 175 -75 q 143 -90 153 -83 l 126 -81 l 171 0 l 194 0 l 156 -69 l 149 -68 q 170 -59 158 -61 q 192 -57 182 -57 q 242 -76 224 -57 q 260 -115 260 -94 q 238 -167 260 -147 q 175 -186 215 -186 z "},"Ț":{"ha":363,"x_min":17,"x_max":346,"o":"m 163 0 l 163 794 l 17 794 l 17 821 l 346 821 l 346 794 l 196 794 l 196 0 l 163 0 m 143 -199 q 166 -155 156 -176 q 176 -118 176 -133 q 172 -105 176 -110 q 161 -94 167 -100 q 156 -78 156 -89 q 163 -61 156 -68 q 181 -54 171 -54 q 201 -64 193 -54 q 208 -85 208 -74 q 201 -119 208 -99 q 184 -160 194 -139 q 161 -199 174 -181 l 143 -199 z "},"Т":{"ha":363,"x_min":17,"x_max":346,"o":"m 163 0 l 163 794 l 17 794 l 17 821 l 346 821 l 346 794 l 196 794 l 196 0 l 163 0 z "},"Þ":{"ha":513,"x_min":68,"x_max":444,"o":"m 68 0 l 68 821 l 103 821 l 103 658 l 296 658 q 401 628 357 658 q 444 524 444 597 l 444 367 q 431 289 444 325 q 380 230 418 253 q 267 207 342 207 l 103 207 l 103 0 l 68 0 m 103 232 l 264 232 q 374 267 338 232 q 411 372 411 303 l 411 515 q 376 605 411 576 q 294 633 340 633 l 103 633 l 103 232 z "},"Ц":{"ha":515,"x_min":68,"x_max":447,"o":"m 414 -104 l 414 0 l 68 0 l 68 821 l 104 821 l 104 28 l 392 28 l 392 821 l 428 821 l 428 26 l 447 26 l 447 -104 l 414 -104 z "},"Ћ":{"ha":607,"x_min":28,"x_max":539,"o":"m 185 0 l 185 793 l 28 793 l 28 821 l 378 821 l 378 793 l 219 793 l 219 525 q 270 577 233 553 q 368 601 307 601 q 482 575 446 601 q 528 506 518 549 q 539 414 539 463 l 539 0 l 504 0 l 504 415 q 494 497 504 461 q 455 553 485 533 q 364 574 425 574 q 262 541 296 574 q 219 476 228 508 l 219 0 l 185 0 z "},"U":{"ha":581,"x_min":100,"x_max":481,"o":"m 290 -17 q 219 -10 253 -17 q 158 14 185 -4 q 115 66 131 32 q 100 156 100 100 l 100 821 l 133 821 l 133 157 q 156 63 133 94 q 213 19 178 31 q 290 8 249 8 q 368 19 332 8 q 426 63 404 31 q 449 157 449 94 l 449 821 l 481 821 l 481 156 q 465 66 481 100 q 424 14 450 32 q 363 -10 397 -4 q 290 -17 328 -17 z "},"У":{"ha":400,"x_min":14,"x_max":386,"o":"m 75 -6 q 49 -3 61 -6 q 28 0 38 -1 l 28 25 q 45 22 35 24 q 69 21 56 21 q 106 28 86 21 q 143 53 125 35 q 165 86 156 67 q 179 132 174 106 l 14 821 l 50 821 l 201 181 l 199 181 l 353 821 l 386 821 l 226 158 q 172 32 204 69 q 75 -6 140 -6 z "},"Ú":{"ha":581,"x_min":100,"x_max":481,"o":"m 290 -17 q 219 -10 253 -17 q 158 14 185 -4 q 115 66 131 32 q 100 156 100 100 l 100 821 l 133 821 l 133 157 q 156 63 133 94 q 213 19 178 31 q 290 8 249 8 q 368 19 332 8 q 426 63 404 31 q 449 157 449 94 l 449 821 l 481 821 l 481 156 q 465 66 481 100 q 424 14 450 32 q 363 -10 397 -4 q 290 -17 328 -17 m 236 879 l 349 983 l 396 983 l 267 879 l 236 879 z "},"Ǔ":{"ha":581,"x_min":100,"x_max":481,"o":"m 290 -17 q 219 -10 253 -17 q 158 14 185 -4 q 115 66 131 32 q 100 156 100 100 l 100 821 l 133 821 l 133 157 q 156 63 133 94 q 213 19 178 31 q 290 8 249 8 q 368 19 332 8 q 426 63 404 31 q 449 157 449 94 l 449 821 l 481 821 l 481 156 q 465 66 481 100 q 424 14 450 32 q 363 -10 397 -4 q 290 -17 328 -17 m 272 872 l 161 972 l 192 972 l 289 896 l 388 974 l 418 974 l 307 872 l 272 872 z "},"Û":{"ha":581,"x_min":100,"x_max":481,"o":"m 290 -17 q 219 -10 253 -17 q 158 14 185 -4 q 115 66 131 32 q 100 156 100 100 l 100 821 l 133 821 l 133 157 q 156 63 133 94 q 213 19 178 31 q 290 8 249 8 q 368 19 332 8 q 426 63 404 31 q 449 157 449 94 l 449 821 l 481 821 l 481 156 q 465 66 481 100 q 424 14 450 32 q 363 -10 397 -4 q 290 -17 328 -17 m 154 872 l 272 986 l 307 986 l 425 872 l 396 872 l 289 963 l 185 872 l 154 872 z "},"Ü":{"ha":581,"x_min":100,"x_max":481,"o":"m 290 -17 q 219 -10 253 -17 q 158 14 185 -4 q 115 66 131 32 q 100 156 100 100 l 100 821 l 133 821 l 133 157 q 156 63 133 94 q 213 19 178 31 q 290 8 249 8 q 368 19 332 8 q 426 63 404 31 q 449 157 449 94 l 449 821 l 481 821 l 481 156 q 465 66 481 100 q 424 14 450 32 q 363 -10 397 -4 q 290 -17 328 -17 m 235 893 q 213 902 222 893 q 204 924 204 911 q 213 944 204 936 q 235 953 222 953 q 256 944 247 953 q 265 924 265 936 q 256 902 265 911 q 235 893 247 893 m 346 893 q 324 902 333 893 q 315 924 315 911 q 324 944 315 936 q 346 953 333 953 q 367 944 358 953 q 376 924 376 936 q 367 902 376 911 q 346 893 358 893 z "},"Ǘ":{"ha":581,"x_min":100,"x_max":481,"o":"m 290 -17 q 219 -10 253 -17 q 158 14 185 -4 q 115 66 131 32 q 100 156 100 100 l 100 821 l 133 821 l 133 157 q 156 63 133 94 q 213 19 178 31 q 290 8 249 8 q 368 19 332 8 q 426 63 404 31 q 449 157 449 94 l 449 821 l 481 821 l 481 156 q 465 66 481 100 q 424 14 450 32 q 363 -10 397 -4 q 290 -17 328 -17 m 235 893 q 213 902 222 893 q 204 924 204 911 q 213 944 204 936 q 235 953 222 953 q 256 944 247 953 q 265 924 265 936 q 256 902 265 911 q 235 893 247 893 m 346 893 q 324 902 333 893 q 315 924 315 911 q 324 944 315 936 q 346 953 333 953 q 367 944 358 953 q 376 924 376 936 q 367 902 376 911 q 346 893 358 893 m 236 982 l 349 1086 l 396 1086 l 267 982 l 236 982 z "},"Ǚ":{"ha":581,"x_min":100,"x_max":481,"o":"m 290 -17 q 219 -10 253 -17 q 158 14 185 -4 q 115 66 131 32 q 100 156 100 100 l 100 821 l 133 821 l 133 157 q 156 63 133 94 q 213 19 178 31 q 290 8 249 8 q 368 19 332 8 q 426 63 404 31 q 449 157 449 94 l 449 821 l 481 821 l 481 156 q 465 66 481 100 q 424 14 450 32 q 363 -10 397 -4 q 290 -17 328 -17 m 235 893 q 213 902 222 893 q 204 924 204 911 q 213 944 204 936 q 235 953 222 953 q 256 944 247 953 q 265 924 265 936 q 256 902 265 911 q 235 893 247 893 m 346 893 q 324 902 333 893 q 315 924 315 911 q 324 944 315 936 q 346 953 333 953 q 367 944 358 953 q 376 924 376 936 q 367 902 376 911 q 346 893 358 893 m 272 975 l 161 1075 l 192 1075 l 289 999 l 388 1076 l 418 1076 l 307 975 l 272 975 z "},"Ǜ":{"ha":581,"x_min":100,"x_max":481,"o":"m 290 -17 q 219 -10 253 -17 q 158 14 185 -4 q 115 66 131 32 q 100 156 100 100 l 100 821 l 133 821 l 133 157 q 156 63 133 94 q 213 19 178 31 q 290 8 249 8 q 368 19 332 8 q 426 63 404 31 q 449 157 449 94 l 449 821 l 481 821 l 481 156 q 465 66 481 100 q 424 14 450 32 q 363 -10 397 -4 q 290 -17 328 -17 m 235 893 q 213 902 222 893 q 204 924 204 911 q 213 944 204 936 q 235 953 222 953 q 256 944 247 953 q 265 924 265 936 q 256 902 265 911 q 235 893 247 893 m 346 893 q 324 902 333 893 q 315 924 315 911 q 324 944 315 936 q 346 953 333 953 q 367 944 358 953 q 376 924 376 936 q 367 902 376 911 q 346 893 358 893 m 314 982 l 185 1086 l 232 1086 l 344 982 l 314 982 z "},"Ǖ":{"ha":581,"x_min":100,"x_max":481,"o":"m 290 -17 q 219 -10 253 -17 q 158 14 185 -4 q 115 66 131 32 q 100 156 100 100 l 100 821 l 133 821 l 133 157 q 156 63 133 94 q 213 19 178 31 q 290 8 249 8 q 368 19 332 8 q 426 63 404 31 q 449 157 449 94 l 449 821 l 481 821 l 481 156 q 465 66 481 100 q 424 14 450 32 q 363 -10 397 -4 q 290 -17 328 -17 m 235 893 q 213 902 222 893 q 204 924 204 911 q 213 944 204 936 q 235 953 222 953 q 256 944 247 953 q 265 924 265 936 q 256 902 265 911 q 235 893 247 893 m 346 893 q 324 902 333 893 q 315 924 315 911 q 324 944 315 936 q 346 953 333 953 q 367 944 358 953 q 376 924 376 936 q 367 902 376 911 q 346 893 358 893 m 171 1013 l 171 1036 l 408 1036 l 408 1013 l 171 1013 z "},"Ụ":{"ha":581,"x_min":100,"x_max":481,"o":"m 290 -17 q 219 -10 253 -17 q 158 14 185 -4 q 115 66 131 32 q 100 156 100 100 l 100 821 l 133 821 l 133 157 q 156 63 133 94 q 213 19 178 31 q 290 8 249 8 q 368 19 332 8 q 426 63 404 31 q 449 157 449 94 l 449 821 l 481 821 l 481 156 q 465 66 481 100 q 424 14 450 32 q 363 -10 397 -4 q 290 -17 328 -17 m 290 -128 q 267 -119 276 -128 q 258 -97 258 -110 q 267 -76 258 -85 q 290 -67 276 -67 q 313 -76 303 -67 q 322 -97 322 -85 q 313 -119 322 -110 q 290 -128 303 -128 z "},"Ù":{"ha":581,"x_min":100,"x_max":481,"o":"m 290 -17 q 219 -10 253 -17 q 158 14 185 -4 q 115 66 131 32 q 100 156 100 100 l 100 821 l 133 821 l 133 157 q 156 63 133 94 q 213 19 178 31 q 290 8 249 8 q 368 19 332 8 q 426 63 404 31 q 449 157 449 94 l 449 821 l 481 821 l 481 156 q 465 66 481 100 q 424 14 450 32 q 363 -10 397 -4 q 290 -17 328 -17 m 314 879 l 185 983 l 232 983 l 344 879 l 314 879 z "},"Ủ":{"ha":581,"x_min":100,"x_max":481,"o":"m 290 -17 q 219 -10 253 -17 q 158 14 185 -4 q 115 66 131 32 q 100 156 100 100 l 100 821 l 133 821 l 133 157 q 156 63 133 94 q 213 19 178 31 q 290 8 249 8 q 368 19 332 8 q 426 63 404 31 q 449 157 449 94 l 449 821 l 481 821 l 481 156 q 465 66 481 100 q 424 14 450 32 q 363 -10 397 -4 q 290 -17 328 -17 m 278 869 l 278 896 q 294 925 278 915 q 328 944 311 935 q 344 974 344 954 l 344 978 q 333 1007 344 994 q 294 1019 321 1019 q 251 985 260 1019 l 228 990 q 250 1027 233 1014 q 297 1040 267 1040 q 351 1024 333 1040 q 369 976 369 1008 l 369 974 q 352 932 369 944 q 317 912 335 919 q 300 888 300 904 l 300 869 l 278 869 z "},"Ư":{"ha":581,"x_min":100,"x_max":561,"o":"m 290 -17 q 219 -10 253 -17 q 158 14 185 -4 q 115 66 131 32 q 100 156 100 100 l 100 821 l 133 821 l 133 157 q 156 63 133 94 q 213 19 178 31 q 290 8 249 8 q 368 19 332 8 q 426 63 404 31 q 449 157 449 94 l 449 821 l 481 821 l 481 156 q 465 66 481 100 q 424 14 450 32 q 363 -10 397 -4 q 290 -17 328 -17 m 454 797 l 449 821 l 461 821 q 532 882 532 821 l 532 903 l 561 903 l 561 889 q 533 821 561 846 q 454 797 504 796 z "},"Ứ":{"ha":581,"x_min":100,"x_max":561,"o":"m 290 -17 q 219 -10 253 -17 q 158 14 185 -4 q 115 66 131 32 q 100 156 100 100 l 100 821 l 133 821 l 133 157 q 156 63 133 94 q 213 19 178 31 q 290 8 249 8 q 368 19 332 8 q 426 63 404 31 q 449 157 449 94 l 449 821 l 481 821 l 481 156 q 465 66 481 100 q 424 14 450 32 q 363 -10 397 -4 q 290 -17 328 -17 m 454 797 l 449 821 l 461 821 q 532 882 532 821 l 532 903 l 561 903 l 561 889 q 533 821 561 846 q 454 797 504 796 m 236 879 l 349 983 l 396 983 l 267 879 l 236 879 z "},"Ự":{"ha":581,"x_min":100,"x_max":561,"o":"m 290 -17 q 219 -10 253 -17 q 158 14 185 -4 q 115 66 131 32 q 100 156 100 100 l 100 821 l 133 821 l 133 157 q 156 63 133 94 q 213 19 178 31 q 290 8 249 8 q 368 19 332 8 q 426 63 404 31 q 449 157 449 94 l 449 821 l 481 821 l 481 156 q 465 66 481 100 q 424 14 450 32 q 363 -10 397 -4 q 290 -17 328 -17 m 454 797 l 449 821 l 461 821 q 532 882 532 821 l 532 903 l 561 903 l 561 889 q 533 821 561 846 q 454 797 504 796 m 290 -128 q 267 -119 276 -128 q 258 -97 258 -110 q 267 -76 258 -85 q 290 -67 276 -67 q 313 -76 303 -67 q 322 -97 322 -85 q 313 -119 322 -110 q 290 -128 303 -128 z "},"Ừ":{"ha":581,"x_min":100,"x_max":561,"o":"m 290 -17 q 219 -10 253 -17 q 158 14 185 -4 q 115 66 131 32 q 100 156 100 100 l 100 821 l 133 821 l 133 157 q 156 63 133 94 q 213 19 178 31 q 290 8 249 8 q 368 19 332 8 q 426 63 404 31 q 449 157 449 94 l 449 821 l 481 821 l 481 156 q 465 66 481 100 q 424 14 450 32 q 363 -10 397 -4 q 290 -17 328 -17 m 454 797 l 449 821 l 461 821 q 532 882 532 821 l 532 903 l 561 903 l 561 889 q 533 821 561 846 q 454 797 504 796 m 314 879 l 185 983 l 232 983 l 344 879 l 314 879 z "},"Ử":{"ha":581,"x_min":100,"x_max":561,"o":"m 290 -17 q 219 -10 253 -17 q 158 14 185 -4 q 115 66 131 32 q 100 156 100 100 l 100 821 l 133 821 l 133 157 q 156 63 133 94 q 213 19 178 31 q 290 8 249 8 q 368 19 332 8 q 426 63 404 31 q 449 157 449 94 l 449 821 l 481 821 l 481 156 q 465 66 481 100 q 424 14 450 32 q 363 -10 397 -4 q 290 -17 328 -17 m 454 797 l 449 821 l 461 821 q 532 882 532 821 l 532 903 l 561 903 l 561 889 q 533 821 561 846 q 454 797 504 796 m 278 869 l 278 896 q 294 925 278 915 q 328 944 311 935 q 344 974 344 954 l 344 978 q 333 1007 344 994 q 294 1019 321 1019 q 251 985 260 1019 l 228 990 q 250 1027 233 1014 q 297 1040 267 1040 q 351 1024 333 1040 q 369 976 369 1008 l 369 974 q 352 932 369 944 q 317 912 335 919 q 300 888 300 904 l 300 869 l 278 869 z "},"Ữ":{"ha":581,"x_min":100,"x_max":561,"o":"m 290 -17 q 219 -10 253 -17 q 158 14 185 -4 q 115 66 131 32 q 100 156 100 100 l 100 821 l 133 821 l 133 157 q 156 63 133 94 q 213 19 178 31 q 290 8 249 8 q 368 19 332 8 q 426 63 404 31 q 449 157 449 94 l 449 821 l 481 821 l 481 156 q 465 66 481 100 q 424 14 450 32 q 363 -10 397 -4 q 290 -17 328 -17 m 454 797 l 449 821 l 461 821 q 532 882 532 821 l 532 903 l 561 903 l 561 889 q 533 821 561 846 q 454 797 504 796 m 346 890 q 319 895 329 890 q 289 914 308 900 q 265 931 279 921 q 235 940 251 940 q 206 929 218 940 q 190 892 194 918 l 165 892 q 186 944 168 924 q 235 964 204 964 q 266 956 251 964 q 296 938 281 949 q 321 922 310 928 q 346 915 332 915 q 374 926 363 915 q 390 963 386 936 l 415 963 q 405 925 414 942 q 381 899 396 908 q 346 890 367 890 z "},"Ű":{"ha":581,"x_min":100,"x_max":481,"o":"m 290 -17 q 219 -10 253 -17 q 158 14 185 -4 q 115 66 131 32 q 100 156 100 100 l 100 821 l 133 821 l 133 157 q 156 63 133 94 q 213 19 178 31 q 290 8 249 8 q 368 19 332 8 q 426 63 404 31 q 449 157 449 94 l 449 821 l 481 821 l 481 156 q 465 66 481 100 q 424 14 450 32 q 363 -10 397 -4 q 290 -17 328 -17 m 233 872 l 283 993 l 325 993 l 254 872 l 233 872 m 308 872 l 358 993 l 400 993 l 329 872 l 308 872 z "},"Ū":{"ha":581,"x_min":100,"x_max":481,"o":"m 290 -17 q 219 -10 253 -17 q 158 14 185 -4 q 115 66 131 32 q 100 156 100 100 l 100 821 l 133 821 l 133 157 q 156 63 133 94 q 213 19 178 31 q 290 8 249 8 q 368 19 332 8 q 426 63 404 31 q 449 157 449 94 l 449 821 l 481 821 l 481 156 q 465 66 481 100 q 424 14 450 32 q 363 -10 397 -4 q 290 -17 328 -17 m 171 910 l 171 933 l 408 933 l 408 910 l 171 910 z "},"Ų":{"ha":581,"x_min":100,"x_max":481,"o":"m 290 -17 q 219 -10 253 -17 q 158 14 185 -4 q 115 66 131 32 q 100 156 100 100 l 100 821 l 133 821 l 133 157 q 156 63 133 94 q 213 19 178 31 q 290 8 249 8 q 368 19 332 8 q 426 63 404 31 q 449 157 449 94 l 449 821 l 481 821 l 481 156 q 465 66 481 100 q 424 14 450 32 q 363 -10 397 -4 q 290 -17 328 -17 m 306 -179 q 249 -159 274 -179 q 224 -104 224 -139 q 249 -38 224 -64 q 300 0 275 -12 l 329 0 q 273 -46 293 -19 q 253 -100 253 -72 q 271 -142 253 -128 q 307 -156 289 -156 q 331 -152 321 -156 q 347 -146 342 -149 l 356 -165 q 334 -175 347 -171 q 306 -179 321 -179 z "},"Ů":{"ha":581,"x_min":100,"x_max":481,"o":"m 290 -17 q 219 -10 253 -17 q 158 14 185 -4 q 115 66 131 32 q 100 156 100 100 l 100 821 l 133 821 l 133 157 q 156 63 133 94 q 213 19 178 31 q 290 8 249 8 q 368 19 332 8 q 426 63 404 31 q 449 157 449 94 l 449 821 l 481 821 l 481 156 q 465 66 481 100 q 424 14 450 32 q 363 -10 397 -4 q 290 -17 328 -17 m 289 846 q 216 874 244 846 q 188 942 188 903 q 216 1010 188 982 q 289 1039 244 1039 q 365 1010 338 1039 q 392 942 392 982 q 361 874 392 903 q 289 846 331 846 m 289 871 q 344 891 324 871 q 364 942 364 911 q 344 994 364 975 q 289 1014 324 1014 q 235 994 254 1014 q 215 942 215 975 q 235 891 215 911 q 289 871 254 871 z "},"Ў":{"ha":400,"x_min":14,"x_max":386,"o":"m 75 -6 q 49 -3 61 -6 q 28 0 38 -1 l 28 25 q 45 22 35 24 q 69 21 56 21 q 106 28 86 21 q 143 53 125 35 q 165 86 156 67 q 179 132 174 106 l 14 821 l 50 821 l 201 181 l 199 181 l 353 821 l 386 821 l 226 158 q 172 32 204 69 q 75 -6 140 -6 m 199 875 q 128 894 154 875 q 90 939 101 913 q 76 988 78 965 l 103 988 q 135 921 110 943 q 199 899 161 899 q 265 920 239 899 q 296 988 290 942 l 322 988 q 307 939 319 965 q 269 894 294 913 q 199 875 243 875 z "},"Ũ":{"ha":581,"x_min":100,"x_max":481,"o":"m 290 -17 q 219 -10 253 -17 q 158 14 185 -4 q 115 66 131 32 q 100 156 100 100 l 100 821 l 133 821 l 133 157 q 156 63 133 94 q 213 19 178 31 q 290 8 249 8 q 368 19 332 8 q 426 63 404 31 q 449 157 449 94 l 449 821 l 481 821 l 481 156 q 465 66 481 100 q 424 14 450 32 q 363 -10 397 -4 q 290 -17 328 -17 m 346 890 q 319 895 329 890 q 289 914 308 900 q 265 931 279 921 q 235 940 251 940 q 206 929 218 940 q 190 892 194 918 l 165 892 q 186 944 168 924 q 235 964 204 964 q 266 956 251 964 q 296 938 281 949 q 321 922 310 928 q 346 915 332 915 q 374 926 363 915 q 390 963 386 936 l 415 963 q 405 925 414 942 q 381 899 396 908 q 346 890 367 890 z "},"V":{"ha":431,"x_min":35,"x_max":397,"o":"m 201 0 l 35 821 l 65 821 l 219 71 l 214 71 l 365 821 l 397 821 l 229 0 l 201 0 z "},"В":{"ha":578,"x_min":108,"x_max":492,"o":"m 108 0 l 108 821 l 335 821 q 440 791 396 821 q 485 686 485 761 l 485 582 q 473 512 485 542 q 443 464 461 482 q 392 438 421 443 q 346 432 363 432 l 346 436 q 406 430 378 436 q 451 406 435 424 q 481 356 471 385 q 492 290 492 328 l 492 167 q 470 59 492 94 q 410 12 449 24 q 322 0 372 0 l 108 0 m 142 25 l 321 25 q 394 35 363 25 q 442 77 425 46 q 458 171 458 108 l 458 293 q 414 393 458 368 q 304 418 369 418 l 142 418 l 142 25 m 142 444 l 303 444 q 414 481 376 444 q 451 578 451 517 l 451 681 q 416 767 451 739 q 333 796 381 796 l 142 796 l 142 444 z "},"W":{"ha":713,"x_min":35,"x_max":678,"o":"m 168 0 l 35 821 l 65 821 l 189 58 l 344 821 l 368 821 l 521 60 l 647 821 l 678 821 l 544 0 l 507 0 l 357 731 l 208 0 l 168 0 z "},"Ẃ":{"ha":713,"x_min":35,"x_max":678,"o":"m 168 0 l 35 821 l 65 821 l 189 58 l 344 821 l 368 821 l 521 60 l 647 821 l 678 821 l 544 0 l 507 0 l 357 731 l 208 0 l 168 0 m 303 879 l 415 983 l 463 983 l 333 879 l 303 879 z "},"Ŵ":{"ha":713,"x_min":35,"x_max":678,"o":"m 168 0 l 35 821 l 65 821 l 189 58 l 344 821 l 368 821 l 521 60 l 647 821 l 678 821 l 544 0 l 507 0 l 357 731 l 208 0 l 168 0 m 221 872 l 339 986 l 374 986 l 492 872 l 463 872 l 356 963 l 251 872 l 221 872 z "},"Ẅ":{"ha":713,"x_min":35,"x_max":678,"o":"m 168 0 l 35 821 l 65 821 l 189 58 l 344 821 l 368 821 l 521 60 l 647 821 l 678 821 l 544 0 l 507 0 l 357 731 l 208 0 l 168 0 m 301 893 q 280 902 289 893 q 271 924 271 911 q 280 944 271 936 q 301 953 289 953 q 323 944 314 953 q 332 924 332 936 q 323 902 332 911 q 301 893 314 893 m 413 893 q 391 902 400 893 q 382 924 382 911 q 391 944 382 936 q 413 953 400 953 q 434 944 425 953 q 443 924 443 936 q 434 902 443 911 q 413 893 425 893 z "},"Ẁ":{"ha":713,"x_min":35,"x_max":678,"o":"m 168 0 l 35 821 l 65 821 l 189 58 l 344 821 l 368 821 l 521 60 l 647 821 l 678 821 l 544 0 l 507 0 l 357 731 l 208 0 l 168 0 m 381 879 l 251 983 l 299 983 l 411 879 l 381 879 z "},"X":{"ha":397,"x_min":31,"x_max":367,"o":"m 31 0 l 169 414 l 44 821 l 76 821 l 199 422 l 336 821 l 367 821 l 228 413 l 364 0 l 331 0 l 199 400 l 64 0 l 31 0 z "},"Y":{"ha":411,"x_min":29,"x_max":381,"o":"m 182 0 l 182 368 l 29 821 l 67 821 l 197 417 l 200 407 l 203 417 l 344 821 l 381 821 l 215 367 l 215 0 l 182 0 z "},"Ý":{"ha":411,"x_min":29,"x_max":381,"o":"m 182 0 l 182 368 l 29 821 l 67 821 l 197 417 l 200 407 l 203 417 l 344 821 l 381 821 l 215 367 l 215 0 l 182 0 m 151 879 l 264 983 l 311 983 l 182 879 l 151 879 z "},"Ѣ":{"ha":546,"x_min":21,"x_max":478,"o":"m 124 0 l 124 818 l 157 818 l 157 604 l 306 604 q 411 583 374 604 q 463 521 449 561 q 478 422 478 481 l 478 196 q 469 110 478 147 q 442 49 461 74 q 391 13 424 25 q 308 0 358 0 l 124 0 m 157 25 l 306 25 q 395 48 365 25 q 435 110 425 71 q 444 199 444 150 l 444 413 q 436 492 444 454 q 398 555 428 531 q 303 579 368 579 l 157 579 l 157 25 m 21 721 l 21 750 l 408 750 l 408 721 l 21 721 z "},"Ŷ":{"ha":411,"x_min":29,"x_max":381,"o":"m 182 0 l 182 368 l 29 821 l 67 821 l 197 417 l 200 407 l 203 417 l 344 821 l 381 821 l 215 367 l 215 0 l 182 0 m 69 872 l 188 986 l 222 986 l 340 872 l 311 872 l 204 963 l 100 872 l 69 872 z "},"Ÿ":{"ha":411,"x_min":29,"x_max":381,"o":"m 182 0 l 182 368 l 29 821 l 67 821 l 197 417 l 200 407 l 203 417 l 344 821 l 381 821 l 215 367 l 215 0 l 182 0 m 150 893 q 128 902 138 893 q 119 924 119 911 q 128 944 119 936 q 150 953 138 953 q 172 944 163 953 q 181 924 181 936 q 172 902 181 911 q 150 893 163 893 m 261 893 q 240 902 249 893 q 231 924 231 911 q 240 944 231 936 q 261 953 249 953 q 283 944 274 953 q 292 924 292 936 q 283 902 292 911 q 261 893 274 893 z "},"Ỵ":{"ha":411,"x_min":29,"x_max":381,"o":"m 182 0 l 182 368 l 29 821 l 67 821 l 197 417 l 200 407 l 203 417 l 344 821 l 381 821 l 215 367 l 215 0 l 182 0 m 206 -128 q 183 -119 192 -128 q 174 -97 174 -110 q 183 -76 174 -85 q 206 -67 192 -67 q 228 -76 218 -67 q 238 -97 238 -85 q 228 -119 238 -110 q 206 -128 218 -128 z "},"Ы":{"ha":631,"x_min":68,"x_max":561,"o":"m 68 0 l 68 818 l 101 818 l 101 604 l 250 604 q 356 583 319 604 q 408 521 393 561 q 422 422 422 481 l 422 196 q 414 110 422 147 q 387 49 406 74 q 335 13 368 25 q 254 0 303 0 l 68 0 m 101 25 l 251 25 q 340 48 311 25 q 379 110 369 71 q 389 199 389 150 l 389 413 q 381 492 389 454 q 342 555 372 531 q 249 579 313 579 l 101 579 l 101 25 m 528 0 l 528 821 l 561 821 l 561 0 l 528 0 z "},"Ỳ":{"ha":411,"x_min":29,"x_max":381,"o":"m 182 0 l 182 368 l 29 821 l 67 821 l 197 417 l 200 407 l 203 417 l 344 821 l 381 821 l 215 367 l 215 0 l 182 0 m 229 879 l 100 983 l 147 983 l 260 879 l 229 879 z "},"Ỷ":{"ha":411,"x_min":29,"x_max":381,"o":"m 182 0 l 182 368 l 29 821 l 67 821 l 197 417 l 200 407 l 203 417 l 344 821 l 381 821 l 215 367 l 215 0 l 182 0 m 193 869 l 193 896 q 210 925 193 915 q 243 944 226 935 q 260 974 260 954 l 260 978 q 248 1007 260 994 q 210 1019 236 1019 q 167 985 175 1019 l 143 990 q 165 1027 149 1014 q 213 1040 182 1040 q 267 1024 249 1040 q 285 976 285 1008 l 285 974 q 267 932 285 944 q 233 912 250 919 q 215 888 215 904 l 215 869 l 193 869 z "},"Ї":{"ha":250,"x_min":39,"x_max":211,"o":"m 108 0 l 108 821 l 142 821 l 142 0 l 108 0 m 69 893 q 48 902 57 893 q 39 924 39 911 q 48 944 39 936 q 69 953 57 953 q 91 944 82 953 q 100 924 100 936 q 91 902 100 911 q 69 893 82 893 m 181 893 q 159 902 168 893 q 150 924 150 911 q 159 944 150 936 q 181 953 168 953 q 202 944 193 953 q 211 924 211 936 q 202 902 211 911 q 181 893 193 893 z "},"Ỹ":{"ha":411,"x_min":29,"x_max":381,"o":"m 182 0 l 182 368 l 29 821 l 67 821 l 197 417 l 200 407 l 203 417 l 344 821 l 381 821 l 215 367 l 215 0 l 182 0 m 261 890 q 234 895 244 890 q 204 914 224 900 q 181 931 194 921 q 150 940 167 940 q 122 929 133 940 q 106 892 110 918 l 81 892 q 101 944 83 924 q 150 964 119 964 q 181 956 167 964 q 211 938 196 949 q 236 922 225 928 q 261 915 247 915 q 290 926 278 915 q 306 963 301 936 l 331 963 q 320 925 329 942 q 297 899 311 908 q 261 890 282 890 z "},"Ѫ":{"ha":913,"x_min":35,"x_max":878,"o":"m 65 0 l 156 314 q 181 379 165 347 q 222 431 196 411 q 292 451 249 451 l 415 451 l 35 793 l 35 821 l 878 821 l 878 793 l 497 451 l 617 451 q 693 431 667 451 q 733 379 719 411 q 757 314 747 347 l 847 0 l 813 0 l 726 310 q 690 392 714 354 q 613 431 665 429 l 472 431 l 472 0 l 440 0 l 440 431 l 300 431 q 223 392 247 429 q 186 310 199 354 l 100 0 l 65 0 m 457 456 l 833 793 l 78 793 l 457 456 z "},"Z":{"ha":368,"x_min":31,"x_max":339,"o":"m 31 0 l 31 31 l 300 794 l 47 794 l 47 821 l 339 821 l 339 790 l 64 26 l 339 26 l 339 0 l 31 0 z "},"Ź":{"ha":368,"x_min":31,"x_max":339,"o":"m 31 0 l 31 31 l 300 794 l 47 794 l 47 821 l 339 821 l 339 790 l 64 26 l 339 26 l 339 0 l 31 0 m 149 879 l 261 983 l 308 983 l 179 879 l 149 879 z "},"Ž":{"ha":368,"x_min":31,"x_max":339,"o":"m 31 0 l 31 31 l 300 794 l 47 794 l 47 821 l 339 821 l 339 790 l 64 26 l 339 26 l 339 0 l 31 0 m 185 872 l 74 972 l 104 972 l 201 896 l 300 974 l 331 974 l 219 872 l 185 872 z "},"Ż":{"ha":368,"x_min":31,"x_max":339,"o":"m 31 0 l 31 31 l 300 794 l 47 794 l 47 821 l 339 821 l 339 790 l 64 26 l 339 26 l 339 0 l 31 0 m 203 894 q 181 903 190 894 q 172 925 172 913 q 181 946 172 938 q 203 954 190 954 q 224 946 215 954 q 233 925 233 938 q 224 903 233 913 q 203 894 215 894 z "},"З":{"ha":538,"x_min":67,"x_max":467,"o":"m 267 -11 q 148 17 192 -11 q 85 92 104 44 q 67 194 67 139 l 67 268 l 103 268 l 103 183 q 146 63 103 107 q 267 17 189 19 q 385 60 340 17 q 431 182 431 104 l 431 256 q 385 371 431 329 q 264 415 339 413 l 172 415 l 172 447 l 264 447 q 333 463 300 447 q 389 507 367 478 q 414 555 406 529 q 422 610 422 581 l 422 651 q 385 756 422 713 q 267 799 347 799 q 149 756 186 799 q 111 650 111 713 l 111 590 l 74 590 l 74 639 q 119 776 74 726 q 267 826 165 826 q 414 776 368 826 q 460 639 460 726 l 460 613 q 423 494 460 539 q 333 431 386 450 q 434 365 401 415 q 467 244 467 315 l 467 194 q 449 92 467 139 q 387 17 431 44 q 267 -11 343 -11 z "},"Ж":{"ha":815,"x_min":68,"x_max":749,"o":"m 68 0 l 315 425 l 78 821 l 115 821 l 347 436 l 392 436 l 392 819 l 426 819 l 426 436 l 469 436 l 700 821 l 740 821 l 501 425 l 749 0 l 707 0 l 471 410 l 426 410 l 426 0 l 392 0 l 392 410 l 346 410 l 108 0 l 68 0 z "},"a":{"ha":489,"x_min":71,"x_max":414,"o":"m 215 -10 q 153 -1 186 -10 q 95 41 119 7 q 71 150 71 75 l 71 199 q 115 316 71 272 q 228 396 160 360 q 312 443 278 422 q 364 489 346 464 q 382 551 382 514 l 382 575 q 363 640 382 618 q 315 669 344 661 q 253 676 285 676 q 145 636 171 676 q 119 522 119 596 l 119 464 l 89 464 l 89 525 q 102 616 89 576 q 151 678 115 656 q 253 701 186 701 q 360 682 326 701 q 404 630 394 663 q 414 560 414 597 l 414 0 l 382 0 l 381 93 q 314 15 360 40 q 215 -10 268 -10 m 221 17 q 342 72 303 17 q 381 218 381 128 l 381 469 q 320 417 361 440 q 236 371 279 393 q 139 299 174 336 q 104 194 104 261 l 104 153 q 123 58 104 86 q 169 23 142 29 q 221 17 197 17 z "},"а":{"ha":489,"x_min":71,"x_max":414,"o":"m 215 -10 q 153 -1 186 -10 q 95 41 119 7 q 71 150 71 75 l 71 199 q 115 316 71 272 q 228 396 160 360 q 312 443 278 422 q 364 489 346 464 q 382 551 382 514 l 382 575 q 363 640 382 618 q 315 669 344 661 q 253 676 285 676 q 145 636 171 676 q 119 522 119 596 l 119 464 l 89 464 l 89 525 q 102 616 89 576 q 151 678 115 656 q 253 701 186 701 q 360 682 326 701 q 404 630 394 663 q 414 560 414 597 l 414 0 l 382 0 l 381 93 q 314 15 360 40 q 215 -10 268 -10 m 221 17 q 342 72 303 17 q 381 218 381 128 l 381 469 q 320 417 361 440 q 236 371 279 393 q 139 299 174 336 q 104 194 104 261 l 104 153 q 123 58 104 86 q 169 23 142 29 q 221 17 197 17 z "},"á":{"ha":489,"x_min":71,"x_max":414,"o":"m 215 -10 q 153 -1 186 -10 q 95 41 119 7 q 71 150 71 75 l 71 199 q 115 316 71 272 q 228 396 160 360 q 312 443 278 422 q 364 489 346 464 q 382 551 382 514 l 382 575 q 363 640 382 618 q 315 669 344 661 q 253 676 285 676 q 145 636 171 676 q 119 522 119 596 l 119 464 l 89 464 l 89 525 q 102 616 89 576 q 151 678 115 656 q 253 701 186 701 q 360 682 326 701 q 404 630 394 663 q 414 560 414 597 l 414 0 l 382 0 l 381 93 q 314 15 360 40 q 215 -10 268 -10 m 221 17 q 342 72 303 17 q 381 218 381 128 l 381 469 q 320 417 361 440 q 236 371 279 393 q 139 299 174 336 q 104 194 104 261 l 104 153 q 123 58 104 86 q 169 23 142 29 q 221 17 197 17 m 213 756 l 290 876 l 335 876 l 233 756 l 213 756 z "},"ă":{"ha":489,"x_min":71,"x_max":414,"o":"m 215 -10 q 153 -1 186 -10 q 95 41 119 7 q 71 150 71 75 l 71 199 q 115 316 71 272 q 228 396 160 360 q 312 443 278 422 q 364 489 346 464 q 382 551 382 514 l 382 575 q 363 640 382 618 q 315 669 344 661 q 253 676 285 676 q 145 636 171 676 q 119 522 119 596 l 119 464 l 89 464 l 89 525 q 102 616 89 576 q 151 678 115 656 q 253 701 186 701 q 360 682 326 701 q 404 630 394 663 q 414 560 414 597 l 414 0 l 382 0 l 381 93 q 314 15 360 40 q 215 -10 268 -10 m 221 17 q 342 72 303 17 q 381 218 381 128 l 381 469 q 320 417 361 440 q 236 371 279 393 q 139 299 174 336 q 104 194 104 261 l 104 153 q 123 58 104 86 q 169 23 142 29 q 221 17 197 17 m 251 758 q 181 777 207 758 q 142 822 154 796 q 129 871 131 849 l 156 871 q 188 804 163 826 q 251 782 214 782 q 317 803 292 782 q 349 871 343 825 l 375 871 q 360 822 372 849 q 322 777 347 796 q 251 758 296 758 z "},"ắ":{"ha":489,"x_min":71,"x_max":414,"o":"m 215 -10 q 153 -1 186 -10 q 95 41 119 7 q 71 150 71 75 l 71 199 q 115 316 71 272 q 228 396 160 360 q 312 443 278 422 q 364 489 346 464 q 382 551 382 514 l 382 575 q 363 640 382 618 q 315 669 344 661 q 253 676 285 676 q 145 636 171 676 q 119 522 119 596 l 119 464 l 89 464 l 89 525 q 102 616 89 576 q 151 678 115 656 q 253 701 186 701 q 360 682 326 701 q 404 630 394 663 q 414 560 414 597 l 414 0 l 382 0 l 381 93 q 314 15 360 40 q 215 -10 268 -10 m 221 17 q 342 72 303 17 q 381 218 381 128 l 381 469 q 320 417 361 440 q 236 371 279 393 q 139 299 174 336 q 104 194 104 261 l 104 153 q 123 58 104 86 q 169 23 142 29 q 221 17 197 17 m 251 758 q 181 777 207 758 q 142 822 154 796 q 129 871 131 849 l 156 871 q 188 804 163 826 q 251 782 214 782 q 317 803 292 782 q 349 871 343 825 l 375 871 q 360 822 372 849 q 322 777 347 796 q 251 758 296 758 m 211 888 l 289 1008 l 333 1008 l 232 888 l 211 888 z "},"ặ":{"ha":489,"x_min":71,"x_max":414,"o":"m 215 -10 q 153 -1 186 -10 q 95 41 119 7 q 71 150 71 75 l 71 199 q 115 316 71 272 q 228 396 160 360 q 312 443 278 422 q 364 489 346 464 q 382 551 382 514 l 382 575 q 363 640 382 618 q 315 669 344 661 q 253 676 285 676 q 145 636 171 676 q 119 522 119 596 l 119 464 l 89 464 l 89 525 q 102 616 89 576 q 151 678 115 656 q 253 701 186 701 q 360 682 326 701 q 404 630 394 663 q 414 560 414 597 l 414 0 l 382 0 l 381 93 q 314 15 360 40 q 215 -10 268 -10 m 221 17 q 342 72 303 17 q 381 218 381 128 l 381 469 q 320 417 361 440 q 236 371 279 393 q 139 299 174 336 q 104 194 104 261 l 104 153 q 123 58 104 86 q 169 23 142 29 q 221 17 197 17 m 244 -128 q 222 -119 231 -128 q 213 -97 213 -110 q 222 -76 213 -85 q 244 -67 231 -67 q 267 -76 257 -67 q 276 -97 276 -85 q 267 -119 276 -110 q 244 -128 257 -128 m 251 758 q 181 777 207 758 q 142 822 154 796 q 129 871 131 849 l 156 871 q 188 804 163 826 q 251 782 214 782 q 317 803 292 782 q 349 871 343 825 l 375 871 q 360 822 372 849 q 322 777 347 796 q 251 758 296 758 z "},"ằ":{"ha":489,"x_min":71,"x_max":414,"o":"m 215 -10 q 153 -1 186 -10 q 95 41 119 7 q 71 150 71 75 l 71 199 q 115 316 71 272 q 228 396 160 360 q 312 443 278 422 q 364 489 346 464 q 382 551 382 514 l 382 575 q 363 640 382 618 q 315 669 344 661 q 253 676 285 676 q 145 636 171 676 q 119 522 119 596 l 119 464 l 89 464 l 89 525 q 102 616 89 576 q 151 678 115 656 q 253 701 186 701 q 360 682 326 701 q 404 630 394 663 q 414 560 414 597 l 414 0 l 382 0 l 381 93 q 314 15 360 40 q 215 -10 268 -10 m 221 17 q 342 72 303 17 q 381 218 381 128 l 381 469 q 320 417 361 440 q 236 371 279 393 q 139 299 174 336 q 104 194 104 261 l 104 153 q 123 58 104 86 q 169 23 142 29 q 221 17 197 17 m 251 758 q 181 777 207 758 q 142 822 154 796 q 129 871 131 849 l 156 871 q 188 804 163 826 q 251 782 214 782 q 317 803 292 782 q 349 871 343 825 l 375 871 q 360 822 372 849 q 322 777 347 796 q 251 758 296 758 m 269 888 l 168 1008 l 213 1008 l 290 888 l 269 888 z "},"ẳ":{"ha":489,"x_min":71,"x_max":414,"o":"m 215 -10 q 153 -1 186 -10 q 95 41 119 7 q 71 150 71 75 l 71 199 q 115 316 71 272 q 228 396 160 360 q 312 443 278 422 q 364 489 346 464 q 382 551 382 514 l 382 575 q 363 640 382 618 q 315 669 344 661 q 253 676 285 676 q 145 636 171 676 q 119 522 119 596 l 119 464 l 89 464 l 89 525 q 102 616 89 576 q 151 678 115 656 q 253 701 186 701 q 360 682 326 701 q 404 630 394 663 q 414 560 414 597 l 414 0 l 382 0 l 381 93 q 314 15 360 40 q 215 -10 268 -10 m 221 17 q 342 72 303 17 q 381 218 381 128 l 381 469 q 320 417 361 440 q 236 371 279 393 q 139 299 174 336 q 104 194 104 261 l 104 153 q 123 58 104 86 q 169 23 142 29 q 221 17 197 17 m 251 758 q 181 777 207 758 q 142 822 154 796 q 129 871 131 849 l 156 871 q 188 804 163 826 q 251 782 214 782 q 317 803 292 782 q 349 871 343 825 l 375 871 q 360 822 372 849 q 322 777 347 796 q 251 758 296 758 m 240 890 l 240 917 q 257 946 240 936 q 290 965 274 956 q 307 994 307 975 l 307 999 q 295 1028 307 1015 q 257 1040 283 1040 q 214 1006 222 1040 l 190 1011 q 213 1048 196 1035 q 260 1061 229 1061 q 314 1045 296 1061 q 332 997 332 1029 l 332 994 q 315 953 332 965 q 280 933 297 940 q 263 908 263 925 l 263 890 l 240 890 z "},"ẵ":{"ha":489,"x_min":71,"x_max":414,"o":"m 215 -10 q 153 -1 186 -10 q 95 41 119 7 q 71 150 71 75 l 71 199 q 115 316 71 272 q 228 396 160 360 q 312 443 278 422 q 364 489 346 464 q 382 551 382 514 l 382 575 q 363 640 382 618 q 315 669 344 661 q 253 676 285 676 q 145 636 171 676 q 119 522 119 596 l 119 464 l 89 464 l 89 525 q 102 616 89 576 q 151 678 115 656 q 253 701 186 701 q 360 682 326 701 q 404 630 394 663 q 414 560 414 597 l 414 0 l 382 0 l 381 93 q 314 15 360 40 q 215 -10 268 -10 m 221 17 q 342 72 303 17 q 381 218 381 128 l 381 469 q 320 417 361 440 q 236 371 279 393 q 139 299 174 336 q 104 194 104 261 l 104 153 q 123 58 104 86 q 169 23 142 29 q 221 17 197 17 m 251 758 q 181 777 207 758 q 142 822 154 796 q 129 871 131 849 l 156 871 q 188 804 163 826 q 251 782 214 782 q 317 803 292 782 q 349 871 343 825 l 375 871 q 360 822 372 849 q 322 777 347 796 q 251 758 296 758 m 307 904 q 280 909 290 904 q 250 928 269 914 q 226 944 240 935 q 196 954 213 954 q 167 943 179 954 q 151 906 156 932 l 126 906 q 147 958 129 938 q 196 978 165 978 q 227 970 213 978 q 257 951 242 963 q 282 935 271 942 q 307 929 293 929 q 335 940 324 929 q 351 976 347 950 l 376 976 q 366 939 375 956 q 342 913 357 922 q 307 904 328 904 z "},"ǎ":{"ha":489,"x_min":71,"x_max":414,"o":"m 215 -10 q 153 -1 186 -10 q 95 41 119 7 q 71 150 71 75 l 71 199 q 115 316 71 272 q 228 396 160 360 q 312 443 278 422 q 364 489 346 464 q 382 551 382 514 l 382 575 q 363 640 382 618 q 315 669 344 661 q 253 676 285 676 q 145 636 171 676 q 119 522 119 596 l 119 464 l 89 464 l 89 525 q 102 616 89 576 q 151 678 115 656 q 253 701 186 701 q 360 682 326 701 q 404 630 394 663 q 414 560 414 597 l 414 0 l 382 0 l 381 93 q 314 15 360 40 q 215 -10 268 -10 m 221 17 q 342 72 303 17 q 381 218 381 128 l 381 469 q 320 417 361 440 q 236 371 279 393 q 139 299 174 336 q 104 194 104 261 l 104 153 q 123 58 104 86 q 169 23 142 29 q 221 17 197 17 m 235 760 l 117 874 l 147 874 l 251 783 l 358 874 l 388 874 l 269 760 l 235 760 z "},"â":{"ha":489,"x_min":71,"x_max":414,"o":"m 215 -10 q 153 -1 186 -10 q 95 41 119 7 q 71 150 71 75 l 71 199 q 115 316 71 272 q 228 396 160 360 q 312 443 278 422 q 364 489 346 464 q 382 551 382 514 l 382 575 q 363 640 382 618 q 315 669 344 661 q 253 676 285 676 q 145 636 171 676 q 119 522 119 596 l 119 464 l 89 464 l 89 525 q 102 616 89 576 q 151 678 115 656 q 253 701 186 701 q 360 682 326 701 q 404 630 394 663 q 414 560 414 597 l 414 0 l 382 0 l 381 93 q 314 15 360 40 q 215 -10 268 -10 m 221 17 q 342 72 303 17 q 381 218 381 128 l 381 469 q 320 417 361 440 q 236 371 279 393 q 139 299 174 336 q 104 194 104 261 l 104 153 q 123 58 104 86 q 169 23 142 29 q 221 17 197 17 m 117 760 l 235 874 l 269 874 l 388 760 l 358 760 l 251 850 l 147 760 l 117 760 z "},"ấ":{"ha":489,"x_min":71,"x_max":508,"o":"m 215 -10 q 153 -1 186 -10 q 95 41 119 7 q 71 150 71 75 l 71 199 q 115 316 71 272 q 228 396 160 360 q 312 443 278 422 q 364 489 346 464 q 382 551 382 514 l 382 575 q 363 640 382 618 q 315 669 344 661 q 253 676 285 676 q 145 636 171 676 q 119 522 119 596 l 119 464 l 89 464 l 89 525 q 102 616 89 576 q 151 678 115 656 q 253 701 186 701 q 360 682 326 701 q 404 630 394 663 q 414 560 414 597 l 414 0 l 382 0 l 381 93 q 314 15 360 40 q 215 -10 268 -10 m 221 17 q 342 72 303 17 q 381 218 381 128 l 381 469 q 320 417 361 440 q 236 371 279 393 q 139 299 174 336 q 104 194 104 261 l 104 153 q 123 58 104 86 q 169 23 142 29 q 221 17 197 17 m 117 760 l 235 874 l 269 874 l 388 760 l 358 760 l 251 850 l 147 760 l 117 760 m 386 828 l 464 949 l 508 949 l 407 828 l 386 828 z "},"ậ":{"ha":489,"x_min":71,"x_max":414,"o":"m 215 -10 q 153 -1 186 -10 q 95 41 119 7 q 71 150 71 75 l 71 199 q 115 316 71 272 q 228 396 160 360 q 312 443 278 422 q 364 489 346 464 q 382 551 382 514 l 382 575 q 363 640 382 618 q 315 669 344 661 q 253 676 285 676 q 145 636 171 676 q 119 522 119 596 l 119 464 l 89 464 l 89 525 q 102 616 89 576 q 151 678 115 656 q 253 701 186 701 q 360 682 326 701 q 404 630 394 663 q 414 560 414 597 l 414 0 l 382 0 l 381 93 q 314 15 360 40 q 215 -10 268 -10 m 221 17 q 342 72 303 17 q 381 218 381 128 l 381 469 q 320 417 361 440 q 236 371 279 393 q 139 299 174 336 q 104 194 104 261 l 104 153 q 123 58 104 86 q 169 23 142 29 q 221 17 197 17 m 244 -128 q 222 -119 231 -128 q 213 -97 213 -110 q 222 -76 213 -85 q 244 -67 231 -67 q 267 -76 257 -67 q 276 -97 276 -85 q 267 -119 276 -110 q 244 -128 257 -128 m 117 760 l 235 874 l 269 874 l 388 760 l 358 760 l 251 850 l 147 760 l 117 760 z "},"ầ":{"ha":489,"x_min":71,"x_max":465,"o":"m 215 -10 q 153 -1 186 -10 q 95 41 119 7 q 71 150 71 75 l 71 199 q 115 316 71 272 q 228 396 160 360 q 312 443 278 422 q 364 489 346 464 q 382 551 382 514 l 382 575 q 363 640 382 618 q 315 669 344 661 q 253 676 285 676 q 145 636 171 676 q 119 522 119 596 l 119 464 l 89 464 l 89 525 q 102 616 89 576 q 151 678 115 656 q 253 701 186 701 q 360 682 326 701 q 404 630 394 663 q 414 560 414 597 l 414 0 l 382 0 l 381 93 q 314 15 360 40 q 215 -10 268 -10 m 221 17 q 342 72 303 17 q 381 218 381 128 l 381 469 q 320 417 361 440 q 236 371 279 393 q 139 299 174 336 q 104 194 104 261 l 104 153 q 123 58 104 86 q 169 23 142 29 q 221 17 197 17 m 117 760 l 235 874 l 269 874 l 388 760 l 358 760 l 251 850 l 147 760 l 117 760 m 444 828 l 343 949 l 388 949 l 465 828 l 444 828 z "},"ẩ":{"ha":489,"x_min":71,"x_max":507,"o":"m 215 -10 q 153 -1 186 -10 q 95 41 119 7 q 71 150 71 75 l 71 199 q 115 316 71 272 q 228 396 160 360 q 312 443 278 422 q 364 489 346 464 q 382 551 382 514 l 382 575 q 363 640 382 618 q 315 669 344 661 q 253 676 285 676 q 145 636 171 676 q 119 522 119 596 l 119 464 l 89 464 l 89 525 q 102 616 89 576 q 151 678 115 656 q 253 701 186 701 q 360 682 326 701 q 404 630 394 663 q 414 560 414 597 l 414 0 l 382 0 l 381 93 q 314 15 360 40 q 215 -10 268 -10 m 221 17 q 342 72 303 17 q 381 218 381 128 l 381 469 q 320 417 361 440 q 236 371 279 393 q 139 299 174 336 q 104 194 104 261 l 104 153 q 123 58 104 86 q 169 23 142 29 q 221 17 197 17 m 117 760 l 235 874 l 269 874 l 388 760 l 358 760 l 251 850 l 147 760 l 117 760 m 415 831 l 415 857 q 432 886 415 876 q 465 906 449 896 q 482 935 482 915 l 482 939 q 470 968 482 956 q 432 981 458 981 q 389 946 397 981 l 365 951 q 388 988 371 975 q 435 1001 404 1001 q 489 985 471 1001 q 507 938 507 969 l 507 935 q 490 893 507 906 q 455 873 472 881 q 438 849 438 865 l 438 831 l 415 831 z "},"ẫ":{"ha":489,"x_min":71,"x_max":414,"o":"m 215 -10 q 153 -1 186 -10 q 95 41 119 7 q 71 150 71 75 l 71 199 q 115 316 71 272 q 228 396 160 360 q 312 443 278 422 q 364 489 346 464 q 382 551 382 514 l 382 575 q 363 640 382 618 q 315 669 344 661 q 253 676 285 676 q 145 636 171 676 q 119 522 119 596 l 119 464 l 89 464 l 89 525 q 102 616 89 576 q 151 678 115 656 q 253 701 186 701 q 360 682 326 701 q 404 630 394 663 q 414 560 414 597 l 414 0 l 382 0 l 381 93 q 314 15 360 40 q 215 -10 268 -10 m 221 17 q 342 72 303 17 q 381 218 381 128 l 381 469 q 320 417 361 440 q 236 371 279 393 q 139 299 174 336 q 104 194 104 261 l 104 153 q 123 58 104 86 q 169 23 142 29 q 221 17 197 17 m 117 760 l 235 874 l 269 874 l 388 760 l 358 760 l 251 850 l 147 760 l 117 760 m 306 903 q 278 908 289 903 q 249 926 268 913 q 225 943 239 933 q 194 953 211 953 q 166 942 178 953 q 150 904 154 931 l 125 904 q 146 956 128 936 q 194 976 164 976 q 226 969 211 976 q 256 950 240 961 q 281 934 269 940 q 306 928 292 928 q 334 938 322 928 q 350 975 346 949 l 375 975 q 365 938 374 954 q 341 912 356 921 q 306 903 326 903 z "},"´":{"ha":144,"x_min":0,"x_max":122,"o":"m 0 756 l 78 876 l 122 876 l 21 756 l 0 756 z "},"́":{"ha":0,"x_min":0,"x_max":122,"o":"m 0 756 l 78 876 l 122 876 l 21 756 l 0 756 z "},"ä":{"ha":489,"x_min":71,"x_max":414,"o":"m 215 -10 q 153 -1 186 -10 q 95 41 119 7 q 71 150 71 75 l 71 199 q 115 316 71 272 q 228 396 160 360 q 312 443 278 422 q 364 489 346 464 q 382 551 382 514 l 382 575 q 363 640 382 618 q 315 669 344 661 q 253 676 285 676 q 145 636 171 676 q 119 522 119 596 l 119 464 l 89 464 l 89 525 q 102 616 89 576 q 151 678 115 656 q 253 701 186 701 q 360 682 326 701 q 404 630 394 663 q 414 560 414 597 l 414 0 l 382 0 l 381 93 q 314 15 360 40 q 215 -10 268 -10 m 221 17 q 342 72 303 17 q 381 218 381 128 l 381 469 q 320 417 361 440 q 236 371 279 393 q 139 299 174 336 q 104 194 104 261 l 104 153 q 123 58 104 86 q 169 23 142 29 q 221 17 197 17 m 197 779 q 176 788 185 779 q 167 810 167 797 q 176 831 167 822 q 197 839 185 839 q 219 831 210 839 q 228 810 228 822 q 219 788 228 797 q 197 779 210 779 m 308 779 q 287 788 296 779 q 278 810 278 797 q 287 831 278 822 q 308 839 296 839 q 330 831 321 839 q 339 810 339 822 q 330 788 339 797 q 308 779 321 779 z "},"ạ":{"ha":489,"x_min":71,"x_max":414,"o":"m 215 -10 q 153 -1 186 -10 q 95 41 119 7 q 71 150 71 75 l 71 199 q 115 316 71 272 q 228 396 160 360 q 312 443 278 422 q 364 489 346 464 q 382 551 382 514 l 382 575 q 363 640 382 618 q 315 669 344 661 q 253 676 285 676 q 145 636 171 676 q 119 522 119 596 l 119 464 l 89 464 l 89 525 q 102 616 89 576 q 151 678 115 656 q 253 701 186 701 q 360 682 326 701 q 404 630 394 663 q 414 560 414 597 l 414 0 l 382 0 l 381 93 q 314 15 360 40 q 215 -10 268 -10 m 221 17 q 342 72 303 17 q 381 218 381 128 l 381 469 q 320 417 361 440 q 236 371 279 393 q 139 299 174 336 q 104 194 104 261 l 104 153 q 123 58 104 86 q 169 23 142 29 q 221 17 197 17 m 244 -128 q 222 -119 231 -128 q 213 -97 213 -110 q 222 -76 213 -85 q 244 -67 231 -67 q 267 -76 257 -67 q 276 -97 276 -85 q 267 -119 276 -110 q 244 -128 257 -128 z "},"æ":{"ha":776,"x_min":71,"x_max":715,"o":"m 215 -4 q 169 0 194 -4 q 122 19 144 4 q 85 67 100 35 q 71 157 71 100 l 71 206 q 112 313 71 271 q 217 389 153 356 q 308 442 271 418 q 363 488 344 465 q 382 536 382 511 l 382 575 q 363 640 382 618 q 315 669 344 661 q 253 676 285 676 q 145 636 171 676 q 119 522 119 596 l 119 464 l 89 464 l 89 525 q 102 616 89 576 q 151 678 115 656 q 253 701 186 701 q 355 681 322 701 q 397 629 388 661 q 407 560 407 597 l 407 81 l 389 119 q 322 24 368 51 q 215 -4 276 -4 m 221 22 q 342 75 303 22 q 381 218 381 128 l 381 469 q 318 415 361 439 q 229 367 275 392 q 137 296 169 332 q 104 200 104 260 l 104 158 q 123 64 104 93 q 169 28 142 35 q 221 22 197 22 m 549 -3 q 469 4 501 -3 q 418 29 438 11 q 390 81 399 47 q 382 168 382 115 l 382 535 q 419 665 382 629 q 549 701 456 701 q 679 666 643 701 q 715 535 715 631 l 715 364 l 415 364 l 415 165 q 426 79 415 110 q 465 37 436 49 q 547 25 493 25 q 631 38 601 25 q 671 84 660 51 q 682 175 682 117 l 682 239 l 715 239 l 715 178 q 707 89 715 124 q 679 34 699 54 q 628 6 660 14 q 549 -3 596 -3 m 415 390 l 682 390 l 682 533 q 656 642 682 608 q 549 676 631 676 q 442 642 468 676 q 415 533 415 608 l 415 390 z "},"à":{"ha":489,"x_min":71,"x_max":414,"o":"m 215 -10 q 153 -1 186 -10 q 95 41 119 7 q 71 150 71 75 l 71 199 q 115 316 71 272 q 228 396 160 360 q 312 443 278 422 q 364 489 346 464 q 382 551 382 514 l 382 575 q 363 640 382 618 q 315 669 344 661 q 253 676 285 676 q 145 636 171 676 q 119 522 119 596 l 119 464 l 89 464 l 89 525 q 102 616 89 576 q 151 678 115 656 q 253 701 186 701 q 360 682 326 701 q 404 630 394 663 q 414 560 414 597 l 414 0 l 382 0 l 381 93 q 314 15 360 40 q 215 -10 268 -10 m 221 17 q 342 72 303 17 q 381 218 381 128 l 381 469 q 320 417 361 440 q 236 371 279 393 q 139 299 174 336 q 104 194 104 261 l 104 153 q 123 58 104 86 q 169 23 142 29 q 221 17 197 17 m 271 756 l 169 876 l 214 876 l 292 756 l 271 756 z "},"ả":{"ha":489,"x_min":71,"x_max":414,"o":"m 215 -10 q 153 -1 186 -10 q 95 41 119 7 q 71 150 71 75 l 71 199 q 115 316 71 272 q 228 396 160 360 q 312 443 278 422 q 364 489 346 464 q 382 551 382 514 l 382 575 q 363 640 382 618 q 315 669 344 661 q 253 676 285 676 q 145 636 171 676 q 119 522 119 596 l 119 464 l 89 464 l 89 525 q 102 616 89 576 q 151 678 115 656 q 253 701 186 701 q 360 682 326 701 q 404 630 394 663 q 414 560 414 597 l 414 0 l 382 0 l 381 93 q 314 15 360 40 q 215 -10 268 -10 m 221 17 q 342 72 303 17 q 381 218 381 128 l 381 469 q 320 417 361 440 q 236 371 279 393 q 139 299 174 336 q 104 194 104 261 l 104 153 q 123 58 104 86 q 169 23 142 29 q 221 17 197 17 m 242 758 l 242 785 q 258 814 242 804 q 292 833 275 824 q 308 863 308 843 l 308 867 q 297 896 308 883 q 258 908 285 908 q 215 874 224 908 l 192 879 q 214 916 197 903 q 261 929 231 929 q 315 913 297 929 q 333 865 333 897 l 333 863 q 316 821 333 833 q 281 801 299 808 q 264 776 264 793 l 264 758 l 242 758 z "},"ā":{"ha":489,"x_min":71,"x_max":414,"o":"m 215 -10 q 153 -1 186 -10 q 95 41 119 7 q 71 150 71 75 l 71 199 q 115 316 71 272 q 228 396 160 360 q 312 443 278 422 q 364 489 346 464 q 382 551 382 514 l 382 575 q 363 640 382 618 q 315 669 344 661 q 253 676 285 676 q 145 636 171 676 q 119 522 119 596 l 119 464 l 89 464 l 89 525 q 102 616 89 576 q 151 678 115 656 q 253 701 186 701 q 360 682 326 701 q 404 630 394 663 q 414 560 414 597 l 414 0 l 382 0 l 381 93 q 314 15 360 40 q 215 -10 268 -10 m 221 17 q 342 72 303 17 q 381 218 381 128 l 381 469 q 320 417 361 440 q 236 371 279 393 q 139 299 174 336 q 104 194 104 261 l 104 153 q 123 58 104 86 q 169 23 142 29 q 221 17 197 17 m 133 792 l 133 815 l 371 815 l 371 792 l 133 792 z "},"&":{"ha":685,"x_min":68,"x_max":617,"o":"m 268 -12 q 147 17 190 -12 q 85 99 103 47 q 68 217 68 150 q 103 365 68 311 q 204 439 139 419 q 178 483 192 451 q 165 560 165 515 q 205 664 165 625 q 331 703 244 703 q 403 697 372 703 q 455 685 435 692 q 482 672 475 678 l 482 640 q 454 650 476 643 q 400 664 432 657 q 332 671 368 671 q 247 649 276 671 q 209 595 218 628 q 208 526 200 563 q 233 460 215 490 q 261 424 240 449 q 308 367 282 399 q 361 306 335 336 q 408 253 388 275 q 435 222 428 231 l 435 388 l 617 388 l 617 358 l 468 358 q 468 276 468 307 q 468 227 468 246 q 467 188 468 208 q 555 94 515 135 q 617 38 594 53 l 617 -3 q 557 43 600 1 q 461 142 514 85 q 418 43 450 76 q 346 -1 386 10 q 268 -12 306 -12 m 268 15 q 386 58 343 15 q 432 174 429 101 q 314 306 372 242 q 225 408 256 371 q 136 350 169 394 q 103 214 103 306 q 148 64 103 113 q 268 15 193 15 z "},"ą":{"ha":489,"x_min":71,"x_max":440,"o":"m 215 -10 q 153 -1 186 -10 q 95 41 119 7 q 71 150 71 75 l 71 199 q 115 316 71 272 q 228 396 160 360 q 312 443 278 422 q 364 489 346 464 q 382 551 382 514 l 382 575 q 363 640 382 618 q 315 669 344 661 q 253 676 285 676 q 145 636 171 676 q 119 522 119 596 l 119 464 l 89 464 l 89 525 q 102 616 89 576 q 151 678 115 656 q 253 701 186 701 q 360 682 326 701 q 404 630 394 663 q 414 560 414 597 l 414 0 l 382 0 l 381 93 q 314 15 360 40 q 215 -10 268 -10 m 221 17 q 342 72 303 17 q 381 218 381 128 l 381 469 q 320 417 361 440 q 236 371 279 393 q 139 299 174 336 q 104 194 104 261 l 104 153 q 123 58 104 86 q 169 23 142 29 q 221 17 197 17 m 390 -179 q 333 -159 358 -179 q 308 -104 308 -139 q 334 -38 308 -64 q 385 0 360 -12 l 414 0 q 358 -46 378 -19 q 338 -100 338 -72 q 356 -142 338 -128 q 392 -156 374 -156 q 416 -152 406 -156 q 432 -146 426 -149 l 440 -165 q 419 -175 432 -171 q 390 -179 406 -179 z "},"≈":{"ha":638,"x_min":68,"x_max":568,"o":"m 447 468 q 362 481 404 468 q 276 508 319 494 q 185 521 233 521 q 124 503 147 521 q 100 464 100 486 l 68 464 q 92 517 74 499 q 138 542 111 535 q 190 550 164 550 q 275 538 233 550 q 362 513 317 525 q 460 500 407 500 q 512 517 490 500 q 535 554 533 533 l 568 554 q 544 501 564 521 q 499 475 525 482 q 447 468 474 468 m 447 182 q 362 196 404 182 q 276 223 319 210 q 185 236 233 236 q 124 219 147 236 q 100 178 100 201 l 68 178 q 92 231 74 213 q 138 258 111 250 q 190 265 164 265 q 275 253 233 265 q 362 228 317 240 q 460 215 407 215 q 512 232 490 215 q 535 269 533 249 l 568 269 q 544 217 564 236 q 499 190 525 197 q 447 182 474 182 z "},"å":{"ha":489,"x_min":71,"x_max":414,"o":"m 215 -10 q 153 -1 186 -10 q 95 41 119 7 q 71 150 71 75 l 71 199 q 115 316 71 272 q 228 396 160 360 q 312 443 278 422 q 364 489 346 464 q 382 551 382 514 l 382 575 q 363 640 382 618 q 315 669 344 661 q 253 676 285 676 q 145 636 171 676 q 119 522 119 596 l 119 464 l 89 464 l 89 525 q 102 616 89 576 q 151 678 115 656 q 253 701 186 701 q 360 682 326 701 q 404 630 394 663 q 414 560 414 597 l 414 0 l 382 0 l 381 93 q 314 15 360 40 q 215 -10 268 -10 m 221 17 q 342 72 303 17 q 381 218 381 128 l 381 469 q 320 417 361 440 q 236 371 279 393 q 139 299 174 336 q 104 194 104 261 l 104 153 q 123 58 104 86 q 169 23 142 29 q 221 17 197 17 m 251 757 q 178 785 207 757 q 150 853 150 814 q 178 922 150 893 q 251 950 207 950 q 327 922 300 950 q 354 853 354 893 q 324 785 354 814 q 251 757 293 757 m 251 782 q 306 802 286 782 q 326 853 326 822 q 306 906 326 886 q 251 925 286 925 q 197 906 217 925 q 178 853 178 886 q 197 802 178 822 q 251 782 217 782 z "},"^":{"ha":521,"x_min":68,"x_max":453,"o":"m 68 688 l 249 918 l 274 918 l 453 688 l 411 688 l 257 876 l 111 688 l 68 688 z "},"~":{"ha":638,"x_min":68,"x_max":568,"o":"m 447 708 q 362 722 404 708 q 276 748 319 735 q 185 761 233 761 q 124 744 147 761 q 100 704 100 726 l 68 704 q 92 758 74 739 q 138 784 111 776 q 190 792 164 792 q 275 779 233 792 q 362 753 317 767 q 460 740 407 740 q 512 757 490 740 q 535 794 533 774 l 568 794 q 544 742 564 761 q 499 716 525 724 q 447 708 474 708 z "},"*":{"ha":739,"x_min":69,"x_max":668,"o":"m 211 158 l 167 189 l 358 421 l 69 492 l 86 543 l 364 429 l 342 728 l 397 728 l 375 429 l 651 543 l 668 493 l 379 421 l 571 190 l 528 160 l 371 411 l 211 158 z "},"@":{"ha":969,"x_min":69,"x_max":900,"o":"m 481 -89 q 233 -38 322 -89 q 106 110 143 13 q 69 349 69 208 q 167 699 69 574 q 481 824 264 824 q 696 782 601 824 q 845 649 790 740 q 900 411 900 558 q 883 266 900 336 q 829 150 867 196 q 728 104 792 104 q 658 131 682 104 q 628 190 635 157 q 619 242 621 222 l 635 251 q 554 164 604 189 q 450 139 504 139 q 348 167 386 139 q 310 269 310 194 q 327 338 310 310 q 385 388 344 365 q 494 431 425 410 q 551 449 526 439 q 593 471 576 460 q 612 493 607 481 q 617 521 617 506 q 588 581 617 557 q 493 606 558 606 q 388 579 419 606 q 357 503 357 553 l 357 461 l 324 461 l 324 501 q 340 574 324 544 q 394 619 357 604 q 496 635 432 635 q 590 619 556 635 q 638 573 624 604 q 653 494 653 542 l 653 242 q 676 158 653 185 q 733 132 699 132 q 799 160 768 132 q 848 251 829 189 q 867 413 867 313 q 826 613 867 526 q 703 749 786 700 q 490 799 619 799 q 276 755 363 799 q 147 612 190 711 q 103 344 103 513 q 131 138 103 218 q 210 14 158 57 q 331 -46 261 -29 q 483 -62 400 -62 q 550 -58 510 -62 q 635 -47 590 -54 q 724 -28 681 -39 q 797 -1 767 -17 l 797 -35 q 727 -58 772 -44 q 620 -80 682 -71 q 481 -89 558 -89 m 461 167 q 544 188 508 167 q 599 238 579 208 q 619 296 619 268 l 619 446 q 568 425 603 436 q 497 401 533 414 q 408 363 442 381 q 360 322 375 344 q 346 260 346 299 q 375 188 346 208 q 461 167 404 167 z "},"ã":{"ha":489,"x_min":71,"x_max":414,"o":"m 215 -10 q 153 -1 186 -10 q 95 41 119 7 q 71 150 71 75 l 71 199 q 115 316 71 272 q 228 396 160 360 q 312 443 278 422 q 364 489 346 464 q 382 551 382 514 l 382 575 q 363 640 382 618 q 315 669 344 661 q 253 676 285 676 q 145 636 171 676 q 119 522 119 596 l 119 464 l 89 464 l 89 525 q 102 616 89 576 q 151 678 115 656 q 253 701 186 701 q 360 682 326 701 q 404 630 394 663 q 414 560 414 597 l 414 0 l 382 0 l 381 93 q 314 15 360 40 q 215 -10 268 -10 m 221 17 q 342 72 303 17 q 381 218 381 128 l 381 469 q 320 417 361 440 q 236 371 279 393 q 139 299 174 336 q 104 194 104 261 l 104 153 q 123 58 104 86 q 169 23 142 29 q 221 17 197 17 m 308 772 q 281 777 292 772 q 251 796 271 782 q 228 813 242 803 q 197 822 214 822 q 169 811 181 822 q 153 774 157 800 l 128 774 q 149 826 131 806 q 197 846 167 846 q 228 838 214 846 q 258 819 243 831 q 283 803 272 810 q 308 797 294 797 q 337 808 325 797 q 353 844 349 818 l 378 844 q 367 807 376 824 q 344 781 358 790 q 308 772 329 772 z "},"b":{"ha":493,"x_min":89,"x_max":425,"o":"m 258 -10 q 160 12 190 -10 q 117 65 131 33 l 114 0 l 89 0 l 89 875 l 121 875 l 121 629 q 174 684 139 669 q 260 699 210 699 q 372 672 338 699 q 416 605 407 646 q 425 519 425 564 l 425 174 q 421 108 425 140 q 401 49 417 75 q 351 6 385 22 q 258 -10 317 -10 m 257 15 q 338 30 310 15 q 377 69 365 44 q 390 123 389 93 q 392 183 392 153 l 392 507 q 390 566 392 536 q 377 620 389 596 q 338 659 365 644 q 257 674 310 674 q 151 637 179 674 q 122 529 122 600 l 122 224 q 124 153 122 189 q 137 85 125 117 q 176 35 149 54 q 257 15 204 15 z "},"\\":{"ha":656,"x_min":69,"x_max":582,"o":"m 547 -64 l 69 876 l 106 876 l 582 -64 l 547 -64 z "},"|":{"ha":257,"x_min":113,"x_max":144,"o":"m 113 -340 l 113 876 l 144 876 l 144 -340 l 113 -340 z "},"б":{"ha":489,"x_min":68,"x_max":421,"o":"m 244 -10 q 137 13 175 -10 q 83 80 99 36 q 68 186 68 124 l 68 694 q 90 795 68 763 q 149 839 111 828 q 235 850 186 850 q 283 853 263 850 q 319 862 304 857 q 344 874 333 867 q 363 886 354 881 l 363 857 q 332 835 363 850 q 246 819 301 819 l 221 819 q 162 810 189 819 q 119 774 135 801 q 100 692 103 746 l 100 557 q 152 603 114 585 q 249 622 190 622 q 355 600 318 622 q 406 537 392 578 q 421 438 421 496 l 421 189 q 413 103 421 140 q 387 41 406 67 q 333 3 368 15 q 244 -10 299 -10 m 244 15 q 340 40 310 15 q 380 103 371 64 q 389 189 389 143 l 389 431 q 381 510 389 474 q 342 571 372 547 q 247 594 313 594 q 161 580 192 594 q 117 542 131 565 q 102 496 104 519 q 100 454 100 472 l 100 189 q 109 103 100 143 q 149 40 118 64 q 244 15 179 15 z "},"{":{"ha":403,"x_min":71,"x_max":293,"o":"m 293 -190 q 207 -160 242 -182 q 155 -101 172 -137 q 138 -17 138 -65 q 150 53 138 19 q 178 119 163 86 q 206 185 193 151 q 218 257 218 219 q 195 312 218 289 q 139 349 172 335 q 71 364 106 363 l 71 379 q 138 393 104 382 q 195 427 172 404 q 218 485 218 450 q 206 556 218 522 q 178 621 193 589 q 150 687 163 653 q 138 760 138 721 q 154 842 138 810 q 205 892 171 874 q 293 922 239 911 l 293 892 q 231 874 258 886 q 188 836 203 863 q 172 760 172 810 q 183 686 172 719 q 210 622 194 653 q 236 559 225 592 q 247 485 247 526 q 237 442 247 464 q 205 403 226 421 q 149 372 183 385 q 224 322 201 353 q 247 257 247 290 q 236 181 247 214 q 210 119 225 149 q 183 57 194 89 q 172 -17 172 25 q 188 -97 172 -67 q 231 -141 204 -126 q 293 -161 258 -156 l 293 -190 z "},"}":{"ha":403,"x_min":110,"x_max":332,"o":"m 110 -190 l 110 -161 q 172 -141 144 -156 q 215 -97 199 -126 q 231 -17 231 -67 q 219 57 231 25 q 193 119 208 89 q 167 181 178 149 q 156 257 156 214 q 179 322 156 290 q 254 372 203 353 q 199 403 221 385 q 166 442 176 421 q 156 485 156 464 q 167 559 156 526 q 193 622 178 592 q 219 686 208 653 q 231 760 231 719 q 215 836 231 810 q 173 874 200 863 q 110 892 146 886 l 110 922 q 198 892 164 911 q 249 842 232 874 q 265 760 265 810 q 253 687 265 721 q 225 621 240 653 q 197 556 210 589 q 185 485 185 522 q 208 427 185 450 q 265 393 231 404 q 332 379 299 382 l 332 364 q 265 349 299 363 q 208 312 231 335 q 185 257 185 289 q 197 185 185 219 q 225 119 210 151 q 253 53 240 86 q 265 -17 265 19 q 248 -101 265 -65 q 196 -160 231 -137 q 110 -190 161 -182 z "},"[":{"ha":374,"x_min":69,"x_max":304,"o":"m 69 -79 l 69 875 l 304 875 l 304 850 l 100 850 l 100 -54 l 304 -54 l 304 -79 l 69 -79 z "},"]":{"ha":374,"x_min":69,"x_max":304,"o":"m 69 -79 l 69 -54 l 272 -54 l 272 850 l 69 850 l 69 875 l 304 875 l 304 -79 l 69 -79 z "},"˘":{"ha":285,"x_min":14,"x_max":260,"o":"m 136 758 q 65 777 92 758 q 27 822 39 796 q 14 871 15 849 l 40 871 q 73 804 47 826 q 136 782 99 782 q 202 803 176 782 q 233 871 228 825 l 260 871 q 244 822 257 849 q 206 777 232 796 q 136 758 181 758 z "},"̆":{"ha":0,"x_min":14,"x_max":260,"o":"m 136 758 q 65 777 92 758 q 27 822 39 796 q 14 871 15 849 l 40 871 q 73 804 47 826 q 136 782 99 782 q 202 803 176 782 q 233 871 228 825 l 260 871 q 244 822 257 849 q 206 777 232 796 q 136 758 181 758 z "},"¦":{"ha":306,"x_min":138,"x_max":169,"o":"m 138 -237 l 138 232 l 169 232 l 169 -237 l 138 -237 m 138 383 l 138 813 l 169 813 l 169 383 l 138 383 z "},"•":{"ha":571,"x_min":96,"x_max":475,"o":"m 286 199 q 190 224 233 199 q 122 293 147 250 q 96 389 96 336 q 122 484 96 442 q 190 552 147 526 q 286 578 233 578 q 381 552 339 578 q 449 484 424 526 q 475 389 475 442 q 449 293 475 336 q 381 224 424 250 q 286 199 339 199 z "},"c":{"ha":463,"x_min":68,"x_max":401,"o":"m 243 -12 q 138 3 176 -12 q 84 58 100 19 q 68 168 68 97 l 68 533 q 105 666 68 631 q 236 701 142 701 q 365 666 329 701 q 401 535 401 631 l 401 454 l 368 454 l 368 533 q 343 642 368 608 q 236 676 318 676 q 128 642 156 676 q 101 533 101 608 l 101 167 q 128 49 101 83 q 242 15 156 15 q 343 48 318 15 q 368 167 368 81 l 368 240 l 401 240 l 401 168 q 386 60 401 100 q 336 4 371 21 q 243 -12 301 -12 z "},"ć":{"ha":463,"x_min":68,"x_max":401,"o":"m 243 -12 q 138 3 176 -12 q 84 58 100 19 q 68 168 68 97 l 68 533 q 105 666 68 631 q 236 701 142 701 q 365 666 329 701 q 401 535 401 631 l 401 454 l 368 454 l 368 533 q 343 642 368 608 q 236 676 318 676 q 128 642 156 676 q 101 533 101 608 l 101 167 q 128 49 101 83 q 242 15 156 15 q 343 48 318 15 q 368 167 368 81 l 368 240 l 401 240 l 401 168 q 386 60 401 100 q 336 4 371 21 q 243 -12 301 -12 m 192 756 l 269 876 l 314 876 l 213 756 l 192 756 z "},"ˇ":{"ha":296,"x_min":13,"x_max":283,"o":"m 131 760 l 13 874 l 43 874 l 147 783 l 254 874 l 283 874 l 165 760 l 131 760 z "},"̌":{"ha":0,"x_min":13,"x_max":283,"o":"m 131 760 l 13 874 l 43 874 l 147 783 l 254 874 l 283 874 l 165 760 l 131 760 z "},"č":{"ha":463,"x_min":68,"x_max":401,"o":"m 243 -12 q 138 3 176 -12 q 84 58 100 19 q 68 168 68 97 l 68 533 q 105 666 68 631 q 236 701 142 701 q 365 666 329 701 q 401 535 401 631 l 401 454 l 368 454 l 368 533 q 343 642 368 608 q 236 676 318 676 q 128 642 156 676 q 101 533 101 608 l 101 167 q 128 49 101 83 q 242 15 156 15 q 343 48 318 15 q 368 167 368 81 l 368 240 l 401 240 l 401 168 q 386 60 401 100 q 336 4 371 21 q 243 -12 301 -12 m 214 760 l 96 874 l 126 874 l 231 783 l 338 874 l 367 874 l 249 760 l 214 760 z "},"ç":{"ha":463,"x_min":68,"x_max":401,"o":"m 243 -12 q 138 3 176 -12 q 84 58 100 19 q 68 168 68 97 l 68 533 q 105 666 68 631 q 236 701 142 701 q 365 666 329 701 q 401 535 401 631 l 401 454 l 368 454 l 368 533 q 343 642 368 608 q 236 676 318 676 q 128 642 156 676 q 101 533 101 608 l 101 167 q 128 49 101 83 q 242 15 156 15 q 343 48 318 15 q 368 167 368 81 l 368 240 l 401 240 l 401 168 q 386 60 401 100 q 336 4 371 21 q 243 -12 301 -12 m 225 -186 q 193 -181 207 -186 q 168 -169 179 -175 l 176 -150 q 199 -160 183 -156 q 224 -165 215 -165 q 270 -151 256 -165 q 285 -119 285 -137 q 271 -87 285 -99 q 235 -75 257 -75 q 214 -79 225 -75 q 193 -90 203 -83 l 176 -81 l 221 0 l 244 0 l 206 -69 l 199 -68 q 220 -59 208 -61 q 242 -57 232 -57 q 292 -76 274 -57 q 310 -115 310 -94 q 288 -167 310 -147 q 225 -186 265 -186 z "},"ċ":{"ha":463,"x_min":68,"x_max":401,"o":"m 243 -12 q 138 3 176 -12 q 84 58 100 19 q 68 168 68 97 l 68 533 q 105 666 68 631 q 236 701 142 701 q 365 666 329 701 q 401 535 401 631 l 401 454 l 368 454 l 368 533 q 343 642 368 608 q 236 676 318 676 q 128 642 156 676 q 101 533 101 608 l 101 167 q 128 49 101 83 q 242 15 156 15 q 343 48 318 15 q 368 167 368 81 l 368 240 l 401 240 l 401 168 q 386 60 401 100 q 336 4 371 21 q 243 -12 301 -12 m 232 779 q 210 788 219 779 q 201 810 201 797 q 210 831 201 822 q 232 839 219 839 q 253 831 244 839 q 263 810 263 822 q 253 788 263 797 q 232 779 244 779 z "},"¸":{"ha":160,"x_min":0,"x_max":142,"o":"m 57 -186 q 25 -181 39 -186 q 0 -169 11 -175 l 8 -150 q 31 -160 15 -156 q 56 -165 47 -165 q 102 -151 88 -165 q 117 -119 117 -137 q 103 -87 117 -99 q 67 -75 89 -75 q 46 -79 57 -75 q 25 -90 35 -83 l 8 -81 l 53 0 l 76 0 l 38 -69 l 31 -68 q 52 -59 40 -61 q 74 -57 64 -57 q 124 -76 106 -57 q 142 -115 142 -94 q 119 -167 142 -147 q 57 -186 97 -186 z "},"̧":{"ha":0,"x_min":0,"x_max":142,"o":"m 57 -186 q 25 -181 39 -186 q 0 -169 11 -175 l 8 -150 q 31 -160 15 -156 q 56 -165 47 -165 q 102 -151 88 -165 q 117 -119 117 -137 q 103 -87 117 -99 q 67 -75 89 -75 q 46 -79 57 -75 q 25 -90 35 -83 l 8 -81 l 53 0 l 76 0 l 38 -69 l 31 -68 q 52 -59 40 -61 q 74 -57 64 -57 q 124 -76 106 -57 q 142 -115 142 -94 q 119 -167 142 -147 q 57 -186 97 -186 z "},"¢":{"ha":463,"x_min":68,"x_max":393,"o":"m 218 -86 l 218 69 q 141 81 175 69 q 88 126 107 93 q 68 222 68 158 l 68 632 q 88 728 68 696 q 141 772 107 760 q 218 785 175 783 l 218 896 l 247 896 l 247 785 q 322 770 289 782 q 374 726 354 758 q 393 632 393 694 l 393 528 l 363 528 l 363 629 q 346 717 363 689 q 300 753 329 744 q 232 763 271 763 q 162 753 192 763 q 116 717 132 744 q 100 629 100 689 l 100 226 q 116 138 100 167 q 162 101 132 110 q 232 92 192 92 q 301 101 272 92 q 347 138 331 110 q 363 226 363 167 l 363 306 l 393 306 l 393 222 q 374 126 393 158 q 322 81 354 93 q 247 69 289 69 l 247 -86 l 218 -86 z "},"ч":{"ha":432,"x_min":42,"x_max":364,"o":"m 331 0 l 331 288 q 283 233 318 257 q 196 210 249 210 q 94 235 128 210 q 51 302 61 260 q 42 397 42 344 l 42 688 l 75 688 l 75 394 q 99 278 75 318 q 200 238 124 238 q 291 271 261 238 q 329 336 321 304 l 329 688 l 364 688 l 364 0 l 331 0 z "},"ˆ":{"ha":299,"x_min":14,"x_max":285,"o":"m 14 760 l 132 874 l 167 874 l 285 760 l 256 760 l 149 850 l 44 760 l 14 760 z "},"̂":{"ha":0,"x_min":14,"x_max":285,"o":"m 14 760 l 132 874 l 167 874 l 285 760 l 256 760 l 149 850 l 44 760 l 14 760 z "},":":{"ha":203,"x_min":69,"x_max":133,"o":"m 101 390 q 78 399 88 390 q 69 421 69 408 q 78 442 69 433 q 101 451 88 451 q 124 442 114 451 q 133 421 133 433 q 124 399 133 408 q 101 390 114 390 m 101 -7 q 78 2 88 -7 q 69 24 69 11 q 78 45 69 36 q 101 54 88 54 q 124 45 114 54 q 133 24 133 36 q 124 2 133 11 q 101 -7 114 -7 z "},",":{"ha":218,"x_min":69,"x_max":149,"o":"m 69 -137 q 94 -87 81 -115 q 108 -37 108 -60 q 103 -12 108 -21 q 94 2 99 -4 q 89 22 89 8 q 96 42 89 33 q 117 50 103 50 q 140 40 132 50 q 149 14 149 31 q 140 -35 149 -8 q 117 -87 131 -61 q 89 -137 104 -114 l 69 -137 z "},"̦":{"ha":0,"x_min":0,"x_max":65,"o":"m 0 -199 q 23 -155 13 -176 q 33 -118 33 -133 q 28 -105 33 -110 q 18 -94 24 -100 q 13 -78 13 -89 q 20 -61 13 -68 q 38 -54 28 -54 q 58 -64 50 -54 q 65 -85 65 -74 q 58 -119 65 -99 q 41 -160 51 -139 q 18 -199 31 -181 l 0 -199 z "},"̒":{"ha":0,"x_min":-8,"x_max":57,"o":"m 57 897 q 34 853 44 875 q 24 817 24 832 q 29 803 24 808 q 40 793 35 799 q 44 776 44 788 q 37 760 44 767 q 19 753 29 753 q -1 763 7 753 q -8 783 -8 772 q -1 818 -8 799 q 17 859 6 838 q 39 897 28 881 l 57 897 z "},"©":{"ha":833,"x_min":68,"x_max":846,"o":"m 457 43 q 306 73 376 43 q 181 157 235 103 q 98 282 128 211 q 68 433 68 353 q 98 584 68 514 q 181 708 128 654 q 306 791 235 761 q 457 821 376 821 q 608 791 538 821 q 733 708 679 761 q 816 584 786 654 q 846 433 846 514 q 816 282 846 353 q 733 157 786 211 q 608 73 679 103 q 457 43 538 43 m 457 65 q 599 94 533 65 q 715 175 665 124 q 793 292 765 226 q 821 433 821 358 q 772 616 821 533 q 642 748 724 699 q 457 797 560 797 q 317 769 382 797 q 201 690 251 740 q 122 574 150 640 q 93 433 93 508 q 122 292 93 358 q 201 175 150 226 q 317 94 251 124 q 457 65 382 65 m 465 219 q 389 229 417 219 q 349 264 361 239 q 338 333 338 289 l 338 561 q 364 643 338 621 q 460 665 390 665 q 554 643 528 665 q 581 561 581 621 l 581 511 l 557 511 l 557 561 q 538 628 557 607 q 460 650 519 650 q 381 628 400 650 q 361 561 361 607 l 361 332 q 381 258 361 279 q 464 238 401 238 q 538 258 519 238 q 557 332 557 278 l 557 378 l 581 378 l 581 333 q 569 265 581 290 q 533 230 558 240 q 465 219 507 219 z "},"¤":{"ha":589,"x_min":68,"x_max":521,"o":"m 104 201 l 78 228 l 161 310 q 128 360 140 333 q 117 414 117 386 q 160 526 117 475 l 68 617 l 92 642 l 188 546 q 288 578 236 578 q 394 543 340 578 l 486 633 l 510 608 l 421 519 q 460 414 460 469 q 422 315 460 361 l 521 215 l 494 190 l 394 292 q 341 265 368 275 q 288 256 314 256 q 186 285 231 256 l 104 201 m 288 290 q 380 327 342 290 q 418 414 418 364 q 380 506 418 468 q 288 544 342 544 q 194 508 231 544 q 158 414 158 471 q 194 327 158 364 q 288 290 231 290 z "},"d":{"ha":493,"x_min":68,"x_max":404,"o":"m 231 -11 q 141 4 174 -11 q 92 46 108 19 q 72 106 76 72 q 68 174 68 139 l 68 521 q 72 586 68 554 q 92 644 76 618 q 142 685 108 669 q 233 701 175 701 q 324 685 290 701 q 372 644 357 669 l 372 875 l 404 875 l 404 0 l 381 0 l 376 65 q 351 27 368 44 q 306 -1 335 10 q 231 -11 278 -11 m 232 14 q 315 33 286 14 q 356 84 344 53 q 369 152 367 115 q 371 222 371 189 l 371 586 q 353 625 367 604 q 313 661 340 646 q 236 676 285 676 q 156 662 183 676 q 116 622 128 647 q 103 567 104 597 q 101 507 101 538 l 101 182 q 106 103 101 142 q 138 39 111 64 q 232 14 165 14 z "},"†":{"ha":490,"x_min":68,"x_max":422,"o":"m 225 -172 l 225 479 l 68 479 l 68 510 l 225 510 l 225 813 l 257 813 l 257 510 l 422 510 l 422 479 l 257 479 l 257 -172 l 225 -172 z "},"‡":{"ha":492,"x_min":68,"x_max":422,"o":"m 225 -172 l 225 238 l 68 238 l 68 269 l 225 269 l 225 479 l 68 479 l 68 510 l 225 510 l 225 814 l 258 814 l 258 510 l 422 510 l 422 479 l 258 479 l 258 269 l 422 269 l 422 238 l 258 238 l 258 -172 l 225 -172 z "},"ď":{"ha":493,"x_min":68,"x_max":496,"o":"m 231 -11 q 141 4 174 -11 q 92 46 108 19 q 72 106 76 72 q 68 174 68 139 l 68 521 q 72 586 68 554 q 92 644 76 618 q 142 685 108 669 q 233 701 175 701 q 324 685 290 701 q 372 644 357 669 l 372 875 l 404 875 l 404 0 l 381 0 l 376 65 q 351 27 368 44 q 306 -1 335 10 q 231 -11 278 -11 m 232 14 q 315 33 286 14 q 356 84 344 53 q 369 152 367 115 q 371 222 371 189 l 371 586 q 353 625 367 604 q 313 661 340 646 q 236 676 285 676 q 156 662 183 676 q 116 622 128 647 q 103 567 104 597 q 101 507 101 538 l 101 182 q 106 103 101 142 q 138 39 111 64 q 232 14 165 14 m 446 703 l 467 863 l 496 863 l 465 703 l 446 703 z "},"đ":{"ha":479,"x_min":68,"x_max":464,"o":"m 185 754 l 185 781 l 464 781 l 464 754 l 185 754 m 231 -11 q 141 4 174 -11 q 92 46 108 19 q 72 106 76 72 q 68 174 68 139 l 68 521 q 72 586 68 554 q 92 644 76 618 q 142 685 108 669 q 233 701 175 701 q 324 685 290 701 q 372 644 357 669 l 372 875 l 404 875 l 404 0 l 381 0 l 376 65 q 351 27 368 44 q 306 -1 335 10 q 231 -11 278 -11 m 232 14 q 315 33 286 14 q 356 84 344 53 q 369 152 367 115 q 371 222 371 189 l 371 586 q 353 625 367 604 q 313 661 340 646 q 236 676 285 676 q 156 662 183 676 q 116 622 128 647 q 103 567 104 597 q 101 507 101 538 l 101 182 q 106 103 101 142 q 138 39 111 64 q 232 14 165 14 z "},"д":{"ha":654,"x_min":35,"x_max":619,"o":"m 35 -142 l 35 25 l 107 25 q 140 38 126 28 q 162 71 153 49 q 174 129 171 93 l 226 686 l 510 686 l 510 25 l 619 25 l 619 -142 l 588 -142 l 588 -1 l 67 -1 l 67 -142 l 35 -142 m 172 25 l 475 25 l 475 658 l 258 658 l 211 161 q 201 88 207 129 q 172 25 194 47 z "},"°":{"ha":444,"x_min":68,"x_max":376,"o":"m 222 521 q 106 565 143 521 q 68 669 68 608 q 103 776 68 732 q 225 821 139 821 q 315 801 282 821 q 363 747 349 781 q 376 672 376 713 q 339 564 376 607 q 222 521 301 521 m 224 543 q 314 578 282 543 q 346 671 346 613 q 315 761 346 722 q 222 800 283 800 q 133 764 165 800 q 100 669 100 728 q 136 578 100 613 q 224 543 172 543 z "},"¨":{"ha":203,"x_min":0,"x_max":172,"o":"m 31 779 q 9 788 18 779 q 0 810 0 797 q 9 831 0 822 q 31 839 18 839 q 52 831 43 839 q 61 810 61 822 q 52 788 61 797 q 31 779 43 779 m 142 779 q 120 788 129 779 q 111 810 111 797 q 120 831 111 822 q 142 839 129 839 q 163 831 154 839 q 172 810 172 822 q 163 788 172 797 q 142 779 154 779 z "},"̈":{"ha":0,"x_min":0,"x_max":172,"o":"m 31 779 q 9 788 18 779 q 0 810 0 797 q 9 831 0 822 q 31 839 18 839 q 52 831 43 839 q 61 810 61 822 q 52 788 61 797 q 31 779 43 779 m 142 779 q 120 788 129 779 q 111 810 111 797 q 120 831 111 822 q 142 839 129 839 q 163 831 154 839 q 172 810 172 822 q 163 788 172 797 q 142 779 154 779 z "},"÷":{"ha":492,"x_min":69,"x_max":422,"o":"m 69 392 l 69 421 l 422 421 l 422 392 l 69 392 m 246 142 q 223 150 232 142 q 214 172 214 158 q 223 193 214 185 q 246 201 232 201 q 268 193 258 201 q 278 172 278 185 q 268 150 278 158 q 246 142 258 142 m 246 585 q 223 593 232 585 q 214 615 214 601 q 223 637 214 628 q 246 646 232 646 q 268 637 258 646 q 278 615 278 628 q 268 593 278 601 q 246 585 258 585 z "},"∕":{"ha":526,"x_min":25,"x_max":510,"o":"m 25 -161 l 474 974 l 510 974 l 60 -161 l 25 -161 z "},"ђ":{"ha":539,"x_min":33,"x_max":464,"o":"m 311 -131 q 265 -125 286 -131 q 229 -111 244 -119 l 242 -89 q 269 -101 253 -96 q 308 -106 286 -106 q 406 -53 382 -106 q 429 92 429 -1 l 429 446 q 399 542 426 503 q 289 581 371 581 q 196 557 226 581 q 154 498 165 533 q 143 426 143 463 q 143 365 143 390 l 143 0 l 110 0 l 110 743 l 33 743 l 33 768 l 110 768 l 110 875 l 143 875 l 143 768 l 282 768 l 282 743 l 143 743 l 143 522 q 197 581 158 558 q 292 604 235 604 q 398 582 361 604 q 449 519 435 560 q 464 421 464 478 l 464 89 q 451 -31 464 13 q 415 -97 438 -75 q 366 -124 393 -118 q 311 -131 339 -131 z "},"$":{"ha":469,"x_min":57,"x_max":390,"o":"m 228 -85 l 228 75 q 123 93 160 75 q 72 152 86 111 q 57 260 57 193 l 57 314 l 90 314 l 90 261 q 95 183 90 219 q 128 124 100 146 q 226 101 157 101 q 317 124 289 101 q 351 180 344 147 q 357 240 357 213 l 357 269 q 345 332 357 304 q 306 382 333 360 q 232 422 279 404 q 145 465 182 443 q 88 520 108 488 q 68 603 68 553 l 68 646 q 106 746 68 707 q 228 785 143 785 l 228 943 l 250 943 l 250 785 q 356 742 322 781 q 390 615 390 703 l 390 551 l 358 551 l 358 611 q 326 728 358 697 q 229 758 294 758 q 126 724 153 758 q 100 638 100 689 l 100 610 q 116 538 100 567 q 165 489 132 510 q 251 446 199 468 q 325 408 294 428 q 373 356 356 389 q 390 263 390 322 l 390 239 q 381 168 390 204 q 343 106 372 132 q 250 76 314 81 l 250 -85 l 228 -85 z "},"˙":{"ha":90,"x_min":0,"x_max":61,"o":"m 31 779 q 9 788 18 779 q 0 810 0 797 q 9 831 0 822 q 31 839 18 839 q 52 831 43 839 q 61 810 61 822 q 52 788 61 797 q 31 779 43 779 z "},"̇":{"ha":0,"x_min":0,"x_max":61,"o":"m 31 779 q 9 788 18 779 q 0 810 0 797 q 9 831 0 822 q 31 839 18 839 q 52 831 43 839 q 61 810 61 822 q 52 788 61 797 q 31 779 43 779 z "},"̣":{"ha":0,"x_min":14,"x_max":78,"o":"m 46 -128 q 23 -119 32 -128 q 14 -97 14 -110 q 23 -76 14 -85 q 46 -67 32 -67 q 68 -76 58 -67 q 78 -97 78 -85 q 68 -119 78 -110 q 46 -128 58 -128 z "},"↓":{"ha":700,"x_min":68,"x_max":632,"o":"m 351 0 l 68 283 l 86 301 l 339 51 l 336 978 l 364 978 l 364 51 l 617 301 l 632 283 l 351 0 z "},"ѕ":{"ha":460,"x_min":61,"x_max":396,"o":"m 231 -8 q 131 8 167 -8 q 81 52 96 25 q 64 112 67 79 q 61 176 61 144 l 61 231 l 94 231 l 94 178 q 99 99 94 136 q 133 40 104 63 q 231 18 161 18 q 321 41 293 18 q 355 97 349 64 q 361 157 361 129 l 361 186 q 349 249 361 221 q 310 299 338 276 q 236 339 283 321 q 148 382 185 360 q 91 437 111 404 q 71 519 71 469 l 71 563 q 109 663 71 625 q 233 701 147 701 q 324 685 289 701 q 378 632 360 669 q 396 532 396 594 l 396 468 l 363 468 l 363 528 q 331 644 363 614 q 233 675 299 675 q 131 640 157 675 q 104 554 104 606 l 104 526 q 120 455 104 483 q 169 406 136 426 q 256 363 203 385 q 330 325 299 344 q 378 272 361 306 q 396 179 396 239 l 396 156 q 385 81 396 118 q 340 17 375 43 q 231 -8 306 -8 z "},"џ":{"ha":493,"x_min":68,"x_max":425,"o":"m 231 -157 l 231 0 l 68 0 l 68 688 l 101 688 l 101 26 l 390 26 l 390 688 l 425 688 l 425 0 l 261 0 l 261 -157 l 231 -157 z "},"e":{"ha":463,"x_min":68,"x_max":401,"o":"m 244 -12 q 138 3 176 -12 q 84 58 100 19 q 68 168 68 97 l 68 535 q 105 664 68 629 q 236 699 142 699 q 365 664 329 699 q 401 535 401 629 l 401 364 l 101 364 l 101 165 q 128 49 101 82 q 242 15 156 15 q 343 47 318 15 q 368 165 368 79 l 368 240 l 401 240 l 401 169 q 386 61 401 101 q 337 4 371 21 q 244 -12 303 -12 m 101 390 l 368 390 l 368 533 q 343 640 368 607 q 236 674 318 674 q 128 640 156 674 q 101 533 101 607 l 101 390 z "},"é":{"ha":463,"x_min":68,"x_max":401,"o":"m 244 -12 q 138 3 176 -12 q 84 58 100 19 q 68 168 68 97 l 68 535 q 105 664 68 629 q 236 699 142 699 q 365 664 329 699 q 401 535 401 629 l 401 364 l 101 364 l 101 165 q 128 49 101 82 q 242 15 156 15 q 343 47 318 15 q 368 165 368 79 l 368 240 l 401 240 l 401 169 q 386 61 401 101 q 337 4 371 21 q 244 -12 303 -12 m 101 390 l 368 390 l 368 533 q 343 640 368 607 q 236 674 318 674 q 128 640 156 674 q 101 533 101 607 l 101 390 m 192 756 l 269 876 l 314 876 l 213 756 l 192 756 z "},"ě":{"ha":463,"x_min":68,"x_max":401,"o":"m 244 -12 q 138 3 176 -12 q 84 58 100 19 q 68 168 68 97 l 68 535 q 105 664 68 629 q 236 699 142 699 q 365 664 329 699 q 401 535 401 629 l 401 364 l 101 364 l 101 165 q 128 49 101 82 q 242 15 156 15 q 343 47 318 15 q 368 165 368 79 l 368 240 l 401 240 l 401 169 q 386 61 401 101 q 337 4 371 21 q 244 -12 303 -12 m 101 390 l 368 390 l 368 533 q 343 640 368 607 q 236 674 318 674 q 128 640 156 674 q 101 533 101 607 l 101 390 m 214 760 l 96 874 l 126 874 l 231 783 l 338 874 l 367 874 l 249 760 l 214 760 z "},"ê":{"ha":463,"x_min":68,"x_max":401,"o":"m 244 -12 q 138 3 176 -12 q 84 58 100 19 q 68 168 68 97 l 68 535 q 105 664 68 629 q 236 699 142 699 q 365 664 329 699 q 401 535 401 629 l 401 364 l 101 364 l 101 165 q 128 49 101 82 q 242 15 156 15 q 343 47 318 15 q 368 165 368 79 l 368 240 l 401 240 l 401 169 q 386 61 401 101 q 337 4 371 21 q 244 -12 303 -12 m 101 390 l 368 390 l 368 533 q 343 640 368 607 q 236 674 318 674 q 128 640 156 674 q 101 533 101 607 l 101 390 m 96 760 l 214 874 l 249 874 l 367 760 l 338 760 l 231 850 l 126 760 l 96 760 z "},"ế":{"ha":463,"x_min":68,"x_max":488,"o":"m 244 -12 q 138 3 176 -12 q 84 58 100 19 q 68 168 68 97 l 68 535 q 105 664 68 629 q 236 699 142 699 q 365 664 329 699 q 401 535 401 629 l 401 364 l 101 364 l 101 165 q 128 49 101 82 q 242 15 156 15 q 343 47 318 15 q 368 165 368 79 l 368 240 l 401 240 l 401 169 q 386 61 401 101 q 337 4 371 21 q 244 -12 303 -12 m 101 390 l 368 390 l 368 533 q 343 640 368 607 q 236 674 318 674 q 128 640 156 674 q 101 533 101 607 l 101 390 m 96 760 l 214 874 l 249 874 l 367 760 l 338 760 l 231 850 l 126 760 l 96 760 m 365 828 l 443 949 l 488 949 l 386 828 l 365 828 z "},"ệ":{"ha":463,"x_min":68,"x_max":401,"o":"m 244 -12 q 138 3 176 -12 q 84 58 100 19 q 68 168 68 97 l 68 535 q 105 664 68 629 q 236 699 142 699 q 365 664 329 699 q 401 535 401 629 l 401 364 l 101 364 l 101 165 q 128 49 101 82 q 242 15 156 15 q 343 47 318 15 q 368 165 368 79 l 368 240 l 401 240 l 401 169 q 386 61 401 101 q 337 4 371 21 q 244 -12 303 -12 m 101 390 l 368 390 l 368 533 q 343 640 368 607 q 236 674 318 674 q 128 640 156 674 q 101 533 101 607 l 101 390 m 232 -128 q 209 -119 218 -128 q 200 -97 200 -110 q 209 -76 200 -85 q 232 -67 218 -67 q 254 -76 244 -67 q 264 -97 264 -85 q 254 -119 264 -110 q 232 -128 244 -128 m 96 760 l 214 874 l 249 874 l 367 760 l 338 760 l 231 850 l 126 760 l 96 760 z "},"ề":{"ha":463,"x_min":68,"x_max":444,"o":"m 244 -12 q 138 3 176 -12 q 84 58 100 19 q 68 168 68 97 l 68 535 q 105 664 68 629 q 236 699 142 699 q 365 664 329 699 q 401 535 401 629 l 401 364 l 101 364 l 101 165 q 128 49 101 82 q 242 15 156 15 q 343 47 318 15 q 368 165 368 79 l 368 240 l 401 240 l 401 169 q 386 61 401 101 q 337 4 371 21 q 244 -12 303 -12 m 101 390 l 368 390 l 368 533 q 343 640 368 607 q 236 674 318 674 q 128 640 156 674 q 101 533 101 607 l 101 390 m 96 760 l 214 874 l 249 874 l 367 760 l 338 760 l 231 850 l 126 760 l 96 760 m 424 828 l 322 949 l 367 949 l 444 828 l 424 828 z "},"ể":{"ha":463,"x_min":68,"x_max":486,"o":"m 244 -12 q 138 3 176 -12 q 84 58 100 19 q 68 168 68 97 l 68 535 q 105 664 68 629 q 236 699 142 699 q 365 664 329 699 q 401 535 401 629 l 401 364 l 101 364 l 101 165 q 128 49 101 82 q 242 15 156 15 q 343 47 318 15 q 368 165 368 79 l 368 240 l 401 240 l 401 169 q 386 61 401 101 q 337 4 371 21 q 244 -12 303 -12 m 101 390 l 368 390 l 368 533 q 343 640 368 607 q 236 674 318 674 q 128 640 156 674 q 101 533 101 607 l 101 390 m 96 760 l 214 874 l 249 874 l 367 760 l 338 760 l 231 850 l 126 760 l 96 760 m 394 831 l 394 857 q 411 886 394 876 q 444 906 428 896 q 461 935 461 915 l 461 939 q 449 968 461 956 q 411 981 438 981 q 368 946 376 981 l 344 951 q 367 988 350 975 q 414 1001 383 1001 q 468 985 450 1001 q 486 938 486 969 l 486 935 q 469 893 486 906 q 434 873 451 881 q 417 849 417 865 l 417 831 l 394 831 z "},"ễ":{"ha":463,"x_min":68,"x_max":401,"o":"m 244 -12 q 138 3 176 -12 q 84 58 100 19 q 68 168 68 97 l 68 535 q 105 664 68 629 q 236 699 142 699 q 365 664 329 699 q 401 535 401 629 l 401 364 l 101 364 l 101 165 q 128 49 101 82 q 242 15 156 15 q 343 47 318 15 q 368 165 368 79 l 368 240 l 401 240 l 401 169 q 386 61 401 101 q 337 4 371 21 q 244 -12 303 -12 m 101 390 l 368 390 l 368 533 q 343 640 368 607 q 236 674 318 674 q 128 640 156 674 q 101 533 101 607 l 101 390 m 96 760 l 214 874 l 249 874 l 367 760 l 338 760 l 231 850 l 126 760 l 96 760 m 285 903 q 258 908 268 903 q 228 926 247 913 q 204 943 218 933 q 174 953 190 953 q 145 942 157 953 q 129 904 133 931 l 104 904 q 125 956 107 936 q 174 976 143 976 q 205 969 190 976 q 235 950 219 961 q 260 934 249 940 q 285 928 271 928 q 313 938 301 928 q 329 975 325 949 l 354 975 q 344 938 353 954 q 320 912 335 921 q 285 903 306 903 z "},"ë":{"ha":463,"x_min":68,"x_max":401,"o":"m 244 -12 q 138 3 176 -12 q 84 58 100 19 q 68 168 68 97 l 68 535 q 105 664 68 629 q 236 699 142 699 q 365 664 329 699 q 401 535 401 629 l 401 364 l 101 364 l 101 165 q 128 49 101 82 q 242 15 156 15 q 343 47 318 15 q 368 165 368 79 l 368 240 l 401 240 l 401 169 q 386 61 401 101 q 337 4 371 21 q 244 -12 303 -12 m 101 390 l 368 390 l 368 533 q 343 640 368 607 q 236 674 318 674 q 128 640 156 674 q 101 533 101 607 l 101 390 m 176 779 q 155 788 164 779 q 146 810 146 797 q 155 831 146 822 q 176 839 164 839 q 198 831 189 839 q 207 810 207 822 q 198 788 207 797 q 176 779 189 779 m 288 779 q 266 788 275 779 q 257 810 257 797 q 266 831 257 822 q 288 839 275 839 q 309 831 300 839 q 318 810 318 822 q 309 788 318 797 q 288 779 300 779 z "},"ė":{"ha":463,"x_min":68,"x_max":401,"o":"m 244 -12 q 138 3 176 -12 q 84 58 100 19 q 68 168 68 97 l 68 535 q 105 664 68 629 q 236 699 142 699 q 365 664 329 699 q 401 535 401 629 l 401 364 l 101 364 l 101 165 q 128 49 101 82 q 242 15 156 15 q 343 47 318 15 q 368 165 368 79 l 368 240 l 401 240 l 401 169 q 386 61 401 101 q 337 4 371 21 q 244 -12 303 -12 m 101 390 l 368 390 l 368 533 q 343 640 368 607 q 236 674 318 674 q 128 640 156 674 q 101 533 101 607 l 101 390 m 232 779 q 210 788 219 779 q 201 810 201 797 q 210 831 201 822 q 232 839 219 839 q 253 831 244 839 q 263 810 263 822 q 253 788 263 797 q 232 779 244 779 z "},"ẹ":{"ha":463,"x_min":68,"x_max":401,"o":"m 244 -12 q 138 3 176 -12 q 84 58 100 19 q 68 168 68 97 l 68 535 q 105 664 68 629 q 236 699 142 699 q 365 664 329 699 q 401 535 401 629 l 401 364 l 101 364 l 101 165 q 128 49 101 82 q 242 15 156 15 q 343 47 318 15 q 368 165 368 79 l 368 240 l 401 240 l 401 169 q 386 61 401 101 q 337 4 371 21 q 244 -12 303 -12 m 101 390 l 368 390 l 368 533 q 343 640 368 607 q 236 674 318 674 q 128 640 156 674 q 101 533 101 607 l 101 390 m 232 -128 q 209 -119 218 -128 q 200 -97 200 -110 q 209 -76 200 -85 q 232 -67 218 -67 q 254 -76 244 -67 q 264 -97 264 -85 q 254 -119 264 -110 q 232 -128 244 -128 z "},"ф":{"ha":810,"x_min":68,"x_max":742,"o":"m 388 -161 l 388 67 q 337 11 372 32 q 236 -10 301 -10 q 103 42 138 -10 q 68 189 68 94 l 68 461 q 82 561 68 519 q 133 625 96 603 q 239 647 169 647 q 336 626 300 647 q 388 568 372 606 l 388 821 l 421 821 l 421 571 q 473 627 436 607 q 569 647 510 647 q 676 625 639 647 q 728 561 714 603 q 742 461 742 519 l 742 189 q 707 42 742 94 q 574 -10 672 -10 q 473 11 510 -10 q 421 68 436 32 l 421 -161 l 388 -161 m 240 15 q 337 42 306 15 q 378 109 368 69 q 388 185 388 149 l 388 449 q 379 526 388 486 q 340 594 371 567 q 242 622 308 622 q 147 598 176 622 q 109 536 117 574 q 101 456 101 499 l 101 190 q 111 103 101 143 q 151 40 121 64 q 240 15 181 15 m 571 15 q 660 40 631 15 q 699 103 689 64 q 708 190 708 143 l 708 456 q 700 536 708 499 q 663 598 692 574 q 568 622 633 622 q 474 597 506 622 q 432 536 443 572 q 421 464 421 500 l 421 188 q 431 110 421 150 q 474 43 442 71 q 571 15 506 15 z "},"è":{"ha":463,"x_min":68,"x_max":401,"o":"m 244 -12 q 138 3 176 -12 q 84 58 100 19 q 68 168 68 97 l 68 535 q 105 664 68 629 q 236 699 142 699 q 365 664 329 699 q 401 535 401 629 l 401 364 l 101 364 l 101 165 q 128 49 101 82 q 242 15 156 15 q 343 47 318 15 q 368 165 368 79 l 368 240 l 401 240 l 401 169 q 386 61 401 101 q 337 4 371 21 q 244 -12 303 -12 m 101 390 l 368 390 l 368 533 q 343 640 368 607 q 236 674 318 674 q 128 640 156 674 q 101 533 101 607 l 101 390 m 250 756 l 149 876 l 193 876 l 271 756 l 250 756 z "},"ẻ":{"ha":463,"x_min":68,"x_max":401,"o":"m 244 -12 q 138 3 176 -12 q 84 58 100 19 q 68 168 68 97 l 68 535 q 105 664 68 629 q 236 699 142 699 q 365 664 329 699 q 401 535 401 629 l 401 364 l 101 364 l 101 165 q 128 49 101 82 q 242 15 156 15 q 343 47 318 15 q 368 165 368 79 l 368 240 l 401 240 l 401 169 q 386 61 401 101 q 337 4 371 21 q 244 -12 303 -12 m 101 390 l 368 390 l 368 533 q 343 640 368 607 q 236 674 318 674 q 128 640 156 674 q 101 533 101 607 l 101 390 m 221 758 l 221 785 q 238 814 221 804 q 271 833 254 824 q 288 863 288 843 l 288 867 q 276 896 288 883 q 238 908 264 908 q 194 874 203 908 l 171 879 q 193 916 176 903 q 240 929 210 929 q 294 913 276 929 q 313 865 313 897 l 313 863 q 295 821 313 833 q 260 801 278 808 q 243 776 243 793 l 243 758 l 221 758 z "},"л":{"ha":499,"x_min":28,"x_max":431,"o":"m 28 0 l 28 25 q 72 48 56 25 q 93 128 89 71 l 139 686 l 431 686 l 431 0 l 396 0 l 396 658 l 172 658 l 125 115 q 119 82 124 101 q 106 44 115 63 q 79 13 96 25 q 38 0 63 0 l 28 0 z "},"…":{"ha":567,"x_min":69,"x_max":497,"o":"m 101 -7 q 78 2 88 -7 q 69 24 69 11 q 78 45 69 36 q 101 54 88 54 q 124 45 114 54 q 133 24 133 36 q 124 2 133 11 q 101 -7 114 -7 m 296 -6 q 273 3 282 -6 q 264 25 264 13 q 273 47 264 38 q 296 56 282 56 q 318 47 308 56 q 328 25 328 38 q 318 3 328 13 q 296 -6 308 -6 m 465 -6 q 442 3 451 -6 q 433 25 433 13 q 442 47 433 38 q 465 56 451 56 q 488 47 478 56 q 497 25 497 38 q 488 3 497 13 q 465 -6 478 -6 z "},"м":{"ha":628,"x_min":68,"x_max":560,"o":"m 68 0 l 68 688 l 100 688 l 315 51 l 532 688 l 560 688 l 560 0 l 528 0 l 528 575 l 331 0 l 299 0 l 101 575 l 101 0 l 68 0 z "},"ē":{"ha":463,"x_min":68,"x_max":401,"o":"m 244 -12 q 138 3 176 -12 q 84 58 100 19 q 68 168 68 97 l 68 535 q 105 664 68 629 q 236 699 142 699 q 365 664 329 699 q 401 535 401 629 l 401 364 l 101 364 l 101 165 q 128 49 101 82 q 242 15 156 15 q 343 47 318 15 q 368 165 368 79 l 368 240 l 401 240 l 401 169 q 386 61 401 101 q 337 4 371 21 q 244 -12 303 -12 m 101 390 l 368 390 l 368 533 q 343 640 368 607 q 236 674 318 674 q 128 640 156 674 q 101 533 101 607 l 101 390 m 113 792 l 113 815 l 350 815 l 350 792 l 113 792 z "},"—":{"ha":776,"x_min":28,"x_max":749,"o":"m 28 338 l 28 367 l 749 367 l 749 338 l 28 338 z "},"∅":{"ha":565,"x_min":54,"x_max":535,"o":"m 54 92 l 479 779 l 511 779 l 85 92 l 54 92 m 333 -17 q 235 9 281 -17 q 162 88 189 35 q 135 222 135 142 l 135 593 q 194 774 135 715 q 336 832 254 832 q 476 773 418 832 q 535 593 535 714 l 535 222 q 508 87 535 140 q 435 8 481 33 q 333 -17 389 -17 m 335 8 q 454 65 407 8 q 501 222 501 121 l 501 592 q 453 751 501 694 q 335 807 404 807 q 216 751 264 807 q 168 592 168 694 l 168 222 q 216 65 168 121 q 335 8 264 8 z "},"н":{"ha":489,"x_min":68,"x_max":421,"o":"m 68 0 l 68 688 l 101 688 l 101 378 l 388 378 l 388 688 l 421 688 l 421 0 l 388 0 l 388 350 l 101 350 l 101 0 l 68 0 z "},"–":{"ha":443,"x_min":28,"x_max":415,"o":"m 28 338 l 28 367 l 415 367 l 415 338 l 28 338 z "},"ŋ":{"ha":475,"x_min":68,"x_max":406,"o":"m 247 -153 q 232 -152 240 -153 q 219 -150 224 -151 l 219 -128 q 226 -128 221 -128 q 238 -130 231 -129 q 250 -131 244 -131 q 340 -112 307 -131 q 372 -31 372 -94 l 372 504 q 368 583 372 544 q 336 647 364 622 q 239 672 308 672 q 161 654 189 672 q 120 612 133 636 q 101 567 107 588 l 101 0 l 68 0 l 68 688 l 94 688 l 101 619 q 158 682 118 665 q 242 699 199 699 q 354 671 319 699 q 397 601 389 643 q 406 517 406 560 l 406 -32 q 385 -111 406 -85 q 328 -145 364 -137 q 247 -153 293 -153 z "},"ę":{"ha":463,"x_min":68,"x_max":401,"o":"m 244 -12 q 138 3 176 -12 q 84 58 100 19 q 68 168 68 97 l 68 535 q 105 664 68 629 q 236 699 142 699 q 365 664 329 699 q 401 535 401 629 l 401 364 l 101 364 l 101 165 q 128 49 101 82 q 242 15 156 15 q 343 47 318 15 q 368 165 368 79 l 368 240 l 401 240 l 401 169 q 386 61 401 101 q 337 4 371 21 q 244 -12 303 -12 m 101 390 l 368 390 l 368 533 q 343 640 368 607 q 236 674 318 674 q 128 640 156 674 q 101 533 101 607 l 101 390 m 257 -179 q 200 -159 225 -179 q 175 -104 175 -139 q 201 -38 175 -64 q 251 0 226 -12 l 281 0 q 224 -46 244 -19 q 204 -100 204 -72 q 222 -142 204 -128 q 258 -156 240 -156 q 283 -152 272 -156 q 299 -146 293 -149 l 307 -165 q 285 -175 299 -171 q 257 -179 272 -179 z "},"=":{"ha":553,"x_min":69,"x_max":483,"o":"m 69 543 l 69 574 l 483 574 l 483 543 l 69 543 m 69 240 l 69 272 l 483 272 l 483 240 l 69 240 z "},"р":{"ha":493,"x_min":89,"x_max":425,"o":"m 89 -161 l 89 688 l 114 688 l 118 622 q 162 676 132 654 q 260 697 192 697 q 372 670 338 697 q 416 602 407 643 q 425 517 425 561 l 425 174 q 416 87 425 129 q 372 17 407 44 q 260 -10 338 -10 q 170 6 204 -10 q 121 47 136 22 l 121 -161 l 89 -161 m 257 15 q 338 30 310 15 q 377 69 365 44 q 390 123 389 93 q 392 183 392 153 l 392 504 q 390 565 392 535 q 377 619 389 594 q 338 659 365 644 q 257 674 310 674 q 176 654 204 674 q 137 603 149 635 q 124 535 125 572 q 122 465 122 499 l 122 171 q 130 94 122 129 q 166 37 138 58 q 257 15 194 15 z "},"э":{"ha":490,"x_min":68,"x_max":422,"o":"m 249 -10 q 126 16 164 -10 q 78 85 89 42 q 68 179 68 128 l 68 239 l 101 239 l 101 186 q 109 101 101 140 q 148 39 117 63 q 249 15 179 15 q 349 40 319 15 q 383 104 378 65 q 389 183 389 143 l 389 336 l 169 336 l 169 361 l 389 361 l 389 504 q 383 583 389 544 q 349 648 378 622 q 249 674 319 674 q 148 650 179 674 q 109 588 117 626 q 101 501 101 549 l 101 450 l 68 450 l 68 510 q 78 603 68 561 q 126 672 89 646 q 249 699 164 699 q 346 682 311 699 q 397 638 381 665 q 418 578 414 611 q 422 513 422 546 l 422 176 q 418 110 422 143 q 397 49 414 76 q 346 6 381 22 q 249 -10 311 -10 z "},"с":{"ha":463,"x_min":68,"x_max":401,"o":"m 243 -12 q 138 3 176 -12 q 84 58 100 19 q 68 168 68 97 l 68 533 q 105 666 68 631 q 236 701 142 701 q 365 666 329 701 q 401 535 401 631 l 401 454 l 368 454 l 368 533 q 343 642 368 608 q 236 676 318 676 q 128 642 156 676 q 101 533 101 608 l 101 167 q 128 49 101 83 q 242 15 156 15 q 343 48 318 15 q 368 167 368 81 l 368 240 l 401 240 l 401 168 q 386 60 401 100 q 336 4 371 21 q 243 -12 301 -12 z "},"ð":{"ha":479,"x_min":68,"x_max":411,"o":"m 228 -11 q 176 -8 204 -11 q 124 10 149 -4 q 84 58 100 25 q 68 151 68 92 l 68 518 q 90 633 68 597 q 147 678 111 669 q 225 688 183 688 q 308 675 267 688 q 367 626 350 663 q 356 773 364 714 q 317 863 347 832 q 215 893 286 893 q 142 886 175 893 q 89 874 108 879 l 89 899 q 142 912 110 903 q 217 921 175 921 q 322 899 285 921 q 376 832 360 876 q 397 722 393 788 q 401 569 401 657 l 401 214 q 396 139 401 178 q 373 66 390 100 q 321 10 356 32 q 228 -11 286 -11 m 228 14 q 319 45 289 14 q 358 122 349 76 q 368 211 368 168 l 368 572 q 356 601 368 579 q 314 644 344 624 q 226 664 283 664 q 142 644 169 664 q 108 590 115 624 q 101 511 101 556 l 101 146 q 115 72 101 99 q 150 33 129 44 q 192 17 171 21 q 228 14 214 14 m 200 758 l 182 779 l 394 961 l 411 939 l 200 758 z "},"ẽ":{"ha":463,"x_min":68,"x_max":401,"o":"m 244 -12 q 138 3 176 -12 q 84 58 100 19 q 68 168 68 97 l 68 535 q 105 664 68 629 q 236 699 142 699 q 365 664 329 699 q 401 535 401 629 l 401 364 l 101 364 l 101 165 q 128 49 101 82 q 242 15 156 15 q 343 47 318 15 q 368 165 368 79 l 368 240 l 401 240 l 401 169 q 386 61 401 101 q 337 4 371 21 q 244 -12 303 -12 m 101 390 l 368 390 l 368 533 q 343 640 368 607 q 236 674 318 674 q 128 640 156 674 q 101 533 101 607 l 101 390 m 288 772 q 260 777 271 772 q 231 796 250 782 q 207 813 221 803 q 176 822 193 822 q 148 811 160 822 q 132 774 136 800 l 107 774 q 128 826 110 806 q 176 846 146 846 q 208 838 193 846 q 238 819 222 831 q 263 803 251 810 q 288 797 274 797 q 316 808 304 797 q 332 844 328 818 l 357 844 q 347 807 356 824 q 323 781 338 790 q 288 772 308 772 z "},"€":{"ha":619,"x_min":68,"x_max":551,"o":"m 358 -17 q 262 -4 306 -17 q 193 47 218 8 q 168 167 168 86 l 168 332 l 68 332 l 78 356 l 168 356 l 168 458 l 68 458 l 78 482 l 168 482 l 168 651 q 194 770 168 732 q 263 820 219 808 q 360 832 307 832 q 458 819 414 832 q 526 769 501 807 q 551 651 551 731 l 551 614 l 518 614 l 518 649 q 497 753 518 719 q 441 798 476 788 q 358 808 406 808 q 276 798 313 808 q 220 753 240 788 q 200 649 200 719 l 200 482 l 421 482 l 410 458 l 201 458 l 201 356 l 367 356 l 357 332 l 200 332 l 200 168 q 220 63 200 97 q 276 19 240 29 q 358 8 313 8 q 442 19 406 8 q 498 63 478 29 q 518 168 518 97 l 518 238 l 551 238 l 551 167 q 526 46 551 85 q 458 -5 501 7 q 358 -17 414 -17 z "},"!":{"ha":203,"x_min":69,"x_max":135,"o":"m 90 271 l 83 497 l 82 875 l 117 875 l 117 499 l 108 271 l 90 271 m 101 -7 q 78 2 88 -7 q 69 25 69 11 q 78 45 69 36 q 101 54 88 54 q 124 45 114 54 q 135 25 135 36 q 124 2 135 11 q 101 -7 114 -7 z "},"¡":{"ha":203,"x_min":69,"x_max":135,"o":"m 90 414 l 108 414 l 117 186 l 117 -190 l 82 -190 l 83 188 l 90 414 m 101 692 q 124 683 114 692 q 135 660 135 674 q 124 640 135 649 q 101 631 114 631 q 78 640 88 631 q 69 660 69 649 q 78 683 69 674 q 101 692 88 692 z "},"f":{"ha":303,"x_min":54,"x_max":303,"o":"m 97 0 l 97 635 l 54 635 l 54 661 l 97 661 l 97 758 q 103 811 97 788 q 123 851 110 835 q 156 875 136 867 q 203 883 176 883 q 240 883 221 883 q 276 881 258 882 q 303 878 293 879 l 303 850 q 271 853 303 850 q 203 857 239 857 q 145 824 161 857 q 129 754 129 790 l 129 661 l 303 661 l 303 635 l 129 635 l 129 0 l 97 0 z "},"ﬁ":{"ha":513,"x_min":54,"x_max":439,"o":"m 97 0 l 97 635 l 54 635 l 54 661 l 97 661 l 97 758 q 103 811 97 788 q 123 851 110 835 q 156 875 136 867 q 203 883 176 883 q 240 883 221 883 q 276 881 258 882 q 303 878 293 879 l 303 850 q 271 853 303 850 q 203 857 239 857 q 145 824 161 857 q 129 754 129 790 l 129 661 l 303 661 l 303 635 l 129 635 l 129 0 l 97 0 m 392 0 l 392 688 l 424 688 l 424 0 l 392 0 m 408 779 q 387 788 396 779 q 378 810 378 797 q 387 831 378 822 q 408 839 396 839 q 430 831 421 839 q 439 810 439 822 q 430 788 439 797 q 408 779 421 779 z "},"ﬂ":{"ha":513,"x_min":54,"x_max":424,"o":"m 97 0 l 97 635 l 54 635 l 54 661 l 97 661 l 97 758 q 103 811 97 788 q 123 851 110 835 q 156 875 136 867 q 203 883 176 883 q 240 883 221 883 q 276 881 258 882 q 303 878 293 879 l 303 850 q 271 853 303 850 q 203 857 239 857 q 145 824 161 857 q 129 754 129 790 l 129 661 l 303 661 l 303 635 l 129 635 l 129 0 l 97 0 m 392 0 l 392 883 l 424 883 l 424 0 l 392 0 z "},"ƒ":{"ha":392,"x_min":-140,"x_max":372,"o":"m -46 -206 q -84 -204 -64 -206 q -119 -201 -104 -203 q -140 -200 -135 -200 l -137 -174 l -49 -179 q 6 -163 -14 -179 q 35 -123 25 -147 q 50 -75 46 -99 l 129 571 l 67 571 l 68 594 l 131 594 l 151 747 q 187 840 160 807 q 272 874 214 874 q 301 874 286 874 q 328 873 315 874 q 353 871 342 872 q 372 868 364 869 l 368 844 q 333 848 358 847 q 276 849 307 849 q 209 815 229 849 q 183 746 189 782 l 163 594 l 318 594 l 317 571 l 161 571 l 82 -78 q 44 -172 74 -137 q -46 -206 15 -206 z "},"⁴":{"ha":315,"x_min":6,"x_max":285,"o":"m 200 328 l 200 429 l 6 429 l 6 454 l 207 821 l 232 821 l 232 453 l 285 453 l 285 429 l 232 429 l 232 328 l 200 328 m 36 453 l 200 453 l 200 744 l 36 453 z "},"⁄":{"ha":518,"x_min":-111,"x_max":483,"o":"m -111 0 l 447 813 l 483 813 l -78 0 l -111 0 z "},"₣":{"ha":528,"x_min":68,"x_max":472,"o":"m 136 0 l 136 226 l 68 226 l 68 250 l 136 250 l 136 821 l 472 821 l 472 794 l 169 794 l 169 446 l 403 446 l 403 419 l 169 419 l 169 250 l 313 250 l 313 226 l 169 226 l 169 0 l 136 0 z "},"g":{"ha":476,"x_min":68,"x_max":401,"o":"m 213 -161 q 184 -160 200 -161 q 153 -157 168 -158 q 128 -154 139 -156 q 113 -151 117 -153 l 113 -126 q 156 -132 128 -128 q 208 -136 183 -136 q 251 -134 225 -136 q 305 -117 278 -132 q 351 -68 332 -103 q 369 32 369 -33 l 369 124 q 339 69 360 90 q 289 38 318 47 q 225 28 260 28 q 176 31 203 28 q 124 49 149 35 q 84 97 100 64 q 68 190 68 131 l 68 529 q 79 617 68 583 q 110 667 90 650 q 159 691 131 685 q 224 697 188 697 q 311 683 267 697 q 369 628 356 668 l 375 683 l 401 683 l 401 26 q 385 -67 401 -31 q 341 -124 368 -104 q 280 -153 314 -144 q 213 -161 246 -161 m 228 54 q 319 85 289 54 q 358 161 349 115 q 368 251 368 207 l 368 583 q 347 622 363 601 q 303 658 332 643 q 226 674 275 674 q 130 642 158 674 q 101 528 101 611 l 101 186 q 115 112 101 139 q 150 73 129 85 q 192 58 171 61 q 228 54 214 54 z "},"ğ":{"ha":476,"x_min":68,"x_max":401,"o":"m 213 -161 q 184 -160 200 -161 q 153 -157 168 -158 q 128 -154 139 -156 q 113 -151 117 -153 l 113 -126 q 156 -132 128 -128 q 208 -136 183 -136 q 251 -134 225 -136 q 305 -117 278 -132 q 351 -68 332 -103 q 369 32 369 -33 l 369 124 q 339 69 360 90 q 289 38 318 47 q 225 28 260 28 q 176 31 203 28 q 124 49 149 35 q 84 97 100 64 q 68 190 68 131 l 68 529 q 79 617 68 583 q 110 667 90 650 q 159 691 131 685 q 224 697 188 697 q 311 683 267 697 q 369 628 356 668 l 375 683 l 401 683 l 401 26 q 385 -67 401 -31 q 341 -124 368 -104 q 280 -153 314 -144 q 213 -161 246 -161 m 228 54 q 319 85 289 54 q 358 161 349 115 q 368 251 368 207 l 368 583 q 347 622 363 601 q 303 658 332 643 q 226 674 275 674 q 130 642 158 674 q 101 528 101 611 l 101 186 q 115 112 101 139 q 150 73 129 85 q 192 58 171 61 q 228 54 214 54 m 243 758 q 172 777 199 758 q 134 822 146 796 q 121 871 122 849 l 147 871 q 180 804 154 826 q 243 782 206 782 q 309 803 283 782 q 340 871 335 825 l 367 871 q 351 822 364 849 q 313 777 339 796 q 243 758 288 758 z "},"ģ":{"ha":476,"x_min":68,"x_max":401,"o":"m 276 897 q 253 853 264 875 q 243 817 243 832 q 249 803 243 808 q 259 793 254 799 q 264 776 264 788 q 256 760 264 767 q 239 753 249 753 q 219 763 226 753 q 211 783 211 772 q 218 818 211 799 q 236 859 225 838 q 258 897 247 881 l 276 897 m 213 -161 q 184 -160 200 -161 q 153 -157 168 -158 q 128 -154 139 -156 q 113 -151 117 -153 l 113 -126 q 156 -132 128 -128 q 208 -136 183 -136 q 251 -134 225 -136 q 305 -117 278 -132 q 351 -68 332 -103 q 369 32 369 -33 l 369 124 q 339 69 360 90 q 289 38 318 47 q 225 28 260 28 q 176 31 203 28 q 124 49 149 35 q 84 97 100 64 q 68 190 68 131 l 68 529 q 79 617 68 583 q 110 667 90 650 q 159 691 131 685 q 224 697 188 697 q 311 683 267 697 q 369 628 356 668 l 375 683 l 401 683 l 401 26 q 385 -67 401 -31 q 341 -124 368 -104 q 280 -153 314 -144 q 213 -161 246 -161 m 228 54 q 319 85 289 54 q 358 161 349 115 q 368 251 368 207 l 368 583 q 347 622 363 601 q 303 658 332 643 q 226 674 275 674 q 130 642 158 674 q 101 528 101 611 l 101 186 q 115 112 101 139 q 150 73 129 85 q 192 58 171 61 q 228 54 214 54 z "},"ġ":{"ha":476,"x_min":68,"x_max":401,"o":"m 213 -161 q 184 -160 200 -161 q 153 -157 168 -158 q 128 -154 139 -156 q 113 -151 117 -153 l 113 -126 q 156 -132 128 -128 q 208 -136 183 -136 q 251 -134 225 -136 q 305 -117 278 -132 q 351 -68 332 -103 q 369 32 369 -33 l 369 124 q 339 69 360 90 q 289 38 318 47 q 225 28 260 28 q 176 31 203 28 q 124 49 149 35 q 84 97 100 64 q 68 190 68 131 l 68 529 q 79 617 68 583 q 110 667 90 650 q 159 691 131 685 q 224 697 188 697 q 311 683 267 697 q 369 628 356 668 l 375 683 l 401 683 l 401 26 q 385 -67 401 -31 q 341 -124 368 -104 q 280 -153 314 -144 q 213 -161 246 -161 m 228 54 q 319 85 289 54 q 358 161 349 115 q 368 251 368 207 l 368 583 q 347 622 363 601 q 303 658 332 643 q 226 674 275 674 q 130 642 158 674 q 101 528 101 611 l 101 186 q 115 112 101 139 q 150 73 129 85 q 192 58 171 61 q 228 54 214 54 m 244 779 q 223 788 232 779 q 214 810 214 797 q 223 831 214 822 q 244 839 232 839 q 266 831 257 839 q 275 810 275 822 q 266 788 275 797 q 244 779 257 779 z "},"г":{"ha":394,"x_min":68,"x_max":367,"o":"m 68 0 l 68 688 l 367 688 l 367 660 l 103 660 l 103 0 l 68 0 z "},"ß":{"ha":482,"x_min":-49,"x_max":447,"o":"m 21 -204 q -16 -202 6 -204 q -49 -199 -37 -200 l -49 -175 q -39 -176 -43 -176 q -29 -178 -35 -176 q -12 -180 -22 -179 q 13 -181 -1 -181 q 81 -151 64 -181 q 97 -82 97 -122 l 97 658 l 53 658 l 53 688 l 97 688 l 97 725 q 110 811 97 778 q 158 860 122 844 q 264 876 194 876 q 388 847 346 876 q 431 740 431 817 l 431 608 q 409 514 431 550 q 360 475 388 478 l 360 469 q 401 451 381 467 q 434 408 421 436 q 447 339 447 381 l 447 168 q 427 60 447 96 q 372 12 407 24 q 288 0 336 0 l 178 0 l 178 26 l 288 26 q 355 38 326 26 q 399 81 383 49 q 415 176 415 113 l 415 332 q 394 410 415 382 q 340 448 374 438 q 268 458 307 458 l 206 458 l 206 485 l 283 485 q 376 521 353 485 q 399 618 399 557 l 399 738 q 365 823 399 794 q 264 851 332 851 q 176 833 204 851 q 139 787 147 814 q 131 733 131 760 l 131 -76 q 124 -131 131 -107 q 105 -171 118 -154 q 71 -196 92 -187 q 21 -204 50 -204 z "},"ѓ":{"ha":394,"x_min":68,"x_max":367,"o":"m 68 0 l 68 688 l 367 688 l 367 660 l 103 660 l 103 0 l 68 0 m 157 756 l 235 876 l 279 876 l 178 756 l 157 756 z "},"`":{"ha":144,"x_min":0,"x_max":122,"o":"m 101 756 l 0 876 l 44 876 l 122 756 l 101 756 z "},"̀":{"ha":0,"x_min":0,"x_max":122,"o":"m 101 756 l 0 876 l 44 876 l 122 756 l 101 756 z "},">":{"ha":492,"x_min":82,"x_max":408,"o":"m 82 214 l 82 258 l 372 453 l 82 650 l 82 693 l 408 472 l 408 435 l 82 214 z "},"≥":{"ha":492,"x_min":81,"x_max":408,"o":"m 81 -1 l 81 28 l 397 28 l 397 -1 l 81 -1 m 82 214 l 82 258 l 372 453 l 82 650 l 82 693 l 408 472 l 408 435 l 82 214 z "},"«":{"ha":607,"x_min":68,"x_max":538,"o":"m 482 157 l 317 394 l 497 654 l 538 654 l 360 394 l 524 157 l 482 157 m 233 157 l 68 394 l 250 654 l 290 654 l 113 394 l 275 157 l 233 157 z "},"»":{"ha":607,"x_min":68,"x_max":538,"o":"m 332 157 l 494 394 l 317 654 l 357 654 l 538 394 l 374 157 l 332 157 m 83 157 l 247 394 l 68 654 l 110 654 l 290 394 l 125 157 l 83 157 z "},"‹":{"ha":357,"x_min":68,"x_max":289,"o":"m 233 157 l 68 394 l 249 654 l 289 654 l 113 394 l 275 157 l 233 157 z "},"›":{"ha":357,"x_min":68,"x_max":289,"o":"m 82 157 l 246 394 l 68 654 l 110 654 l 289 394 l 124 157 l 82 157 z "},"h":{"ha":501,"x_min":89,"x_max":426,"o":"m 89 0 l 89 875 l 122 875 l 122 642 q 174 683 140 668 q 261 699 207 699 q 374 672 339 699 q 417 603 408 644 q 426 517 426 561 l 426 0 l 393 0 l 393 504 q 392 558 393 529 q 378 613 390 588 q 339 656 367 639 q 258 672 311 672 q 181 656 210 672 q 138 619 151 640 q 122 583 125 599 l 122 0 l 89 0 z "},"х":{"ha":410,"x_min":18,"x_max":392,"o":"m 18 0 l 186 367 l 40 688 l 74 688 l 204 400 l 338 688 l 371 688 l 224 367 l 392 0 l 358 0 l 204 331 l 51 0 l 18 0 z "},"ъ":{"ha":547,"x_min":28,"x_max":479,"o":"m 125 0 l 125 661 l 28 661 l 28 688 l 160 688 l 160 471 l 308 471 q 413 449 376 471 q 465 388 450 428 q 479 289 479 347 l 479 196 q 471 110 479 147 q 444 49 463 74 q 392 13 425 25 q 310 0 360 0 l 125 0 m 160 25 l 307 25 q 397 48 367 25 q 436 110 426 71 q 446 196 446 149 l 446 279 q 438 359 446 321 q 401 422 431 397 q 306 446 371 446 l 160 446 l 160 25 z "},"ħ":{"ha":481,"x_min":13,"x_max":426,"o":"m 13 776 l 13 801 l 225 801 l 225 776 l 13 776 m 89 0 l 89 875 l 122 875 l 122 642 q 174 683 140 668 q 261 699 207 699 q 374 672 339 699 q 417 603 408 644 q 426 517 426 561 l 426 0 l 393 0 l 393 504 q 392 558 393 529 q 378 613 390 588 q 339 656 367 639 q 258 672 311 672 q 181 656 210 672 q 138 619 151 640 q 122 583 125 599 l 122 0 l 89 0 z "},"̉":{"ha":0,"x_min":24,"x_max":165,"o":"m 74 758 l 74 785 q 90 814 74 804 q 124 833 107 824 q 140 863 140 843 l 140 867 q 128 896 140 883 q 90 908 117 908 q 47 874 56 908 l 24 879 q 46 916 29 903 q 93 929 63 929 q 147 913 129 929 q 165 865 165 897 l 165 863 q 148 821 165 833 q 113 801 131 808 q 96 776 96 793 l 96 758 l 74 758 z "},"̛":{"ha":0,"x_min":14,"x_max":126,"o":"m 19 653 l 14 676 l 26 676 q 97 738 97 676 l 97 758 l 126 758 l 126 744 q 98 676 126 701 q 19 653 69 651 z "},"˝":{"ha":167,"x_min":0,"x_max":167,"o":"m 0 756 l 50 876 l 92 876 l 21 756 l 0 756 m 75 756 l 125 876 l 167 876 l 96 756 l 75 756 z "},"̋":{"ha":0,"x_min":0,"x_max":167,"o":"m 0 756 l 50 876 l 92 876 l 21 756 l 0 756 m 75 756 l 125 876 l 167 876 l 96 756 l 75 756 z "},"-":{"ha":414,"x_min":68,"x_max":346,"o":"m 68 338 l 68 367 l 346 367 l 346 338 l 68 338 z "},"i":{"ha":210,"x_min":75,"x_max":136,"o":"m 89 0 l 89 688 l 121 688 l 121 0 l 89 0 m 106 779 q 84 788 93 779 q 75 810 75 797 q 84 831 75 822 q 106 839 93 839 q 127 831 118 839 q 136 810 136 822 q 127 788 136 797 q 106 779 118 779 z "},"і":{"ha":210,"x_min":75,"x_max":136,"o":"m 89 0 l 89 688 l 121 688 l 121 0 l 89 0 m 106 779 q 84 788 93 779 q 75 810 75 797 q 84 831 75 822 q 106 839 93 839 q 127 831 118 839 q 136 810 136 822 q 127 788 136 797 q 106 779 118 779 z "},"я":{"ha":515,"x_min":68,"x_max":446,"o":"m 68 0 l 158 249 q 193 311 172 285 q 242 340 214 338 q 133 383 171 343 q 94 501 94 424 l 94 549 q 139 657 94 626 q 246 688 183 688 l 446 688 l 446 0 l 411 0 l 411 336 l 292 335 q 229 301 253 333 q 186 215 206 268 l 108 0 l 68 0 m 279 361 l 411 361 l 411 661 l 239 661 q 162 635 196 661 q 128 551 128 608 l 128 499 q 168 394 128 426 q 279 361 208 361 z "},"í":{"ha":210,"x_min":65,"x_max":188,"o":"m 89 0 l 89 688 l 121 688 l 121 0 l 89 0 m 65 756 l 143 876 l 188 876 l 86 756 l 65 756 z "},"ǐ":{"ha":210,"x_min":-31,"x_max":240,"o":"m 89 0 l 89 688 l 121 688 l 121 0 l 89 0 m 88 760 l -31 874 l 0 874 l 104 783 l 211 874 l 240 874 l 122 760 l 88 760 z "},"î":{"ha":210,"x_min":-31,"x_max":240,"o":"m 89 0 l 89 688 l 121 688 l 121 0 l 89 0 m -31 760 l 88 874 l 122 874 l 240 760 l 211 760 l 104 850 l 0 760 l -31 760 z "},"ï":{"ha":210,"x_min":19,"x_max":192,"o":"m 89 0 l 89 688 l 121 688 l 121 0 l 89 0 m 50 779 q 28 788 38 779 q 19 810 19 797 q 28 831 19 822 q 50 839 38 839 q 72 831 63 839 q 81 810 81 822 q 72 788 81 797 q 50 779 63 779 m 161 779 q 140 788 149 779 q 131 810 131 797 q 140 831 131 822 q 161 839 149 839 q 183 831 174 839 q 192 810 192 822 q 183 788 192 797 q 161 779 174 779 z "},"ị":{"ha":210,"x_min":75,"x_max":150,"o":"m 89 0 l 89 688 l 121 688 l 121 0 l 89 0 m 106 779 q 84 788 93 779 q 75 810 75 797 q 84 831 75 822 q 106 839 93 839 q 127 831 118 839 q 136 810 136 822 q 127 788 136 797 q 106 779 118 779 m 118 -128 q 95 -119 104 -128 q 86 -97 86 -110 q 95 -76 86 -85 q 118 -67 104 -67 q 140 -76 131 -67 q 150 -97 150 -85 q 140 -119 150 -110 q 118 -128 131 -128 z "},"ı":{"ha":210,"x_min":89,"x_max":121,"o":"m 89 0 l 89 688 l 121 688 l 121 0 l 89 0 z "},"е":{"ha":463,"x_min":68,"x_max":401,"o":"m 244 -12 q 138 3 176 -12 q 84 58 100 19 q 68 168 68 97 l 68 535 q 105 664 68 629 q 236 699 142 699 q 365 664 329 699 q 401 535 401 629 l 401 364 l 101 364 l 101 165 q 128 49 101 82 q 242 15 156 15 q 343 47 318 15 q 368 165 368 79 l 368 240 l 401 240 l 401 169 q 386 61 401 101 q 337 4 371 21 q 244 -12 303 -12 m 101 390 l 368 390 l 368 533 q 343 640 368 607 q 236 674 318 674 q 128 640 156 674 q 101 533 101 607 l 101 390 z "},"ѐ":{"ha":463,"x_min":68,"x_max":401,"o":"m 244 -12 q 138 3 176 -12 q 84 58 100 19 q 68 168 68 97 l 68 535 q 105 664 68 629 q 236 699 142 699 q 365 664 329 699 q 401 535 401 629 l 401 364 l 101 364 l 101 165 q 128 49 101 82 q 242 15 156 15 q 343 47 318 15 q 368 165 368 79 l 368 240 l 401 240 l 401 169 q 386 61 401 101 q 337 4 371 21 q 244 -12 303 -12 m 101 390 l 368 390 l 368 533 q 343 640 368 607 q 236 674 318 674 q 128 640 156 674 q 101 533 101 607 l 101 390 m 250 756 l 149 876 l 193 876 l 271 756 l 250 756 z "},"ì":{"ha":210,"x_min":22,"x_max":144,"o":"m 89 0 l 89 688 l 121 688 l 121 0 l 89 0 m 124 756 l 22 876 l 67 876 l 144 756 l 124 756 z "},"ỉ":{"ha":210,"x_min":44,"x_max":186,"o":"m 89 0 l 89 688 l 121 688 l 121 0 l 89 0 m 94 758 l 94 785 q 111 814 94 804 q 144 833 128 824 q 161 863 161 843 l 161 867 q 149 896 161 883 q 111 908 138 908 q 68 874 76 908 l 44 879 q 67 916 50 903 q 114 929 83 929 q 168 913 150 929 q 186 865 186 897 l 186 863 q 169 821 186 833 q 134 801 151 808 q 117 776 117 793 l 117 758 l 94 758 z "},"и":{"ha":486,"x_min":68,"x_max":418,"o":"m 68 0 l 68 686 l 101 686 l 101 65 l 383 686 l 418 686 l 418 0 l 386 0 l 386 625 q 245 313 315 468 q 101 0 175 157 l 68 0 z "},"ѝ":{"ha":486,"x_min":68,"x_max":418,"o":"m 68 0 l 68 686 l 101 686 l 101 65 l 383 686 l 418 686 l 418 0 l 386 0 l 386 625 q 245 313 315 468 q 101 0 175 157 l 68 0 m 261 756 l 160 876 l 204 876 l 282 756 l 261 756 z "},"й":{"ha":486,"x_min":68,"x_max":418,"o":"m 68 0 l 68 686 l 101 686 l 101 65 l 383 686 l 418 686 l 418 0 l 386 0 l 386 625 q 245 313 315 468 q 101 0 175 157 l 68 0 m 242 758 q 171 777 197 758 q 133 822 144 796 q 119 871 121 849 l 146 871 q 178 804 153 826 q 242 782 204 782 q 308 803 282 782 q 339 871 333 825 l 365 871 q 350 822 363 849 q 312 777 338 796 q 242 758 286 758 z "},"ī":{"ha":210,"x_min":-14,"x_max":224,"o":"m 89 0 l 89 688 l 121 688 l 121 0 l 89 0 m -14 792 l -14 815 l 224 815 l 224 792 l -14 792 z "},"∞":{"ha":1000,"x_min":67,"x_max":933,"o":"m 231 142 q 110 189 154 142 q 67 333 67 236 q 106 472 67 418 q 232 526 144 526 q 313 512 278 526 q 390 460 347 497 q 500 356 433 422 q 613 462 569 425 q 690 513 656 499 q 769 526 725 526 q 894 472 856 526 q 933 333 933 418 q 894 196 933 250 q 769 142 856 142 q 689 157 725 142 q 610 210 653 172 q 501 314 568 247 q 390 208 433 246 q 310 156 346 171 q 231 142 275 142 m 231 172 q 344 213 290 172 q 474 336 397 253 q 400 406 438 369 q 322 469 363 443 q 231 494 281 494 q 131 447 163 494 q 100 332 100 400 q 131 220 100 268 q 231 172 163 172 m 769 172 q 866 217 832 172 q 900 335 900 261 q 868 448 900 400 q 769 496 836 496 q 719 490 740 496 q 674 467 697 483 q 615 418 650 450 q 526 333 581 386 q 625 240 586 275 q 697 188 664 204 q 769 172 729 172 z "},"∫":{"ha":528,"x_min":-114,"x_max":486,"o":"m -17 -400 q -65 -397 -40 -399 q -114 -394 -90 -396 l -110 -368 l -19 -372 q 53 -339 29 -372 q 82 -271 76 -306 l 261 753 q 283 821 268 793 q 324 863 297 849 q 389 876 350 876 q 438 874 413 875 q 486 871 464 872 l 482 844 l 393 849 q 321 815 343 849 q 292 746 299 782 l 113 -278 q 90 -344 106 -317 q 49 -386 75 -372 q -17 -400 24 -400 z "},"ё":{"ha":463,"x_min":68,"x_max":401,"o":"m 244 -12 q 138 3 176 -12 q 84 58 100 19 q 68 168 68 97 l 68 535 q 105 664 68 629 q 236 699 142 699 q 365 664 329 699 q 401 535 401 629 l 401 364 l 101 364 l 101 165 q 128 49 101 82 q 242 15 156 15 q 343 47 318 15 q 368 165 368 79 l 368 240 l 401 240 l 401 169 q 386 61 401 101 q 337 4 371 21 q 244 -12 303 -12 m 101 390 l 368 390 l 368 533 q 343 640 368 607 q 236 674 318 674 q 128 640 156 674 q 101 533 101 607 l 101 390 m 176 779 q 155 788 164 779 q 146 810 146 797 q 155 831 146 822 q 176 839 164 839 q 198 831 189 839 q 207 810 207 822 q 198 788 207 797 q 176 779 189 779 m 288 779 q 266 788 275 779 q 257 810 257 797 q 266 831 257 822 q 288 839 275 839 q 309 831 300 839 q 318 810 318 822 q 309 788 318 797 q 288 779 300 779 z "},"į":{"ha":210,"x_min":17,"x_max":149,"o":"m 89 0 l 89 688 l 121 688 l 121 0 l 89 0 m 106 779 q 84 788 93 779 q 75 810 75 797 q 84 831 75 822 q 106 839 93 839 q 127 831 118 839 q 136 810 136 822 q 127 788 136 797 q 106 779 118 779 m 99 -179 q 42 -159 67 -179 q 17 -104 17 -139 q 42 -38 17 -64 q 93 0 68 -12 l 122 0 q 66 -46 86 -19 q 46 -100 46 -72 q 64 -142 46 -128 q 100 -156 82 -156 q 124 -152 114 -156 q 140 -146 135 -149 l 149 -165 q 127 -175 140 -171 q 99 -179 114 -179 z "},"ĩ":{"ha":210,"x_min":-19,"x_max":231,"o":"m 89 0 l 89 688 l 121 688 l 121 0 l 89 0 m 161 772 q 134 777 144 772 q 104 796 124 782 q 81 813 94 803 q 50 822 67 822 q 22 811 33 822 q 6 774 10 800 l -19 774 q 1 826 -17 806 q 50 846 19 846 q 81 838 67 846 q 111 819 96 831 q 136 803 125 810 q 161 797 147 797 q 190 808 178 797 q 206 844 201 818 l 231 844 q 220 807 229 824 q 197 781 211 790 q 161 772 182 772 z "},"ю":{"ha":792,"x_min":68,"x_max":724,"o":"m 556 -10 q 441 17 476 -10 q 397 87 406 44 q 388 174 388 129 l 388 517 q 397 603 388 561 q 441 672 406 644 q 556 699 476 699 q 670 672 635 699 q 715 603 706 644 q 724 517 724 561 l 724 174 q 715 87 724 129 q 670 17 706 44 q 556 -10 635 -10 m 68 0 l 68 688 l 101 688 l 101 378 l 390 378 l 390 350 l 101 350 l 101 0 l 68 0 m 556 15 q 648 40 619 15 q 683 102 676 64 q 690 181 690 140 l 690 511 q 683 588 690 550 q 648 649 676 625 q 556 674 619 674 q 463 649 492 674 q 428 588 435 625 q 421 511 421 550 l 421 181 q 428 102 421 140 q 463 40 435 64 q 556 15 492 15 z "},"j":{"ha":210,"x_min":-67,"x_max":136,"o":"m -39 -153 q -54 -152 -44 -153 q -67 -150 -64 -151 l -67 -128 q -55 -130 -64 -129 q -36 -131 -46 -131 q 55 -112 21 -131 q 89 -31 89 -94 l 89 688 l 121 688 l 121 -32 q 99 -112 121 -86 q 42 -145 78 -137 q -39 -153 6 -153 m 106 779 q 84 788 93 779 q 75 810 75 797 q 84 831 75 822 q 106 839 93 839 q 127 831 118 839 q 136 810 136 822 q 127 788 136 797 q 106 779 118 779 z "},"ȷ":{"ha":210,"x_min":-67,"x_max":121,"o":"m -39 -153 q -54 -152 -44 -153 q -67 -150 -64 -151 l -67 -128 q -55 -130 -64 -129 q -36 -131 -46 -131 q 55 -112 21 -131 q 89 -31 89 -94 l 89 688 l 121 688 l 121 -32 q 99 -112 121 -86 q 42 -145 78 -137 q -39 -153 6 -153 z "},"ј":{"ha":210,"x_min":-67,"x_max":136,"o":"m -39 -153 q -54 -152 -44 -153 q -67 -150 -64 -151 l -67 -128 q -55 -130 -64 -129 q -36 -131 -46 -131 q 55 -112 21 -131 q 89 -31 89 -94 l 89 688 l 121 688 l 121 -32 q 99 -112 121 -86 q 42 -145 78 -137 q -39 -153 6 -153 m 106 779 q 84 788 93 779 q 75 810 75 797 q 84 831 75 822 q 106 839 93 839 q 127 831 118 839 q 136 810 136 822 q 127 788 136 797 q 106 779 118 779 z "},"k":{"ha":422,"x_min":89,"x_max":396,"o":"m 361 0 l 154 400 l 357 688 l 392 688 l 190 401 l 396 0 l 361 0 m 89 0 l 89 883 l 121 883 l 121 0 l 89 0 z "},"к":{"ha":438,"x_min":68,"x_max":396,"o":"m 68 0 l 68 688 l 101 688 l 101 340 q 196 503 142 432 q 304 615 250 574 q 396 663 358 657 l 396 635 q 325 597 358 622 q 261 538 292 572 q 220 486 239 514 q 183 429 201 458 l 392 0 l 354 0 l 160 396 q 126 333 143 367 q 101 283 108 299 l 101 0 l 68 0 z "},"ķ":{"ha":422,"x_min":89,"x_max":396,"o":"m 361 0 l 154 400 l 357 688 l 392 688 l 190 401 l 396 0 l 361 0 m 89 0 l 89 883 l 121 883 l 121 0 l 89 0 m 190 -199 q 213 -155 203 -176 q 224 -118 224 -133 q 219 -105 224 -110 q 208 -94 214 -100 q 203 -78 203 -89 q 210 -61 203 -68 q 228 -54 218 -54 q 248 -64 240 -54 q 256 -85 256 -74 q 249 -119 256 -99 q 231 -160 242 -139 q 208 -199 221 -181 l 190 -199 z "},"ќ":{"ha":438,"x_min":68,"x_max":396,"o":"m 68 0 l 68 688 l 101 688 l 101 340 q 196 503 142 432 q 304 615 250 574 q 396 663 358 657 l 396 635 q 325 597 358 622 q 261 538 292 572 q 220 486 239 514 q 183 429 201 458 l 392 0 l 354 0 l 160 396 q 126 333 143 367 q 101 283 108 299 l 101 0 l 68 0 m 179 756 l 257 876 l 301 876 l 200 756 l 179 756 z "},"l":{"ha":210,"x_min":89,"x_max":121,"o":"m 89 0 l 89 883 l 121 883 l 121 0 l 89 0 z "},"ĺ":{"ha":210,"x_min":51,"x_max":211,"o":"m 89 0 l 89 883 l 121 883 l 121 0 l 89 0 m 51 933 l 164 1038 l 211 1038 l 82 933 l 51 933 z "},"ľ":{"ha":210,"x_min":89,"x_max":228,"o":"m 89 0 l 89 883 l 121 883 l 121 0 l 89 0 m 178 728 l 199 888 l 228 888 l 197 728 l 178 728 z "},"ļ":{"ha":210,"x_min":67,"x_max":132,"o":"m 89 0 l 89 883 l 121 883 l 121 0 l 89 0 m 67 -199 q 90 -155 79 -176 q 100 -118 100 -133 q 95 -105 100 -110 q 85 -94 90 -100 q 79 -78 79 -89 q 87 -61 79 -68 q 104 -54 94 -54 q 124 -64 117 -54 q 132 -85 132 -74 q 125 -119 132 -99 q 108 -160 118 -139 q 85 -199 97 -181 l 67 -199 z "},"←":{"ha":1118,"x_min":68,"x_max":1046,"o":"m 353 124 l 68 404 l 353 688 l 371 671 l 119 419 l 1046 419 l 1046 392 l 119 393 l 371 142 l 353 124 z "},"↔":{"ha":1318,"x_min":68,"x_max":1249,"o":"m 357 71 l 68 353 l 357 635 l 375 617 l 125 365 l 1192 365 l 942 617 l 961 635 l 1249 353 l 961 71 l 942 88 l 1193 339 l 125 339 l 375 88 l 357 71 z "},"<":{"ha":492,"x_min":82,"x_max":408,"o":"m 408 214 l 82 435 l 82 472 l 408 693 l 408 650 l 118 453 l 408 258 l 408 214 z "},"≤":{"ha":465,"x_min":69,"x_max":397,"o":"m 396 214 l 69 435 l 69 472 l 396 693 l 396 650 l 106 453 l 396 258 l 396 214 m 397 -1 l 81 -1 l 81 28 l 397 28 l 397 -1 z "},"љ":{"ha":817,"x_min":28,"x_max":749,"o":"m 28 0 l 28 25 q 72 48 56 25 q 93 128 89 71 l 139 686 l 431 686 l 431 471 l 578 471 q 689 447 653 471 q 737 383 725 424 q 749 289 749 342 l 749 229 q 743 137 749 179 q 721 64 738 94 q 671 17 704 33 q 581 0 638 0 l 396 0 l 396 658 l 172 658 l 125 115 q 119 82 124 101 q 106 44 115 63 q 79 13 96 25 q 38 0 63 0 l 28 0 m 431 25 l 576 25 q 667 48 638 25 q 706 110 696 71 q 715 196 715 149 l 715 279 q 708 359 715 321 q 670 422 700 397 q 575 446 640 446 l 431 446 l 431 25 z "},"¬":{"ha":774,"x_min":69,"x_max":706,"o":"m 675 290 l 675 532 l 69 532 l 69 560 l 706 560 l 706 290 l 675 290 z "},"ſ":{"ha":439,"x_min":14,"x_max":425,"o":"m 113 -204 q 58 -203 86 -204 q 14 -199 29 -201 l 14 -171 l 46 -175 q 78 -177 61 -176 q 114 -178 96 -178 q 171 -143 156 -176 q 186 -75 186 -110 l 186 583 l 143 583 l 143 611 l 186 611 l 186 758 q 197 826 186 799 q 233 869 208 854 q 293 883 257 883 q 363 879 331 883 q 425 868 394 875 l 418 843 q 360 853 389 849 q 293 857 331 857 q 235 823 250 857 q 219 753 219 789 l 219 -76 q 208 -145 219 -117 q 174 -189 197 -174 q 113 -204 150 -204 z "},"◊":{"ha":644,"x_min":68,"x_max":576,"o":"m 301 -49 l 68 406 l 301 858 l 343 858 l 576 406 l 343 -49 l 301 -49 m 324 -11 l 532 407 l 324 815 l 113 407 l 324 -11 z "},"ł":{"ha":376,"x_min":68,"x_max":308,"o":"m 171 0 l 171 254 l 68 208 l 68 239 l 171 285 l 171 883 l 201 883 l 201 300 l 308 347 l 308 318 l 201 269 l 201 0 l 171 0 z "},"m":{"ha":785,"x_min":89,"x_max":710,"o":"m 89 0 l 89 688 l 115 688 l 122 615 q 175 676 139 654 q 265 697 211 697 q 379 664 346 697 q 411 567 413 631 l 397 565 q 455 662 414 626 q 561 697 496 697 q 678 659 646 697 q 710 542 710 621 l 710 0 l 676 0 l 676 524 q 651 639 676 608 q 560 669 625 669 q 458 632 499 669 q 415 539 418 594 l 415 0 l 382 0 l 382 538 q 357 640 382 610 q 263 669 332 669 q 168 638 200 669 q 122 565 136 607 l 122 0 l 89 0 z "},"¯":{"ha":265,"x_min":14,"x_max":251,"o":"m 14 792 l 14 815 l 251 815 l 251 792 l 14 792 z "},"̄":{"ha":0,"x_min":14,"x_max":251,"o":"m 14 792 l 14 815 l 251 815 l 251 792 l 14 792 z "},"µ":{"ha":471,"x_min":68,"x_max":403,"o":"m 68 -179 l 68 688 l 101 688 l 101 122 q 150 44 115 72 q 243 15 185 15 q 309 24 281 15 q 353 65 338 33 q 369 164 369 97 l 369 688 l 403 688 l 403 172 q 390 68 403 108 q 344 9 378 28 q 246 -10 311 -10 q 163 7 204 -10 q 101 68 121 24 l 96 -179 l 68 -179 z "},"−":{"ha":556,"x_min":71,"x_max":482,"o":"m 71 331 l 71 367 l 482 367 l 482 331 l 71 331 z "},"×":{"ha":474,"x_min":68,"x_max":406,"o":"m 381 196 l 236 339 l 104 207 l 78 233 l 210 365 l 68 507 l 94 533 l 236 390 l 369 525 l 396 499 l 264 365 l 406 221 l 381 196 z "},"n":{"ha":501,"x_min":89,"x_max":426,"o":"m 89 0 l 89 688 l 114 688 l 122 619 q 178 682 138 665 q 261 699 218 699 q 374 672 339 699 q 417 603 408 644 q 426 517 426 561 l 426 0 l 393 0 l 393 504 q 392 565 393 535 q 378 619 390 594 q 339 658 367 643 q 258 672 311 672 q 181 654 210 672 q 140 612 153 636 q 122 567 128 588 l 122 0 l 89 0 z "},"ń":{"ha":501,"x_min":89,"x_max":426,"o":"m 89 0 l 89 688 l 114 688 l 122 619 q 178 682 138 665 q 261 699 218 699 q 374 672 339 699 q 417 603 408 644 q 426 517 426 561 l 426 0 l 393 0 l 393 504 q 392 565 393 535 q 378 619 390 594 q 339 658 367 643 q 258 672 311 672 q 181 654 210 672 q 140 612 153 636 q 122 567 128 588 l 122 0 l 89 0 m 211 756 l 289 876 l 333 876 l 232 756 l 211 756 z "},"ň":{"ha":501,"x_min":89,"x_max":426,"o":"m 89 0 l 89 688 l 114 688 l 122 619 q 178 682 138 665 q 261 699 218 699 q 374 672 339 699 q 417 603 408 644 q 426 517 426 561 l 426 0 l 393 0 l 393 504 q 392 565 393 535 q 378 619 390 594 q 339 658 367 643 q 258 672 311 672 q 181 654 210 672 q 140 612 153 636 q 122 567 128 588 l 122 0 l 89 0 m 233 760 l 115 874 l 146 874 l 250 783 l 357 874 l 386 874 l 268 760 l 233 760 z "},"ņ":{"ha":501,"x_min":89,"x_max":426,"o":"m 89 0 l 89 688 l 114 688 l 122 619 q 178 682 138 665 q 261 699 218 699 q 374 672 339 699 q 417 603 408 644 q 426 517 426 561 l 426 0 l 393 0 l 393 504 q 392 565 393 535 q 378 619 390 594 q 339 658 367 643 q 258 672 311 672 q 181 654 210 672 q 140 612 153 636 q 122 567 128 588 l 122 0 l 89 0 m 217 -199 q 240 -155 229 -176 q 250 -118 250 -133 q 245 -105 250 -110 q 235 -94 240 -100 q 229 -78 229 -89 q 237 -61 229 -68 q 254 -54 244 -54 q 274 -64 267 -54 q 282 -85 282 -74 q 275 -119 282 -99 q 258 -160 268 -139 q 235 -199 247 -181 l 217 -199 z "},"њ":{"ha":808,"x_min":68,"x_max":740,"o":"m 68 0 l 68 688 l 101 688 l 101 378 l 388 378 l 388 688 l 421 688 l 421 471 l 569 471 q 680 447 643 471 q 728 383 717 424 q 740 289 740 342 l 740 229 q 735 137 740 179 q 712 64 729 94 q 661 17 694 33 q 571 0 628 0 l 388 0 l 388 350 l 101 350 l 101 0 l 68 0 m 421 25 l 568 25 q 658 48 629 25 q 697 110 688 71 q 707 196 707 149 l 707 279 q 699 359 707 321 q 662 422 692 397 q 567 446 632 446 l 421 446 l 421 25 z "},"↗":{"ha":838,"x_min":67,"x_max":768,"o":"m 88 119 l 67 140 l 722 796 l 368 797 l 368 819 l 768 822 l 768 422 l 742 422 l 740 778 l 88 119 z "},"↖":{"ha":840,"x_min":69,"x_max":772,"o":"m 753 118 l 97 774 l 97 419 l 71 419 l 69 821 l 471 819 l 471 793 l 117 793 l 772 138 l 753 118 z "},"≠":{"ha":551,"x_min":71,"x_max":482,"o":"m 76 -1 l 203 240 l 71 240 l 71 272 l 218 272 l 357 543 l 71 543 l 71 574 l 372 574 l 447 722 l 481 722 l 404 574 l 482 574 l 482 543 l 388 543 l 247 272 l 482 272 l 482 240 l 232 240 l 108 -1 l 76 -1 z "},"ñ":{"ha":501,"x_min":89,"x_max":426,"o":"m 89 0 l 89 688 l 114 688 l 122 619 q 178 682 138 665 q 261 699 218 699 q 374 672 339 699 q 417 603 408 644 q 426 517 426 561 l 426 0 l 393 0 l 393 504 q 392 565 393 535 q 378 619 390 594 q 339 658 367 643 q 258 672 311 672 q 181 654 210 672 q 140 612 153 636 q 122 567 128 588 l 122 0 l 89 0 m 307 772 q 280 777 290 772 q 250 796 269 782 q 226 813 240 803 q 196 822 213 822 q 167 811 179 822 q 151 774 156 800 l 126 774 q 147 826 129 806 q 196 846 165 846 q 227 838 213 846 q 257 819 242 831 q 282 803 271 810 q 307 797 293 797 q 335 808 324 797 q 351 844 347 818 l 376 844 q 366 807 375 824 q 342 781 357 790 q 307 772 328 772 z "},"#":{"ha":936,"x_min":68,"x_max":868,"o":"m 182 0 l 269 276 l 68 276 l 75 299 l 276 299 l 357 557 l 156 557 l 164 579 l 365 579 l 433 796 l 453 796 l 386 579 l 646 579 l 713 796 l 735 796 l 667 579 l 868 579 l 860 557 l 658 557 l 578 299 l 779 299 l 772 276 l 571 276 l 485 0 l 463 0 l 550 276 l 290 276 l 203 0 l 182 0 m 297 299 l 557 299 l 638 557 l 378 557 l 297 299 z "},"o":{"ha":472,"x_min":68,"x_max":404,"o":"m 238 -10 q 122 17 158 -10 q 77 87 86 44 q 68 174 68 129 l 68 517 q 77 603 68 561 q 122 672 86 644 q 238 699 158 699 q 351 672 317 699 q 395 603 386 644 q 404 517 404 561 l 404 174 q 395 87 404 129 q 351 17 386 44 q 238 -10 315 -10 m 238 15 q 329 40 301 15 q 364 103 357 65 q 371 181 371 142 l 371 510 q 364 586 371 549 q 329 649 357 624 q 238 674 301 674 q 144 649 174 674 q 108 586 115 624 q 101 510 101 549 l 101 181 q 108 103 101 142 q 144 40 115 65 q 238 15 174 15 z "},"о":{"ha":472,"x_min":68,"x_max":404,"o":"m 238 -10 q 122 17 158 -10 q 77 87 86 44 q 68 174 68 129 l 68 517 q 77 603 68 561 q 122 672 86 644 q 238 699 158 699 q 351 672 317 699 q 395 603 386 644 q 404 517 404 561 l 404 174 q 395 87 404 129 q 351 17 386 44 q 238 -10 315 -10 m 238 15 q 329 40 301 15 q 364 103 357 65 q 371 181 371 142 l 371 510 q 364 586 371 549 q 329 649 357 624 q 238 674 301 674 q 144 649 174 674 q 108 586 115 624 q 101 510 101 549 l 101 181 q 108 103 101 142 q 144 40 115 65 q 238 15 174 15 z "},"ó":{"ha":472,"x_min":68,"x_max":404,"o":"m 238 -10 q 122 17 158 -10 q 77 87 86 44 q 68 174 68 129 l 68 517 q 77 603 68 561 q 122 672 86 644 q 238 699 158 699 q 351 672 317 699 q 395 603 386 644 q 404 517 404 561 l 404 174 q 395 87 404 129 q 351 17 386 44 q 238 -10 315 -10 m 238 15 q 329 40 301 15 q 364 103 357 65 q 371 181 371 142 l 371 510 q 364 586 371 549 q 329 649 357 624 q 238 674 301 674 q 144 649 174 674 q 108 586 115 624 q 101 510 101 549 l 101 181 q 108 103 101 142 q 144 40 115 65 q 238 15 174 15 m 196 756 l 274 876 l 318 876 l 217 756 l 196 756 z "},"ǒ":{"ha":472,"x_min":68,"x_max":404,"o":"m 238 -10 q 122 17 158 -10 q 77 87 86 44 q 68 174 68 129 l 68 517 q 77 603 68 561 q 122 672 86 644 q 238 699 158 699 q 351 672 317 699 q 395 603 386 644 q 404 517 404 561 l 404 174 q 395 87 404 129 q 351 17 386 44 q 238 -10 315 -10 m 238 15 q 329 40 301 15 q 364 103 357 65 q 371 181 371 142 l 371 510 q 364 586 371 549 q 329 649 357 624 q 238 674 301 674 q 144 649 174 674 q 108 586 115 624 q 101 510 101 549 l 101 181 q 108 103 101 142 q 144 40 115 65 q 238 15 174 15 m 218 760 l 100 874 l 131 874 l 235 783 l 342 874 l 371 874 l 253 760 l 218 760 z "},"ô":{"ha":472,"x_min":68,"x_max":404,"o":"m 238 -10 q 122 17 158 -10 q 77 87 86 44 q 68 174 68 129 l 68 517 q 77 603 68 561 q 122 672 86 644 q 238 699 158 699 q 351 672 317 699 q 395 603 386 644 q 404 517 404 561 l 404 174 q 395 87 404 129 q 351 17 386 44 q 238 -10 315 -10 m 238 15 q 329 40 301 15 q 364 103 357 65 q 371 181 371 142 l 371 510 q 364 586 371 549 q 329 649 357 624 q 238 674 301 674 q 144 649 174 674 q 108 586 115 624 q 101 510 101 549 l 101 181 q 108 103 101 142 q 144 40 115 65 q 238 15 174 15 m 100 760 l 218 874 l 253 874 l 371 760 l 342 760 l 235 850 l 131 760 l 100 760 z "},"ố":{"ha":472,"x_min":68,"x_max":492,"o":"m 238 -10 q 122 17 158 -10 q 77 87 86 44 q 68 174 68 129 l 68 517 q 77 603 68 561 q 122 672 86 644 q 238 699 158 699 q 351 672 317 699 q 395 603 386 644 q 404 517 404 561 l 404 174 q 395 87 404 129 q 351 17 386 44 q 238 -10 315 -10 m 238 15 q 329 40 301 15 q 364 103 357 65 q 371 181 371 142 l 371 510 q 364 586 371 549 q 329 649 357 624 q 238 674 301 674 q 144 649 174 674 q 108 586 115 624 q 101 510 101 549 l 101 181 q 108 103 101 142 q 144 40 115 65 q 238 15 174 15 m 100 760 l 218 874 l 253 874 l 371 760 l 342 760 l 235 850 l 131 760 l 100 760 m 369 828 l 447 949 l 492 949 l 390 828 l 369 828 z "},"ộ":{"ha":472,"x_min":68,"x_max":404,"o":"m 238 -10 q 122 17 158 -10 q 77 87 86 44 q 68 174 68 129 l 68 517 q 77 603 68 561 q 122 672 86 644 q 238 699 158 699 q 351 672 317 699 q 395 603 386 644 q 404 517 404 561 l 404 174 q 395 87 404 129 q 351 17 386 44 q 238 -10 315 -10 m 238 15 q 329 40 301 15 q 364 103 357 65 q 371 181 371 142 l 371 510 q 364 586 371 549 q 329 649 357 624 q 238 674 301 674 q 144 649 174 674 q 108 586 115 624 q 101 510 101 549 l 101 181 q 108 103 101 142 q 144 40 115 65 q 238 15 174 15 m 236 -128 q 213 -119 222 -128 q 204 -97 204 -110 q 213 -76 204 -85 q 236 -67 222 -67 q 258 -76 249 -67 q 268 -97 268 -85 q 258 -119 268 -110 q 236 -128 249 -128 m 100 760 l 218 874 l 253 874 l 371 760 l 342 760 l 235 850 l 131 760 l 100 760 z "},"ồ":{"ha":472,"x_min":68,"x_max":449,"o":"m 238 -10 q 122 17 158 -10 q 77 87 86 44 q 68 174 68 129 l 68 517 q 77 603 68 561 q 122 672 86 644 q 238 699 158 699 q 351 672 317 699 q 395 603 386 644 q 404 517 404 561 l 404 174 q 395 87 404 129 q 351 17 386 44 q 238 -10 315 -10 m 238 15 q 329 40 301 15 q 364 103 357 65 q 371 181 371 142 l 371 510 q 364 586 371 549 q 329 649 357 624 q 238 674 301 674 q 144 649 174 674 q 108 586 115 624 q 101 510 101 549 l 101 181 q 108 103 101 142 q 144 40 115 65 q 238 15 174 15 m 100 760 l 218 874 l 253 874 l 371 760 l 342 760 l 235 850 l 131 760 l 100 760 m 428 828 l 326 949 l 371 949 l 449 828 l 428 828 z "},"ổ":{"ha":472,"x_min":68,"x_max":490,"o":"m 238 -10 q 122 17 158 -10 q 77 87 86 44 q 68 174 68 129 l 68 517 q 77 603 68 561 q 122 672 86 644 q 238 699 158 699 q 351 672 317 699 q 395 603 386 644 q 404 517 404 561 l 404 174 q 395 87 404 129 q 351 17 386 44 q 238 -10 315 -10 m 238 15 q 329 40 301 15 q 364 103 357 65 q 371 181 371 142 l 371 510 q 364 586 371 549 q 329 649 357 624 q 238 674 301 674 q 144 649 174 674 q 108 586 115 624 q 101 510 101 549 l 101 181 q 108 103 101 142 q 144 40 115 65 q 238 15 174 15 m 100 760 l 218 874 l 253 874 l 371 760 l 342 760 l 235 850 l 131 760 l 100 760 m 399 831 l 399 857 q 415 886 399 876 q 449 906 432 896 q 465 935 465 915 l 465 939 q 453 968 465 956 q 415 981 442 981 q 372 946 381 981 l 349 951 q 371 988 354 975 q 418 1001 388 1001 q 472 985 454 1001 q 490 938 490 969 l 490 935 q 473 893 490 906 q 438 873 456 881 q 421 849 421 865 l 421 831 l 399 831 z "},"ỗ":{"ha":472,"x_min":68,"x_max":404,"o":"m 238 -10 q 122 17 158 -10 q 77 87 86 44 q 68 174 68 129 l 68 517 q 77 603 68 561 q 122 672 86 644 q 238 699 158 699 q 351 672 317 699 q 395 603 386 644 q 404 517 404 561 l 404 174 q 395 87 404 129 q 351 17 386 44 q 238 -10 315 -10 m 238 15 q 329 40 301 15 q 364 103 357 65 q 371 181 371 142 l 371 510 q 364 586 371 549 q 329 649 357 624 q 238 674 301 674 q 144 649 174 674 q 108 586 115 624 q 101 510 101 549 l 101 181 q 108 103 101 142 q 144 40 115 65 q 238 15 174 15 m 100 760 l 218 874 l 253 874 l 371 760 l 342 760 l 235 850 l 131 760 l 100 760 m 289 903 q 262 908 272 903 q 232 926 251 913 q 208 943 222 933 q 178 953 194 953 q 149 942 161 953 q 133 904 138 931 l 108 904 q 129 956 111 936 q 178 976 147 976 q 209 969 194 976 q 239 950 224 961 q 264 934 253 940 q 289 928 275 928 q 317 938 306 928 q 333 975 329 949 l 358 975 q 348 938 357 954 q 324 912 339 921 q 289 903 310 903 z "},"ö":{"ha":472,"x_min":68,"x_max":404,"o":"m 238 -10 q 122 17 158 -10 q 77 87 86 44 q 68 174 68 129 l 68 517 q 77 603 68 561 q 122 672 86 644 q 238 699 158 699 q 351 672 317 699 q 395 603 386 644 q 404 517 404 561 l 404 174 q 395 87 404 129 q 351 17 386 44 q 238 -10 315 -10 m 238 15 q 329 40 301 15 q 364 103 357 65 q 371 181 371 142 l 371 510 q 364 586 371 549 q 329 649 357 624 q 238 674 301 674 q 144 649 174 674 q 108 586 115 624 q 101 510 101 549 l 101 181 q 108 103 101 142 q 144 40 115 65 q 238 15 174 15 m 181 779 q 159 788 168 779 q 150 810 150 797 q 159 831 150 822 q 181 839 168 839 q 202 831 193 839 q 211 810 211 822 q 202 788 211 797 q 181 779 193 779 m 292 779 q 270 788 279 779 q 261 810 261 797 q 270 831 261 822 q 292 839 279 839 q 313 831 304 839 q 322 810 322 822 q 313 788 322 797 q 292 779 304 779 z "},"ọ":{"ha":472,"x_min":68,"x_max":404,"o":"m 238 -10 q 122 17 158 -10 q 77 87 86 44 q 68 174 68 129 l 68 517 q 77 603 68 561 q 122 672 86 644 q 238 699 158 699 q 351 672 317 699 q 395 603 386 644 q 404 517 404 561 l 404 174 q 395 87 404 129 q 351 17 386 44 q 238 -10 315 -10 m 238 15 q 329 40 301 15 q 364 103 357 65 q 371 181 371 142 l 371 510 q 364 586 371 549 q 329 649 357 624 q 238 674 301 674 q 144 649 174 674 q 108 586 115 624 q 101 510 101 549 l 101 181 q 108 103 101 142 q 144 40 115 65 q 238 15 174 15 m 236 -128 q 213 -119 222 -128 q 204 -97 204 -110 q 213 -76 204 -85 q 236 -67 222 -67 q 258 -76 249 -67 q 268 -97 268 -85 q 258 -119 268 -110 q 236 -128 249 -128 z "}}}
